<svg xmlns="http://www.w3.org/2000/svg" xmlns:xlink="http://www.w3.org/1999/xlink" viewBox="0 0 1920 1080"><defs><linearGradient id="linear-gradient" x1="960" y1="73.31" x2="960" y2="942.51" gradientUnits="userSpaceOnUse"><stop offset="0" stop-color="#ca592c"/><stop offset="0.57" stop-color="#4e2a48"/><stop offset="1" stop-color="#180e1e"/></linearGradient><linearGradient id="linear-gradient-2" x1="320" y1="399.56" x2="315.39" y2="292.08" gradientTransform="matrix(0.99, 0.12, -0.12, 0.99, 648.54, 239.4)" xlink:href="#linear-gradient"/><linearGradient id="linear-gradient-3" x1="319.31" y1="399.59" x2="314.71" y2="292.1" gradientTransform="matrix(0.12, -0.99, 0.99, 0.12, 600.82, 845.35)" xlink:href="#linear-gradient"/><linearGradient id="linear-gradient-4" x1="320.07" y1="399.55" x2="315.46" y2="292.07" gradientTransform="matrix(0.98, 0.22, -0.22, 0.98, 684.1, 212.89)" xlink:href="#linear-gradient"/><linearGradient id="linear-gradient-5" x1="989.1" y1="433.39" x2="984.5" y2="325.91" gradientTransform="matrix(0.99, 0.12, -0.12, 0.99, 462.8, 125.1)" xlink:href="#linear-gradient"/><linearGradient id="linear-gradient-6" x1="988.42" y1="433.42" x2="983.82" y2="325.94" gradientTransform="matrix(0.12, -0.99, 0.99, 0.12, 962.72, 1502.98)" xlink:href="#linear-gradient"/><linearGradient id="linear-gradient-7" x1="989.18" y1="433.39" x2="984.57" y2="325.91" gradientTransform="matrix(1, 0.03, -0.03, 1, 427.75, 207.57)" xlink:href="#linear-gradient"/><linearGradient id="linear-gradient-8" x1="1116.54" y1="431.18" x2="1111.93" y2="323.7" gradientTransform="matrix(0.99, 0.12, -0.12, 0.99, 463.41, 114.14)" xlink:href="#linear-gradient"/><linearGradient id="linear-gradient-9" x1="1115.85" y1="431.21" x2="1111.25" y2="323.73" gradientTransform="matrix(0.12, -0.99, 0.99, 0.12, 1077.56, 1631.44)" xlink:href="#linear-gradient"/><linearGradient id="linear-gradient-10" x1="1116.61" y1="431.18" x2="1112" y2="323.7" gradientTransform="matrix(1, 0.03, -0.03, 1, 427.75, 207.57)" xlink:href="#linear-gradient"/><linearGradient id="linear-gradient-11" x1="2003.26" y1="1682.46" x2="1993.91" y2="1464.3" gradientTransform="matrix(0.99, 0.13, -0.13, 0.99, -931.96, -1207.49)" xlink:href="#linear-gradient"/><linearGradient id="linear-gradient-12" x1="2002.54" y1="1682.49" x2="1993.19" y2="1464.33" gradientTransform="matrix(1, 0.05, -0.05, 1, -1072.08, -1049.85)" xlink:href="#linear-gradient"/><linearGradient id="linear-gradient-13" x1="2002.5" y1="1682.49" x2="1993.15" y2="1464.34" gradientTransform="matrix(0.05, -1, 1, 0.05, -703.74, 2430.65)" xlink:href="#linear-gradient"/><linearGradient id="linear-gradient-14" x1="1984.97" y1="1683.24" x2="1975.62" y2="1465.09" gradientTransform="matrix(-1, -0.05, 0.05, -1, 2740.13, 2097.32)" xlink:href="#linear-gradient"/><linearGradient id="linear-gradient-15" x1="2020.25" y1="1681.73" x2="2010.9" y2="1463.57" gradientTransform="matrix(-1, -0.05, 0.05, -1, 2810.63, 2100.32)" xlink:href="#linear-gradient"/><linearGradient id="linear-gradient-16" x1="2002.61" y1="1682.49" x2="1993.26" y2="1464.33" gradientTransform="matrix(1, 0.05, -0.05, 1, -1072.54, -1049.87)" xlink:href="#linear-gradient"/><linearGradient id="linear-gradient-17" x1="1800.73" y1="1639.44" x2="1800.73" y2="1265.09" gradientTransform="matrix(1, 0, 0, 1, -955.61, -809.92)" xlink:href="#linear-gradient"/><linearGradient id="linear-gradient-18" x1="1053.13" y1="670.85" x2="1046.86" y2="552.39" xlink:href="#linear-gradient"/><linearGradient id="linear-gradient-19" x1="1052.67" y1="670.88" x2="1046.39" y2="552.42" gradientTransform="translate(33.08 -58.54) rotate(3.26)" xlink:href="#linear-gradient"/><linearGradient id="linear-gradient-20" x1="1052.64" y1="670.88" x2="1046.36" y2="552.42" gradientTransform="translate(442.26 1558.51) rotate(-86.74)" xlink:href="#linear-gradient"/><linearGradient id="linear-gradient-21" x1="1041.88" y1="671.45" x2="1035.61" y2="552.99" gradientTransform="translate(2038.32 1171.32) rotate(-176.74)" xlink:href="#linear-gradient"/><linearGradient id="linear-gradient-22" x1="1063.54" y1="670.3" x2="1057.26" y2="551.84" gradientTransform="translate(2081.66 1170.09) rotate(-176.74)" xlink:href="#linear-gradient"/><linearGradient id="linear-gradient-23" x1="1052.71" y1="670.88" x2="1046.44" y2="552.41" gradientTransform="translate(33.27 -58.54) rotate(3.26)" xlink:href="#linear-gradient"/><linearGradient id="linear-gradient-24" x1="225.7" y1="448.56" x2="219.43" y2="330.1" gradientTransform="matrix(0.95, 0.3, -0.3, 0.95, 452.83, 164.04)" xlink:href="#linear-gradient"/><linearGradient id="linear-gradient-25" x1="225.24" y1="448.59" x2="218.96" y2="330.13" gradientTransform="matrix(1, 0.06, -0.06, 1, 362.78, 202.6)" xlink:href="#linear-gradient"/><linearGradient id="linear-gradient-26" x1="225.21" y1="448.59" x2="218.93" y2="330.13" gradientTransform="matrix(0.06, -1, 1, 0.06, 229.71, 737.48)" xlink:href="#linear-gradient"/><linearGradient id="linear-gradient-27" x1="214.46" y1="449.16" x2="208.18" y2="330.7" gradientTransform="matrix(-1, -0.06, 0.06, -1, 740.39, 891.25)" xlink:href="#linear-gradient"/><linearGradient id="linear-gradient-28" x1="236.11" y1="448.01" x2="229.84" y2="329.55" gradientTransform="matrix(-1, -0.06, 0.06, -1, 783.1, 896.56)" xlink:href="#linear-gradient"/><linearGradient id="linear-gradient-29" x1="225.28" y1="448.59" x2="219.01" y2="330.13" gradientTransform="matrix(1, 0.06, -0.06, 1, 361.96, 202.5)" xlink:href="#linear-gradient"/><linearGradient id="linear-gradient-30" x1="193.02" y1="737.25" x2="186.74" y2="618.79" gradientTransform="matrix(1, 0.03, -0.03, 1, 34.78, -83.88)" xlink:href="#linear-gradient"/><linearGradient id="linear-gradient-31" x1="192.55" y1="737.28" x2="186.27" y2="618.82" gradientTransform="matrix(1, 0.06, -0.06, 1, 48.87, -87.42)" xlink:href="#linear-gradient"/><linearGradient id="linear-gradient-32" x1="192.52" y1="737.28" x2="186.24" y2="618.82" gradientTransform="matrix(0.06, -1, 1, 0.06, -421.63, 684.56)" xlink:href="#linear-gradient"/><linearGradient id="linear-gradient-33" x1="181.77" y1="737.85" x2="175.49" y2="619.39" gradientTransform="matrix(-1, -0.06, 0.06, -1, 328.97, 1176.95)" xlink:href="#linear-gradient"/><linearGradient id="linear-gradient-34" x1="203.43" y1="736.7" x2="197.15" y2="618.24" gradientTransform="matrix(-1, -0.06, 0.06, -1, 372.34, 1176.46)" xlink:href="#linear-gradient"/><linearGradient id="linear-gradient-35" x1="192.6" y1="737.28" x2="186.32" y2="618.82" gradientTransform="matrix(1, 0.06, -0.06, 1, 48.94, -87.42)" xlink:href="#linear-gradient"/><linearGradient id="linear-gradient-36" x1="1301.61" y1="708.8" x2="1295.33" y2="590.34" gradientTransform="matrix(1, 0.03, -0.03, 1, 34.78, -83.88)" xlink:href="#linear-gradient"/><linearGradient id="linear-gradient-37" x1="1301.14" y1="708.82" x2="1294.87" y2="590.36" gradientTransform="matrix(1, 0.06, -0.06, 1, 49.36, -112.33)" xlink:href="#linear-gradient"/><linearGradient id="linear-gradient-38" x1="1301.11" y1="708.83" x2="1294.84" y2="590.37" gradientTransform="matrix(0.06, -1, 1, 0.06, 652.75, 1802.64)" xlink:href="#linear-gradient"/><linearGradient id="linear-gradient-39" x1="1290.36" y1="709.4" x2="1284.08" y2="590.93" gradientTransform="matrix(-1, -0.06, 0.06, -1, 2546.33, 1221.15)" xlink:href="#linear-gradient"/><linearGradient id="linear-gradient-40" x1="1312.02" y1="708.25" x2="1305.74" y2="589.79" gradientTransform="matrix(-1, -0.06, 0.06, -1, 2589.7, 1220.66)" xlink:href="#linear-gradient"/><linearGradient id="linear-gradient-41" x1="1301.19" y1="708.82" x2="1294.91" y2="590.36" gradientTransform="matrix(1, 0.06, -0.06, 1, 49.44, -112.33)" xlink:href="#linear-gradient"/><linearGradient id="linear-gradient-42" x1="2309.12" y1="1616.61" x2="2302.68" y2="1466.39" gradientTransform="matrix(0.99, 0.13, -0.13, 0.99, -931.96, -1207.49)" xlink:href="#linear-gradient"/><linearGradient id="linear-gradient-43" x1="2308.62" y1="1616.63" x2="2302.18" y2="1466.41" gradientTransform="matrix(1, 0.05, -0.05, 1, -1074.18, -1023.7)" xlink:href="#linear-gradient"/><linearGradient id="linear-gradient-44" x1="2308.59" y1="1616.63" x2="2302.16" y2="1466.41" gradientTransform="matrix(0.05, -1, 1, 0.05, -413.08, 2780.87)" xlink:href="#linear-gradient"/><linearGradient id="linear-gradient-45" x1="2296.52" y1="1617.15" x2="2290.08" y2="1466.93" gradientTransform="matrix(-1, -0.05, 0.05, -1, 3366.29, 2143.88)" xlink:href="#linear-gradient"/><linearGradient id="linear-gradient-46" x1="2320.82" y1="1616.11" x2="2314.38" y2="1465.89" gradientTransform="matrix(-1, -0.05, 0.05, -1, 3414.83, 2145.94)" xlink:href="#linear-gradient"/><linearGradient id="linear-gradient-47" x1="2308.67" y1="1616.63" x2="2302.23" y2="1466.41" gradientTransform="matrix(1, 0.05, -0.05, 1, -1074.5, -1023.71)" xlink:href="#linear-gradient"/><linearGradient id="linear-gradient-48" x1="2109.44" y1="1553.14" x2="2109.44" y2="1295.36" gradientTransform="matrix(1, 0, 0, 1, -955.74, -782.48)" xlink:href="#linear-gradient"/><linearGradient id="linear-gradient-49" x1="2921.09" y1="1605.7" x2="2911.74" y2="1387.54" gradientTransform="matrix(1, 0.04, -0.04, 1, -1178.71, -1034.11)" xlink:href="#linear-gradient"/><linearGradient id="linear-gradient-50" x1="2920.37" y1="1605.73" x2="2911.02" y2="1387.57" gradientTransform="matrix(1, 0.05, -0.05, 1, -1166.66, -1056.66)" xlink:href="#linear-gradient"/><linearGradient id="linear-gradient-51" x1="2920.34" y1="1605.73" x2="2910.99" y2="1387.57" gradientTransform="matrix(0.05, -1, 1, 0.05, 155.47, 3309.58)" xlink:href="#linear-gradient"/><linearGradient id="linear-gradient-52" x1="2902.8" y1="1606.48" x2="2893.45" y2="1388.33" gradientTransform="matrix(-1, -0.05, 0.05, -1, 4486.77, 2022.99)" xlink:href="#linear-gradient"/><linearGradient id="linear-gradient-53" x1="2938.08" y1="1604.97" x2="2928.73" y2="1386.81" gradientTransform="matrix(-1, -0.05, 0.05, -1, 4557.4, 2022.7)" xlink:href="#linear-gradient"/><linearGradient id="linear-gradient-54" x1="2920.44" y1="1605.72" x2="2911.09" y2="1387.57" gradientTransform="matrix(1, 0.05, -0.05, 1, -1166.62, -1056.66)" xlink:href="#linear-gradient"/><linearGradient id="linear-gradient-55" x1="2720.99" y1="1601.3" x2="2720.99" y2="1226.95" gradientTransform="matrix(1, 0, 0, 1, -1043.3, -812.87)" xlink:href="#linear-gradient"/><linearGradient id="linear-gradient-56" x1="3140.29" y1="1698.05" x2="3130.94" y2="1479.89" gradientTransform="matrix(1, -0.04, 0.04, 1, -1382.79, -842.92)" xlink:href="#linear-gradient"/><linearGradient id="linear-gradient-57" x1="3139.57" y1="1698.08" x2="3130.22" y2="1479.92" gradientTransform="matrix(1, 0.05, -0.05, 1, -1250.75, -1118.18)" xlink:href="#linear-gradient"/><linearGradient id="linear-gradient-58" x1="3139.53" y1="1698.08" x2="3130.18" y2="1479.93" gradientTransform="matrix(0.05, -1, 1, 0.05, 182.82, 3565.16)" xlink:href="#linear-gradient"/><linearGradient id="linear-gradient-59" x1="3122" y1="1698.83" x2="3112.65" y2="1480.68" gradientTransform="matrix(-1, -0.05, 0.05, -1, 4832.63, 2167.48)" xlink:href="#linear-gradient"/><linearGradient id="linear-gradient-60" x1="3157.28" y1="1697.32" x2="3147.93" y2="1479.17" gradientTransform="matrix(-1, -0.05, 0.05, -1, 4903.12, 2164.37)" xlink:href="#linear-gradient"/><linearGradient id="linear-gradient-61" x1="3139.64" y1="1698.08" x2="3130.29" y2="1479.92" gradientTransform="matrix(1, 0.05, -0.05, 1, -1250.28, -1118.2)" xlink:href="#linear-gradient"/><linearGradient id="linear-gradient-62" x1="2936.11" y1="1702.78" x2="2936.11" y2="1328.43" gradientTransform="matrix(1, 0, 0, 1, -1121.97, -873.79)" xlink:href="#linear-gradient"/><linearGradient id="linear-gradient-63" x1="322.53" y1="717.44" x2="322.53" y2="482.14" xlink:href="#linear-gradient"/><linearGradient id="linear-gradient-64" x1="322.62" y1="717.44" x2="322.62" y2="482.14" gradientTransform="translate(-6.82 4.79) rotate(-0.84)" xlink:href="#linear-gradient"/><linearGradient id="linear-gradient-65" x1="322.8" y1="717.44" x2="322.8" y2="482.14" gradientTransform="translate(-127.04 784.05) rotate(-90.84)" xlink:href="#linear-gradient"/><linearGradient id="linear-gradient-66" x1="304.94" y1="717.44" x2="304.94" y2="482.14" gradientTransform="translate(616.77 939.72) rotate(179.16)" xlink:href="#linear-gradient"/><linearGradient id="linear-gradient-67" x1="340.24" y1="717.44" x2="340.24" y2="482.14" gradientTransform="translate(687.39 940.23) rotate(179.16)" xlink:href="#linear-gradient"/><linearGradient id="linear-gradient-68" x1="322.59" y1="717.44" x2="322.59" y2="482.14" gradientTransform="translate(-6.9 4.79) rotate(-0.84)" xlink:href="#linear-gradient"/><linearGradient id="linear-gradient-69" x1="274.79" y1="964.97" x2="274.79" y2="729.67" gradientTransform="matrix(0.97, -0.23, 0.23, 0.97, -372.78, -144.96)" xlink:href="#linear-gradient"/><linearGradient id="linear-gradient-70" x1="274.88" y1="964.97" x2="274.88" y2="729.67" gradientTransform="matrix(1, -0.01, 0.01, 1, -227, -222.73)" xlink:href="#linear-gradient"/><linearGradient id="linear-gradient-71" x1="275.07" y1="964.97" x2="275.07" y2="729.67" gradientTransform="matrix(-0.01, -1, 1, -0.01, -642.34, 760.93)" xlink:href="#linear-gradient"/><linearGradient id="linear-gradient-72" x1="257.21" y1="964.97" x2="257.21" y2="729.67" gradientTransform="matrix(-1, 0.01, -0.01, -1, 310.06, 1212.52)" xlink:href="#linear-gradient"/><linearGradient id="linear-gradient-73" x1="292.51" y1="964.97" x2="292.51" y2="729.67" gradientTransform="matrix(-1, 0.01, -0.01, -1, 379.87, 1204.94)" xlink:href="#linear-gradient"/><linearGradient id="linear-gradient-74" x1="274.86" y1="964.97" x2="274.86" y2="729.67" gradientTransform="matrix(1, -0.01, 0.01, 1, -225.83, -222.87)" xlink:href="#linear-gradient"/><linearGradient id="linear-gradient-75" x1="431.08" y1="687.88" x2="424.89" y2="543.57" gradientTransform="translate(67.52 -45.63) rotate(6.67)" xlink:href="#linear-gradient"/><linearGradient id="linear-gradient-76" x1="430.16" y1="687.92" x2="423.98" y2="543.61" gradientTransform="translate(-165.97 902.38) rotate(-83.33)" xlink:href="#linear-gradient"/><linearGradient id="linear-gradient-77" x1="431.18" y1="687.88" x2="424.99" y2="543.57" xlink:href="#linear-gradient"/><linearGradient id="linear-gradient-78" x1="606.22" y1="641.9" x2="601.85" y2="539.94" gradientTransform="matrix(0.99, 0.12, -0.12, 0.99, 117.07, -26.18)" xlink:href="#linear-gradient"/><linearGradient id="linear-gradient-79" x1="605.58" y1="641.93" x2="601.21" y2="539.97" gradientTransform="matrix(0.12, -0.99, 0.99, 0.12, 44.18, 1114.95)" xlink:href="#linear-gradient"/><linearGradient id="linear-gradient-80" x1="606.29" y1="641.9" x2="601.92" y2="539.94" gradientTransform="matrix(1, 0.05, -0.05, 1, 76.54, 11.49)" xlink:href="#linear-gradient"/><linearGradient id="linear-gradient-81" x1="960" y1="896.34" x2="960" y2="594.32" xlink:href="#linear-gradient"/></defs><title>correct bg</title><g id="Layer_2" data-name="Layer 2"><g id="Layer_1-2" data-name="Layer 1"><rect width="1920" height="1080" fill="url(#linear-gradient)"/><rect x="921.63" y="545.27" width="11.06" height="61.39" transform="translate(63.17 -91.03) rotate(5.82)" fill="url(#linear-gradient-2)"/><rect x="922.57" y="549.78" width="11.06" height="33.91" transform="translate(1586.01 -299.13) rotate(95.82)" fill="url(#linear-gradient-3)"/><polygon points="945.85 605.79 945.15 598.01 936.75 594.88 934.02 588.15 928.61 586.88 920.27 589.98 915.71 589.92 911.9 594.23 905.83 597.36 898.23 604.84 908.5 608.65 945.85 605.79" fill="url(#linear-gradient-4)"/><rect x="1396.55" y="542.24" width="11.06" height="61.39" transform="translate(-44.1 122.76) rotate(-4.94)" fill="url(#linear-gradient-5)"/><rect x="1395.75" y="546.74" width="11.06" height="33.91" transform="translate(1842.31 -880.9) rotate(85.06)" fill="url(#linear-gradient-6)"/><polygon points="1426.01 598.75 1423.87 591.24 1415.03 589.74 1411.1 583.63 1405.55 583.39 1397.93 588 1393.44 588.79 1390.5 593.73 1385.13 597.94 1379.05 606.7 1389.85 608.54 1426.01 598.75" fill="url(#linear-gradient-7)"/><rect x="1523.99" y="543.88" width="11.06" height="61.39" transform="translate(-43.76 133.73) rotate(-4.94)" fill="url(#linear-gradient-8)"/><rect x="1523.19" y="548.38" width="11.06" height="33.91" transform="translate(1960.42 -1006.37) rotate(85.06)" fill="url(#linear-gradient-9)"/><polygon points="1553.45 600.39 1551.31 592.88 1542.47 591.38 1538.54 585.27 1532.99 585.03 1525.37 589.64 1520.88 590.43 1517.94 595.37 1512.57 599.58 1506.49 608.34 1517.29 610.17 1553.45 600.39" fill="url(#linear-gradient-10)"/><path d="M871.68,652l5.48-75.58s7.89-3.77,6.24-9.32l-1.66-5.54s-2.69-9.78-6.86-9.15a12.35,12.35,0,0,1-7.21-1L857.32,538l-14-1.52-2.4,3.29-6.07,5.12-3.46,1.85a29.16,29.16,0,0,0-6,0c-1.77.39-6.37,5.71-6.37,5.71a10.81,10.81,0,0,0-5.5,7.12c-1.41,5.35,6.25,13.07,6.25,13.07l-8.22,75.75Z" fill="url(#linear-gradient-11)"/><rect x="847.28" y="494.38" width="9.1" height="49.39" rx="4.55" transform="matrix(1, 0.08, -0.08, 1, 47.13, -70.43)" fill="url(#linear-gradient-12)"/><rect x="848.33" y="495.94" width="9.1" height="21.66" rx="4.55" transform="translate(1430.2 -300.02) rotate(94.87)" fill="url(#linear-gradient-13)"/><rect x="829.28" y="513.56" width="9.1" height="18.85" rx="4.55" transform="translate(1620.26 1114.85) rotate(-175.13)" fill="url(#linear-gradient-14)"/><rect x="864.46" y="516.55" width="9.1" height="18.85" rx="4.55" transform="translate(1690.25 1123.82) rotate(-175.13)" fill="url(#linear-gradient-15)"/><rect x="824.56" y="518.95" width="53.73" height="11.05" rx="5.52" transform="translate(47.59 -70.38) rotate(4.87)" fill="url(#linear-gradient-16)"/><rect x="807.76" y="537.03" width="74.77" height="108.87" transform="translate(55.81 -72.66) rotate(5.09)" fill="url(#linear-gradient-17)"/><path d="M1070,631.83l-3.23-46.43s4.47-3,3-6.21l-1.49-3.23s-2.49-5.71-5-5a7.64,7.64,0,0,1-4.47,0l-7.45-7.2-8.61.29-1.17,2.21-3.25,3.63-1.95,1.43a17.82,17.82,0,0,0-3.63.52c-1,.39-3.38,4-3.38,4a6.63,6.63,0,0,0-2.73,4.8c-.39,3.38,4.94,7.41,4.94,7.41l1.58,46.77Z" fill="url(#linear-gradient-18)"/><rect x="1043.61" y="537.59" width="5.59" height="30.34" rx="2.79" transform="translate(-29.7 60.32) rotate(-3.26)" fill="url(#linear-gradient-19)"/><rect x="1043.18" y="538.53" width="5.59" height="13.31" rx="2.79" transform="translate(1530.88 -530.06) rotate(86.74)" fill="url(#linear-gradient-20)"/><rect x="1033.01" y="550.91" width="5.59" height="11.58" rx="2.79" transform="translate(2101.55 1053.66) rotate(176.74)" fill="url(#linear-gradient-21)"/><rect x="1054.66" y="549.68" width="5.59" height="11.58" rx="2.79" transform="translate(2144.75 1049.97) rotate(176.74)" fill="url(#linear-gradient-22)"/><rect x="1030.13" y="552.69" width="33" height="6.79" rx="3.39" transform="translate(-29.89 60.34) rotate(-3.26)" fill="url(#linear-gradient-23)"/><path d="M561.45,627.48l10.84-45.26s5.16-1.5,4.71-5l-.46-3.52s-.65-6.2-3.25-6.23A7.63,7.63,0,0,1,569,566.1l-4.95-9.1-8.31-2.31L554,556.45l-4.19,2.49-2.29.78a18,18,0,0,0-3.62-.59c-1.11.06-4.43,2.82-4.43,2.82a6.65,6.65,0,0,0-4,3.77c-1.39,3.1,2.49,8.54,2.49,8.54l-12.53,45.1Z" fill="url(#linear-gradient-24)"/><rect x="559.84" y="529.8" width="5.59" height="30.34" rx="2.79" transform="translate(150.8 -121.32) rotate(14.19)" fill="url(#linear-gradient-25)"/><rect x="561.7" y="530.96" width="5.59" height="13.31" rx="2.79" transform="translate(1224.11 122.17) rotate(104.19)" fill="url(#linear-gradient-26)"/><rect x="548.55" y="539.76" width="5.59" height="11.58" rx="2.79" transform="translate(952.09 1209.62) rotate(-165.81)" fill="url(#linear-gradient-27)"/><rect x="569.57" y="545.07" width="5.59" height="11.58" rx="2.79" transform="translate(992.2 1225.25) rotate(-165.81)" fill="url(#linear-gradient-28)"/><rect x="545.35" y="544.81" width="33" height="6.79" rx="3.39" transform="translate(151.57 -121.03) rotate(14.19)" fill="url(#linear-gradient-29)"/><path d="M220.57,621.15l-1.63-46.51s4.57-2.83,3.19-6.1l-1.38-3.28s-2.29-5.79-4.79-5.13a7.55,7.55,0,0,1-4.47-.16l-7.2-7.45h-8.62l-1.24,2.16-3.37,3.53-2,1.36a18.12,18.12,0,0,0-3.65.39c-1,.35-3.51,3.91-3.51,3.91a6.63,6.63,0,0,0-2.89,4.71c-.51,3.36,4.67,7.56,4.67,7.56l0,46.81Z" fill="url(#linear-gradient-30)"/><rect x="196.9" y="526.15" width="5.59" height="30.34" rx="2.79" transform="translate(-12.11 4.62) rotate(-1.29)" fill="url(#linear-gradient-31)"/><rect x="196.73" y="527.08" width="5.59" height="13.31" rx="2.79" transform="translate(728.64 322.28) rotate(88.71)" fill="url(#linear-gradient-32)"/><rect x="186.16" y="539.1" width="5.59" height="11.58" rx="2.79" transform="translate(390.11 1085.39) rotate(178.71)" fill="url(#linear-gradient-33)"/><rect x="207.85" y="538.61" width="5.59" height="11.58" rx="2.79" transform="translate(433.46 1083.93) rotate(178.71)" fill="url(#linear-gradient-34)"/><rect x="183.3" y="541.25" width="33" height="6.79" rx="3.39" transform="translate(-12.19 4.63) rotate(-1.29)" fill="url(#linear-gradient-35)"/><path d="M1329.5,630.79l-1.63-46.51s4.56-2.82,3.19-6.1l-1.38-3.28s-2.29-5.79-4.79-5.13a7.6,7.6,0,0,1-4.47-.15l-7.2-7.46h-8.62l-1.24,2.17-3.37,3.52-2,1.36a18.12,18.12,0,0,0-3.65.39c-1,.36-3.52,3.91-3.52,3.91a6.66,6.66,0,0,0-2.89,4.71c-.5,3.36,4.68,7.57,4.68,7.57l0,46.8Z" fill="url(#linear-gradient-36)"/><rect x="1305.82" y="535.79" width="5.59" height="30.34" rx="2.79" transform="translate(-12.05 29.54) rotate(-1.29)" fill="url(#linear-gradient-37)"/><rect x="1305.65" y="536.72" width="5.59" height="13.31" rx="2.79" transform="translate(1822.3 -776.94) rotate(88.71)" fill="url(#linear-gradient-38)"/><rect x="1295.09" y="548.74" width="5.59" height="11.58" rx="2.79" transform="translate(2607.9 1079.76) rotate(178.71)" fill="url(#linear-gradient-39)"/><rect x="1316.77" y="548.25" width="5.59" height="11.58" rx="2.79" transform="matrix(-1, 0.02, -0.02, -1, 2651.25, 1078.3)" fill="url(#linear-gradient-40)"/><rect x="1292.23" y="550.89" width="33" height="6.79" rx="3.39" transform="translate(-12.12 29.54) rotate(-1.29)" fill="url(#linear-gradient-41)"/><path d="M1172,648.38l3.77-52s5.43-2.59,4.29-6.41l-1.14-3.82s-1.85-6.73-4.73-6.3a8.53,8.53,0,0,1-5-.71l-7.12-9.17-9.61-1-1.65,2.27-4.18,3.52-2.39,1.27a20.74,20.74,0,0,0-4.12,0c-1.21.27-4.38,3.94-4.38,3.94a7.43,7.43,0,0,0-3.79,4.9c-1,3.68,4.3,9,4.3,9l-5.65,52.17Z" fill="url(#linear-gradient-42)"/><rect x="1155.18" y="539.87" width="6.27" height="34.01" rx="3.13" transform="translate(51.45 -96.31) rotate(4.87)" fill="url(#linear-gradient-43)"/><rect x="1155.9" y="540.95" width="6.27" height="14.92" rx="3.13" transform="translate(1803.82 -559.9) rotate(94.87)" fill="url(#linear-gradient-44)"/><rect x="1142.79" y="553.08" width="6.27" height="12.98" rx="3.13" transform="matrix(-1, -0.08, 0.08, -1, 2240.21, 1214.38)" fill="url(#linear-gradient-45)"/><rect x="1167.01" y="555.14" width="6.27" height="12.98" rx="3.13" transform="translate(2288.4 1220.56) rotate(-175.13)" fill="url(#linear-gradient-46)"/><rect x="1139.54" y="556.8" width="37" height="7.61" rx="3.8" transform="translate(51.76 -96.27) rotate(4.87)" fill="url(#linear-gradient-47)"/><rect x="1127.97" y="569.24" width="51.48" height="74.97" transform="translate(58.38 -99.97) rotate(5.09)" fill="url(#linear-gradient-48)"/><path d="M1709.73,608.13l-1.55-75.76s7.5-4.49,5.34-9.85l-2.17-5.37s-3.58-9.48-7.68-8.47a12.34,12.34,0,0,1-7.26-.36L1684.87,496l-14-.21-2.08,3.5-5.57,5.65-3.28,2.17a29.38,29.38,0,0,0-6,.56c-1.72.55-5.81,6.27-5.81,6.27a10.8,10.8,0,0,0-4.82,7.6c-.9,5.46,7.44,12.43,7.44,12.43l-1.16,76.19Z" fill="url(#linear-gradient-49)"/><rect x="1673.09" y="452.98" width="9.1" height="49.39" rx="4.55" transform="translate(-3.73 13.29) rotate(-0.45)" fill="url(#linear-gradient-50)"/><rect x="1672.99" y="454.5" width="9.1" height="21.66" rx="4.55" transform="translate(2129.53 -1215.85) rotate(89.55)" fill="url(#linear-gradient-51)"/><rect x="1655.53" y="473.81" width="9.1" height="18.85" rx="4.55" transform="matrix(-1, 0.01, -0.01, -1, 3323.93, 953.31)" fill="url(#linear-gradient-52)"/><rect x="1690.84" y="473.53" width="9.1" height="18.85" rx="4.55" transform="translate(3394.54 952.47) rotate(179.55)" fill="url(#linear-gradient-53)"/><rect x="1650.87" y="477.57" width="53.73" height="11.05" rx="5.52" transform="translate(-3.77 13.29) rotate(-0.45)" fill="url(#linear-gradient-54)"/><rect x="1640.31" y="495.94" width="74.77" height="108.87" transform="translate(-2.21 6.8) rotate(-0.23)" fill="url(#linear-gradient-55)"/><path d="M1850.7,645.94l-7.61-75.39s7.12-5.07,4.53-10.25l-2.58-5.18s-4.33-9.16-8.34-7.83a12.34,12.34,0,0,1-7.27.23l-12.49-11.34-14,.92-1.79,3.65-5.09,6.08-3.1,2.42a29.74,29.74,0,0,0-5.89,1c-1.67.69-5.29,6.73-5.29,6.73a10.81,10.81,0,0,0-4.2,8c-.46,5.52,8.41,11.8,8.41,11.8l5,76Z" fill="url(#linear-gradient-56)"/><rect x="1803.72" y="493.78" width="9.1" height="49.39" rx="4.55" transform="translate(-38.58 160.98) rotate(-5.04)" fill="url(#linear-gradient-57)"/><rect x="1802.63" y="495.34" width="9.1" height="21.66" rx="4.55" transform="translate(2152.49 -1338.52) rotate(84.96)" fill="url(#linear-gradient-58)"/><rect x="1786.66" y="515.99" width="9.1" height="18.85" rx="4.55" transform="translate(3621.68 891.33) rotate(174.96)" fill="url(#linear-gradient-59)"/><rect x="1821.84" y="512.89" width="9.1" height="18.85" rx="4.55" transform="translate(3691.62 882.04) rotate(174.96)" fill="url(#linear-gradient-60)"/><rect x="1781.94" y="518.34" width="53.73" height="11.05" rx="5.52" transform="translate(-39.05 161.04) rotate(-5.04)" fill="url(#linear-gradient-61)"/><rect x="1776.76" y="536.5" width="74.77" height="108.87" transform="translate(-43.25 154.59) rotate(-4.82)" fill="url(#linear-gradient-62)"/><path d="M351.76,598.11l.16-75.77s7.6-4.32,5.56-9.73l-2.05-5.42s-3.37-9.56-7.48-8.64a12.36,12.36,0,0,1-7.26-.52l-11.26-12.56-14-.53-2.16,3.45-5.69,5.53L304.22,496a29.44,29.44,0,0,0-6,.42c-1.73.52-5.95,6.15-5.95,6.15a10.82,10.82,0,0,0-5,7.48c-1,5.44,7.16,12.6,7.16,12.6l-2.88,76.15Z" fill="url(#linear-gradient-63)"/><rect x="318.07" y="442.27" width="9.1" height="49.39" rx="4.55" transform="translate(6.89 -4.69) rotate(0.84)" fill="url(#linear-gradient-64)"/><rect x="318.25" y="443.79" width="9.1" height="21.66" rx="4.55" transform="translate(782.1 138.53) rotate(90.84)" fill="url(#linear-gradient-65)"/><rect x="300.39" y="462.7" width="9.1" height="18.85" rx="4.55" transform="translate(602.91 948.67) rotate(-179.16)" fill="url(#linear-gradient-66)"/><rect x="335.69" y="463.22" width="9.1" height="18.85" rx="4.55" transform="translate(673.51 950.23) rotate(-179.16)" fill="url(#linear-gradient-67)"/><rect x="295.73" y="466.86" width="53.73" height="11.05" rx="5.52" transform="translate(6.97 -4.69) rotate(0.84)" fill="url(#linear-gradient-68)"/><path d="M116.74,608.65l-17.19-73.8s6.41-5.94,3.18-10.75l-3.23-4.8s-5.46-8.54-9.26-6.7a12.38,12.38,0,0,1-7.19,1.16l-13.83-9.65-13.78,2.7-1.31,3.85-4.28,6.68-2.76,2.8a29.49,29.49,0,0,0-5.71,1.77c-1.57.9-4.39,7.35-4.39,7.35a10.83,10.83,0,0,0-3.14,8.43c.25,5.53,9.85,10.62,9.85,10.62L58.33,623.1Z" fill="url(#linear-gradient-69)"/><rect x="53.8" y="462.96" width="9.1" height="49.39" rx="4.55" transform="translate(-103.28 23.88) rotate(-12.39)" fill="url(#linear-gradient-70)"/><rect x="51.15" y="464.76" width="9.1" height="21.66" rx="4.55" transform="translate(508.26 319.13) rotate(77.61)" fill="url(#linear-gradient-71)"/><rect x="37.77" y="487.3" width="9.1" height="18.85" rx="4.55" transform="translate(190.24 972.79) rotate(167.61)" fill="url(#linear-gradient-72)"/><rect x="72.26" y="479.72" width="9.1" height="18.85" rx="4.55" transform="translate(256.79 950.41) rotate(167.61)" fill="url(#linear-gradient-73)"/><rect x="32.7" y="487.41" width="53.73" height="11.05" rx="5.52" transform="translate(-104.38 24.26) rotate(-12.39)" fill="url(#linear-gradient-74)"/><rect x="418.03" y="515.6" width="14.86" height="82.43" transform="translate(-61.76 53.16) rotate(-6.67)" fill="url(#linear-gradient-75)"/><rect x="416.59" y="521.67" width="14.86" height="45.53" transform="translate(915.55 60.08) rotate(83.33)" fill="url(#linear-gradient-76)"/><polygon points="458.62 590.49 455.44 580.49 443.52 578.84 438 570.8 430.53 570.7 420.49 577.19 414.51 578.44 410.76 585.19 403.72 591.06 395.93 603.06 410.49 605.08 458.62 590.49" fill="url(#linear-gradient-77)"/><rect x="646.23" y="560.21" width="10.5" height="58.24" transform="translate(-38.48 45.55) rotate(-3.89)" fill="url(#linear-gradient-78)"/><rect x="645.63" y="564.46" width="10.5" height="32.17" transform="translate(1185.93 -108.21) rotate(86.11)" fill="url(#linear-gradient-79)"/><polygon points="673.72 614.22 671.82 607.06 663.47 605.49 659.84 599.62 654.58 599.3 647.27 603.54 643 604.21 640.13 608.84 634.96 612.75 629.05 620.95 639.26 622.88 673.72 614.22" fill="url(#linear-gradient-80)"/><path d="M1920,565.81a41.3,41.3,0,0,0-7.31-4.32c-4.93-1.89-4.29-.82-9.71-1.76-3.41-.59-6.12-1.84-9.63-2.46-3.78-.67-8.14-1.17-12.08-1.78,4.83,2,9.9,4-20.41,3.15-14.57.45-73.66,1.25-99.16,3-6.34.45-12.47,1-18.93,1.06-8,.08-11.37,0-18.53,1.24-9.34,1.62-18.81,3.37-28.62,4.42-12.58,1.34-27.85,2.2-39,4.92-12.79,3.11-20.08,5.41-35.4,6.86-6.19.59-23.66.1-29.14,1.5-2,.51-2.87,1.63-4.62,2.13-9.1,2.59-23.57,1.83-34,3-13.6,1.47-24.61,3.51-39.27,4.31-41.55,2.28-77.37,7.64-119.26,9.44-17.83.77-35,2.44-52.67,3.39-10.56.57-21.24.29-31.84.23-21.08-.11-41.89,1.27-62.93,1.44-17.28.15-34.58-1.73-51.59-1.26-36.87,1-72.58,6.56-109.91,6.69-24.9.08-49.56,1.54-74.5,1.33-40.27-.33-78.83-5.78-119-6.62-61.08-1.27-123.15,3.13-182.28-4.55a471.1,471.1,0,0,0-70.28-3.78c-8,.15-15.74.46-23.66,1.09-7.38.59-12.56,2.09-17.18-.17-3.45-1.68-2.43-3-7.69-4.61-4.22-1.28-8.47-1.54-13.29-2-10.91-1-25.5-1.61-35.27-3.92-6.21-1.47-9.85-3.72-16.89-4.72-18.9-2.7-40.63-2.94-60.27-4.56-12.15-1-24.4-3.49-35.17-6-3.18-.74-4.83-.74-7.41-1.85-4.21-1.81-7.51-3.86-13.75-5.1-13.26-2.63-30-.27-43.52.74s-27,2.14-40.54,3c-7.63.49-19.56.91-26,2.58-3.35.86-5.95,2.52-9.54,3.46a110.36,110.36,0,0,1-18.88,3.13c-8.07.61-14.91.85-22.83,1.61-14.47,1.37-28.63-2.37-42.76-1.11-16,1.44-30.15-2-45.6-4.35-13.85-2.12-26.67-5.25-40-7.95-26.5-5.38-47.72-14.12-73.89-19.91-5.16-1.14-10.32-1.74-15.37-2.9-3.24-.74-5.78-1.95-9.51-2.42C14,540.63,7,541.11,0,540.4V797.25c19.32.72,38.66-.44,59.31-1.71,20.84-1.28,41.26-3,62.27-3.72,24.5-.86,45,1,69.63,2.17,45.2,2.21,90.81,2.42,136,4.88,51.6,2.81,102.18,8.26,154.29,9.34,38.39.8,77-1.28,115.29.21,61,2.39,122.2,4.26,183.28,6.53,23.13.85,46.84,1.82,69.54,4,19.7,1.9,39,4.72,58.66,6.71a625.49,625.49,0,0,0,81.46,2.82c13.52-.37,26.57-1.24,40-1.73,28.09-1,56.57,0,84.72-.17,39.38-.2,78.24-1.68,117.64-1.07,34.87.54,72.81-2.27,107,1.07a239.36,239.36,0,0,1,27.65,3.91,199.75,199.75,0,0,0,36.59,5.16c19.54,1.05,38.63.74,58.32.62,23.11-.13,42.47.19,64.92,1.71,34.17,2.32,66.21-.05,99.93-2.48,35.62-2.57,71.83-3.15,107.71-5,12.61-.63,25.18-1.35,37.8-1.95,14.7-.7,29.48-.38,44.16-1,22.56-.94,44-2.62,66.88-2.47,12.36.08,24.73.19,37-.31Z" fill="url(#linear-gradient-81)"/></g></g></svg>