<svg xmlns="http://www.w3.org/2000/svg" viewBox="0 0 49.79 49.79"><title>bsc</title><g id="Layer_2" data-name="Layer 2"><g id="Layer_1-2" data-name="Layer 1"><path d="M49.69,22.71l0,0s-.1.14-.3.39C47.17,25.9,33,42.59,9,44.09A24.9,24.9,0,0,0,49.79,24.9C49.79,24.16,49.75,23.43,49.69,22.71Z" fill="#fff"/><path d="M10.66,38.26V23.12a2.06,2.06,0,0,1,2.06-2.06h3.55a2.06,2.06,0,0,1,2.06,2.06V36.71c1.09-.31,2.17-.65,3.24-1a2,2,0,0,1-.51-1.34V17.53a2.06,2.06,0,0,1,2.06-2.06h3.55a2.06,2.06,0,0,1,2.06,2.06V32.65c1.16-.57,2.29-1.17,3.38-1.77a2,2,0,0,1-.52-1.35V12.72a2.06,2.06,0,0,1,2.06-2.06H37.2a2.06,2.06,0,0,1,2.06,2.06V26.43a67.36,67.36,0,0,0,6.89-5.37,9.09,9.09,0,0,0,2.51-3.59A24.89,24.89,0,1,0,4,38.37a27,27,0,0,0,3.31.11C8.41,38.46,9.54,38.38,10.66,38.26Z" fill="#fff"/></g></g></svg>