<svg xmlns="http://www.w3.org/2000/svg" viewBox="0 0 257.07 47.42"><title>buy on uniswap</title><g id="Layer_2" data-name="Layer 2"><g id="Layer_1-2" data-name="Layer 1"><rect x="0.5" y="0.5" width="256.07" height="46.42" fill="#292831" stroke="#0c0003" stroke-miterlimit="10"/><path d="M42.09,14.92h2.2V30.67h-2.2Zm1.3,13.7h4.27A3.8,3.8,0,0,0,50.11,28a2.2,2.2,0,0,0,.77-1.8v0a3.19,3.19,0,0,0-.28-1.37,1.92,1.92,0,0,0-.87-.89,3.42,3.42,0,0,0-1.53-.3H43.39v-2H48.2A2.66,2.66,0,0,0,50.05,21a2.21,2.21,0,0,0,.62-1.7A2.19,2.19,0,0,0,50,17.55,3.17,3.17,0,0,0,47.9,17H43.39v-2H48.3a5.67,5.67,0,0,1,2.55.52,3.45,3.45,0,0,1,1.54,1.48,4.73,4.73,0,0,1,.51,2.27,3.69,3.69,0,0,1-.31,1.52,3.11,3.11,0,0,1-1,1.21,3.59,3.59,0,0,1-1.6.68,3.43,3.43,0,0,1,1.65.68,3.54,3.54,0,0,1,1.06,1.33,4.24,4.24,0,0,1,.37,1.74v0a4.38,4.38,0,0,1-.57,2.25,3.8,3.8,0,0,1-1.61,1.51,5.42,5.42,0,0,1-2.45.53H43.39Z" fill="#fff"/><path d="M58.41,30.14a4.47,4.47,0,0,1-1.89-2A7,7,0,0,1,55.87,25v-10h2.21V25.05a3.83,3.83,0,0,0,.86,2.66,3.68,3.68,0,0,0,4.91,0,3.79,3.79,0,0,0,.87-2.66V14.92h2.21V25a7,7,0,0,1-.65,3.17,4.47,4.47,0,0,1-1.89,2,6.1,6.1,0,0,1-3,.69A6,6,0,0,1,58.41,30.14Z" fill="#fff"/><path d="M75.35,24.27v6.4H73.14v-6.4l-4.8-9.35H70.8L74.24,22l3.45-7.11h2.45Z" fill="#fff"/><path d="M90,30.11a4.84,4.84,0,0,1-1.94-2,6.43,6.43,0,0,1-.69-3V20.57a6.44,6.44,0,0,1,.69-3.05,4.84,4.84,0,0,1,1.94-2,6.2,6.2,0,0,1,5.8,0,4.92,4.92,0,0,1,2,2,6.44,6.44,0,0,1,.68,3.05V25a6.43,6.43,0,0,1-.68,3,4.92,4.92,0,0,1-2,2,6.2,6.2,0,0,1-5.8,0Zm4.62-1.9A2.94,2.94,0,0,0,95.8,27a4.12,4.12,0,0,0,.4-1.87V20.49a4.12,4.12,0,0,0-.4-1.87,2.94,2.94,0,0,0-1.15-1.24,3.26,3.26,0,0,0-1.72-.44,3.2,3.2,0,0,0-1.71.44,2.88,2.88,0,0,0-1.15,1.24,4.12,4.12,0,0,0-.41,1.87V25.1A4.12,4.12,0,0,0,90.07,27a2.88,2.88,0,0,0,1.15,1.24,3.2,3.2,0,0,0,1.71.44A3.26,3.26,0,0,0,94.65,28.21Z" fill="#fff"/><path d="M101.82,14.92h2l7.7,12.17-.26.29V14.92h2.19V30.66h-2l-7.68-12,.26-.28V30.66h-2.19Z" fill="#fff"/><path d="M125.63,30.14a4.47,4.47,0,0,1-1.89-2,7,7,0,0,1-.65-3.17v-10h2.21V25.05a3.83,3.83,0,0,0,.86,2.66,3.68,3.68,0,0,0,4.91,0,3.79,3.79,0,0,0,.88-2.66V14.92h2.2V25a7,7,0,0,1-.65,3.17,4.47,4.47,0,0,1-1.89,2,6.1,6.1,0,0,1-3,.69A6,6,0,0,1,125.63,30.14Z" fill="#fff"/><path d="M137.62,14.92h2l7.7,12.17-.26.29V14.92h2.19V30.66h-2l-7.67-12,.26-.28V30.66h-2.19Z" fill="#fff"/><path d="M155.36,30.67h-2.21V14.92h2.21Z" fill="#fff"/><path d="M161.83,30.61a7.89,7.89,0,0,1-1.9-.65,8.08,8.08,0,0,1-1.65-1.08l1.37-1.69a6.24,6.24,0,0,0,2,1.17,6.94,6.94,0,0,0,2.35.39,4.78,4.78,0,0,0,2.66-.63,2,2,0,0,0,.94-1.79v0a1.87,1.87,0,0,0-.43-1.3,2.47,2.47,0,0,0-1.1-.71,11.77,11.77,0,0,0-1.75-.43h-.14l-.16,0a16.49,16.49,0,0,1-2.58-.61A3.64,3.64,0,0,1,159.73,22a4.13,4.13,0,0,1-.7-2.58h0a4.53,4.53,0,0,1,.65-2.49,4.11,4.11,0,0,1,1.91-1.58,8.35,8.35,0,0,1,4.68-.36,8.84,8.84,0,0,1,1.62.55,9,9,0,0,1,1.56.92l-1.25,1.75a7.32,7.32,0,0,0-1.8-1,5.1,5.1,0,0,0-1.79-.33,4.28,4.28,0,0,0-2.5.64,2.12,2.12,0,0,0-.9,1.83h0a1.77,1.77,0,0,0,.46,1.28,2.71,2.71,0,0,0,1.15.68,15.45,15.45,0,0,0,1.91.46l.08,0,.08,0,.12,0,.12,0a14.29,14.29,0,0,1,2.39.69,3.72,3.72,0,0,1,1.6,1.3,4.09,4.09,0,0,1,.65,2.44v0a4.29,4.29,0,0,1-.69,2.46,4.13,4.13,0,0,1-2,1.56,8.12,8.12,0,0,1-3.13.54A10,10,0,0,1,161.83,30.61Z" fill="#fff"/><path d="M179.59,14.92h1.51l3.23,12.35,2.78-12.35h2.3l-3.85,15.75h-2.25l-2.9-11-3,11h-2.25l-3.85-15.75h2.3l2.78,12.35Z" fill="#fff"/><path d="M195,14.92h1.88l5.8,15.75H200.3L195.94,18l-4.37,12.7h-2.38Zm-3.13,10.19h8.28v2.1h-8.28Z" fill="#fff"/><path d="M205.07,14.92h2.21V30.67h-2.21Zm1.13,7.54h5a2.28,2.28,0,0,0,1.25-.34,2.16,2.16,0,0,0,.84-.95,3.19,3.19,0,0,0,.3-1.42,3.23,3.23,0,0,0-.3-1.43,2.25,2.25,0,0,0-.84-1,2.36,2.36,0,0,0-1.25-.34h-5v-2.1h5a5,5,0,0,1,2.48.6,4.18,4.18,0,0,1,1.66,1.7,5.17,5.17,0,0,1,.59,2.53,5.14,5.14,0,0,1-.59,2.53A4,4,0,0,1,213.64,24a5,5,0,0,1-2.48.6h-5Z" fill="#fff"/></g></g></svg>