<svg xmlns="http://www.w3.org/2000/svg" viewBox="0 0 44.83 48.9"><title>discord</title><g id="Layer_2" data-name="Layer 2"><g id="Layer_1-2" data-name="Layer 1"><path d="M26.34,11.38h.22a1,1,0,0,0,.21.09A22.3,22.3,0,0,1,32,13.08a1.35,1.35,0,0,1,.57.43A23.76,23.76,0,0,1,36.46,23c.23,1.4.31,2.81.45,4.22v.34c0,.57-.09,1.13-.1,1.69a.94.94,0,0,1-.5.93c-1.26.72-2.49,1.51-3.78,2.16-1,.51-2.12.86-3.2,1.29L27.75,31c.48-.21.88-.37,1.27-.56s.79-.41,1.2-.63c-.54-.51-.53-.5-1.09-.27a17.33,17.33,0,0,1-13.73,0c-.47-.19-.81-.22-1.13.3L16.73,31l-1.55,2.48A23.7,23.7,0,0,1,8,30a.8.8,0,0,1-.28-.57,24.49,24.49,0,0,1,3.67-15.1,3.23,3.23,0,0,1,1.94-1.58c1.54-.44,3.08-.9,4.61-1.35h.23c.19.41.4.8.56,1.22s.28.33.6.32c1.56-.08,3.12-.12,4.68-.14.54,0,1.21.29,1.58.06S26.09,11.89,26.34,11.38Zm3.4,12.17a2.84,2.84,0,0,0-2.06-2.85,2.74,2.74,0,0,0-3.21,3A2.79,2.79,0,0,0,27,26.48,2.78,2.78,0,0,0,29.74,23.55Zm-15,0a2.81,2.81,0,0,0,2.52,3A2.72,2.72,0,0,0,20,24.24a3,3,0,0,0-1.66-3.43A2.67,2.67,0,0,0,14.74,23.51ZM44.83,4.44A4.44,4.44,0,0,0,40.39,0H4.44A4.44,4.44,0,0,0,0,4.44V43.33H33.87l.48-3.41,10.48,9Z" fill="#fff"/></g></g></svg>