<svg xmlns="http://www.w3.org/2000/svg" viewBox="0 0 50.25 50.25"><title>ig</title><g id="Layer_2" data-name="Layer 2"><g id="Layer_1-2" data-name="Layer 1"><path d="M50.25,12.87V37.39c-.08.52-.13,1-.25,1.54A13.69,13.69,0,0,1,39.66,49.84c-.74.2-1.5.27-2.26.41H12.88l-.48-.09a12.34,12.34,0,0,1-4-1C3.05,46.56.14,42.29.05,36.32,0,28.86,0,21.41,0,14a13.22,13.22,0,0,1,1.76-6.8A13.63,13.63,0,0,1,14.16,0c7.32,0,14.65,0,22,0A14.13,14.13,0,0,1,39,.28,13.62,13.62,0,0,1,49.84,10.61,20.93,20.93,0,0,1,50.25,12.87ZM45.8,25.18V14.24a10.13,10.13,0,0,0-.5-3.37,9.4,9.4,0,0,0-9.21-6.4c-7.29,0-14.58,0-21.87,0A10.66,10.66,0,0,0,10.9,5a9.29,9.29,0,0,0-6.42,9.17c0,7.31,0,14.61,0,21.92A10.59,10.59,0,0,0,5,39.36a9.26,9.26,0,0,0,9.11,6.43q11,0,22.07,0a9.46,9.46,0,0,0,9.61-9.72Z" fill="#fff"/><path d="M38.09,25.15a12.95,12.95,0,1,1-12.94-13A13,13,0,0,1,38.09,25.15Zm-12.93-8.5a8.48,8.48,0,1,0,8.46,8.5A8.5,8.5,0,0,0,25.16,16.65Z" fill="#fff"/><path d="M38.63,8.42a3.26,3.26,0,1,1-3.27,3.23A3.29,3.29,0,0,1,38.63,8.42Z" fill="#fff"/></g></g></svg>