<svg xmlns="http://www.w3.org/2000/svg" viewBox="0 0 1136.3 227.2"><title>is this reward logo bigger</title><g id="Layer_2" data-name="Layer 2"><g id="Layer_1-2" data-name="Layer 1"><path d="M1082.25,0l.31.91-.09.46q-.06.35-11.14,8.66l-.09.45q3.67-2.28,5.41-2.28l.31.91-.18.92q-.09.45-7.62,5.92l3.29.91q12.29-6.37,13.66-6.38l.31.91-.09.46c0,.23-1.61,1.44-4.69,3.65l-.09.45q13.14-5,14.37-5c.65.07.92.38.81.91l-.09.45q-.24.58-17.49,8.21,4.14,2.85,27.41,14.13,8.3-6.84,10.78-6.84c-.06.3.07.46.4.46q9.59-7.07,17.23-11.85h.49c.65.07.92.38.81.91l-.09.45a346,346,0,0,0-23.1,26.44c1.92.3,2.82.76,2.7,1.36l-1,2.74-.09.45a98.4,98.4,0,0,0,14.08-15.95q.27-1.37,2.43-2.28h.5c.64.08.91.39.81.92a108.74,108.74,0,0,0-6.24,11.39q-5.16,4.78-8,7.75l-.09.45q6.45,2.4,6.3,3.19l-.09.46a1.06,1.06,0,0,1-1.17.91h-.5q-1,0-6.89-2.73l10,11.84-.09.46a1.05,1.05,0,0,1-1.17.91h-.5l-12.46-9.57-.68.91c.64.08.92.38.81.91l-.09.46a1.05,1.05,0,0,1-1.17.91H1108q-19.46,20.51-24.28,27.35l-25.64,39.19q-3.84,3.08-9.12,10.94c-.92.91-1.51,1.36-1.76,1.36h-.49c-.66,0-.93-.3-.81-.91a275,275,0,0,1,15.08-26l-24.9,25.52-2.25,1.36-2.39-.45q-5.23,6.38-5.73,6.38h-1c-.66,0-.9-.46-.72-1.37a92.67,92.67,0,0,0,5.91-7.29h-.49a4.84,4.84,0,0,1-2.08.46c.12-.61-.15-.92-.81-.92q-9.91,11.85-10.28,11.85h-.5c-.66,0-.9-.45-.72-1.36q.75-3.76,9.17-13.68,1.18-1,7.22-11.39l0-2.73,2.44-2.28h-.5q-17,14-18.17,14.12h-.5c-.66,0-.93-.3-.81-.91l.18-.91q11.24-9.11,12-12.76,31-28.59,31.26-30.08,16.76-22.56,22.52-26l11.5-10.49a5.28,5.28,0,0,0-4.5-2.27,1.06,1.06,0,0,1-1.17.91h-.5q-8.32-3-28.22-15-29.29,16.52-33.81,20.51-10.35,8.43-21.47,18.22h-.49c-.66,0-.93-.3-.81-.91l.09-.45q2-2.74,21-18.23l.09-.46h-.49l-1.67.91h-.5a4,4,0,0,0-1.3-.91q-15,8.2-17.45,10.48h-1.49l-.31-.91.09-.45L1002,57h-1a51.12,51.12,0,0,0-7.26,4.1h-1c-.66,0-.93-.3-.81-.91l.09-.46,7.71-6.38.09-.45c-1.32,0-1.92-.31-1.8-.92l.1-.45a113.59,113.59,0,0,1,24.48-16q19.81-11.17,21.37-12.76l1.85-1.83c-1.57,0-2.95-1.36-4.14-4.1a3,3,0,0,1-1.75-3.64l1.08-.46q1.74,0,9.5,4.56l.67-.91.1-.46q-1.24,0-9.14-6.38l.09-.46a6.13,6.13,0,0,0,1.27-1.36c-1.61-.23-2.35-.69-2.21-1.37l.09-.46A1.18,1.18,0,0,1,1042.6,5q4.71,0,14.27,5.47h.5q7.79-4.89,12.94-7.75h.49c.66,0,.9.46.72,1.37a4.41,4.41,0,0,0-.77,1.37Q1079.76,0,1082.25,0Zm-59.34,153.58h.5q19.29,31.23,24,41l-.18.91c-.12.61-.68.91-1.67.91q-10.52-3.75-12.06-9.11h-1q-.09.45,2.16,4.1l-.09.45c-1.11,1.83-2.12,2.74-3,2.74h-1.49c-.24,1.21-.69,1.82-1.35,1.82l1,2.28-.18.91a1.07,1.07,0,0,1-1.18.91h-.49l-4.59-6.83a4.73,4.73,0,0,1-1.57.45q-.75,0-3.33-3.19h-.5l1,2.28-.09.46c-.08.38-1.36,1-3.84,1.82h-.49q-8.05-8.08-7.32-15.49-6.86-7.87-6.42-10l1.08-.46h1q1.8.91,1.53,2.28h1l.36-1.82-.72-1.37,1-2.73q-2-2.62-1.57-4.56a4.77,4.77,0,0,1,1.58-.45c1.54.53,2.22,1.29,2,2.27h.5c.18-.91.6-1.36,1.26-1.36q2.24,0,7.43,5a18.17,18.17,0,0,0,.86-1.82,21.83,21.83,0,0,0-5.67-6.38l.36-1.83a1.18,1.18,0,0,1,1.18-.91h1c2.59,2.74,4.63,4.1,6.12,4.1q-.35,1.71,7,9.57h.49q.12-.57-7.09-14.12l.18-.92A1.17,1.17,0,0,1,1022.91,153.58ZM1003.84,52.87h.49a20.67,20.67,0,0,0,7.63-5.93h-1Zm5.53,118.94-.18.91h.49l.19-.91Zm.54,2.28-.09.46q1.57,6.38,2.6,6.83l.18-.91C1011.7,176.67,1010.81,174.55,1009.91,174.09Zm7-.45-.09.45h1l.1-.45Zm4.41,7.74a3.34,3.34,0,0,0,3.42,2.74c.09-.46-.72-1.37-2.43-2.74Zm1.92-134h.49q17.13-9.46,30.3-17.78l.09-.45c-.66,0-1-.15-.9-.46q-7.63,4.11-22.63,14.13A21.37,21.37,0,0,0,1023.26,47.4Zm1.45,139.45-.09.46c-.09.45.31.91,1.21,1.36h.5l.09-.45a2.91,2.91,0,0,1-.23-1.37Zm4.25-71.09h.5c.41,0,1.39-.76,2.93-2.28l.18-.91Q1032.08,112.57,1029,115.76Zm11.83,72.46-.37,1.82c.94,1.52,1.61,2.28,2,2.28l.19-.91C1041.89,189.28,1041.28,188.22,1040.79,188.22Zm4.94-82-.09.45h1l.09-.45Zm3.9,12.76-.09.45h1l.09-.45Zm1.27-1.37-.1.46h1l.1-.46Zm1.17-.91h.49q12.86-12.3,13.22-14.13A86,86,0,0,0,1052.07,116.67Zm4.51-89.78-.68.91.9.46.68-.92Zm-.61,97.53q1.74,0,10.61-16,1.53-1.48,12.55-18.23h-.49q-3,1.14-15.44,22.78Q1062.55,113.14,1056,124.42Zm5-94.8c-.12.61-.68.91-1.67.91l-.09.46q21.21,12.3,22.82,12.3Q1080.15,41,1061,29.62Zm7.76,50.59q-7.79,9.23-8,10,2.65-1.48,8.94-10Zm9-47.85-.09.45q4.08,5,17.77,12.76l1.36-1.82Zm10.11,43.75q-6.87,7.17-7.17,8.66a35.92,35.92,0,0,0,8.17-8.66ZM1102.61,57h1l.18-.91A1.15,1.15,0,0,0,1102.61,57Zm3.88-4.56-.68.91,1.31.91.67-.91.09-.45A3.5,3.5,0,0,1,1106.49,52.41Zm8.36-19.6h1l.19-.91C1115.35,32,1115,32.28,1114.85,32.81Zm1.53,2.28-.18.91h1a6.15,6.15,0,0,1,1.44-2.28h-.49C1117.64,33.72,1117.06,34.18,1116.38,35.09Z" fill="#fbae17"/><path d="M45.67,42.53a.32.32,0,0,1,.36.36l5.34-.36q13,0,18.63,3.8a4.16,4.16,0,0,1,3.07,1.9l-.36.72c.73,0,1.09.27,1.09.81-.36,1-.73,1.54-1.09,1.54a23.44,23.44,0,0,0-3.07-.81h-.36a3.92,3.92,0,0,0-1.9.36c-2.54-.24-3.8-.48-3.8-.72q-.45,0-.45.36l-4.53-.73-.72.37a3.27,3.27,0,0,0-1.54-.37c.06.49.3.73.73.73H58.6a12.66,12.66,0,0,1,9.86,4.61l-.36.72a7.68,7.68,0,0,0,4.61,2.26A4.6,4.6,0,0,1,73.8,60.8v.72c-.12.6-1,1.24-2.62,1.9l-.82-.36-.72.36-.73-.36a3.38,3.38,0,0,1-1.53.36.32.32,0,0,1-.36-.36c-.61.48-3.41.87-8.42,1.17v-.36a2.8,2.8,0,0,1-1.17.36v1.54a50.09,50.09,0,0,0,.81,9.5l-.36.72.36,2.26-.81,1.18v.36q.81,0,.81.36,0,.63.36,5.34l-.36.81L59,88.56l-.37.72A3.46,3.46,0,0,1,59,90.82H58.6A2.93,2.93,0,0,1,59,92l-.37.72c0,.3.12.45.37.45l-.37,1.45a27,27,0,0,1,.73,5,3.05,3.05,0,0,1-.36,1.54,2.88,2.88,0,0,1,.36,1.18c-.49.06-.73.3-.73.72s.31.72.73.72a5.37,5.37,0,0,1-1.45,3.44.81.81,0,0,1,.72.82,2.85,2.85,0,0,0-.36,1.44H59l-.37.82c.49.06.73.3.73.72H58.6v3.8l.73,1.17-.73,1.18a2.88,2.88,0,0,0,1.18.36v.73a1.51,1.51,0,0,0-1.18.81.32.32,0,0,0,.37.36c0,.48-.13.72-.37.72l.37,3.8v1.9a3.05,3.05,0,0,1-.37,1.54A3.4,3.4,0,0,1,59,128.9c0,.54-.13,1.93-.37,4.16,0,.54.12.81.37.81l-.37,3.8v6.42a3.08,3.08,0,0,1-.36,1.54c.36,1,.73,1.54,1.09,1.54h.81a3.3,3.3,0,0,0,1.54-.37l.72.37.73-.37q5,1.9,6.15,5v1.08c0,.36-.4.76-1.18,1.18H67a45.54,45.54,0,0,0-9.14.72v.82h.36q1.73,0,8.32-.46a10.59,10.59,0,0,1,5.7,4.25v1.09q0,.45-.36.45l.36.73c0,.48-1,.87-3,1.17-2.3-.3-3.44-.57-3.44-.81l-2.71.36h-5.7v3.07a3.27,3.27,0,0,0,1.54.37h2.26q4.07,0,20.62-1.54,0,.81,1.53.81v.73h-.81v.36h.36l1.54-.36a20.91,20.91,0,0,0,3.44.36V167c-1.27,0-1.9.24-1.9.72l-1.9-.36h-.73c0,1-1.53,1.54-4.61,1.54a.32.32,0,0,1-.36.36v-.72h-.36v.72a.32.32,0,0,1,.36.36H76.87v-.36l-3.8,1.54a.72.72,0,0,0-.81-.81h-.72c0,.78-.24,1.17-.73,1.17H70l-1.09-.72a11.39,11.39,0,0,1-4.25,1.08.64.64,0,0,0-.72-.72c0,.6-1,1-3.07,1.18,0-.31-.13-.46-.37-.46,0,.55-.24.82-.72.82q-.45,0-.45-.36l-.73.36h-.36l-.81-.36L56.71,173c0,.78.12,1.18.36,1.18-.24,2.53-.49,3.79-.73,3.79a.32.32,0,0,0,.37.37l-.37,1.9v6.06L56,188.68a2.76,2.76,0,0,1,.36,1.08H56c.24,0,.36,1.42.36,4.25a1.48,1.48,0,0,0-1.17.73q-2.27,0-3.8-3.8h.72V189.4h-.36v.81h-.36c-.36,0-.76-.39-1.18-1.17v-1.9a2.53,2.53,0,0,1,.46-1.54,2.51,2.51,0,0,1-.46-1.54v-1.53a.81.81,0,0,1,.82-.73l-.36-.72c0-1.69.48-2.59,1.44-2.71l-.36-2.26-.72.36v-.36c0-.55.36-.82,1.08-.82v-.72c-1,0-1.44-.63-1.44-1.9H47.93a.32.32,0,0,1-.36-.36l-.72.36q-5.79-.27-5.79-.72l-.72.36L35,172l-.72.36Q18.91,170.77,17.91,167c-.31,0-1.33-1.14-3.08-3.44v-.36c0-.36.39-.75,1.18-1.17h1.9a.32.32,0,0,1,.36.36q.27-.36,6.51-.72v-.37q-4.8,0-7.69-5.33c-.72,0-1.08-.27-1.08-.82V154c0-.54.51-.82,1.54-.82v-1.89a6.72,6.72,0,0,1-2.36-.73,2.44,2.44,0,0,0,.46-1.17H16q12.57,0,12.57-1.9,1.89-15.19,2.62-27.41a5.42,5.42,0,0,1-.36-2.62c0-1.26.24-1.9.72-1.9l-.36-.81v-1.9a3.42,3.42,0,0,1,.36-1.54,2.86,2.86,0,0,1-.36-1.45v-1.53a3.08,3.08,0,0,1,.36-1.54,3.05,3.05,0,0,1-.36-1.54h.36a12.09,12.09,0,0,1-.72-4.16h.36l-.36-.81V93.17a19.62,19.62,0,0,0-.36-3.43l.36-.82-.36-1.53.36-2.63L30.48,84l.36-2.35v-.36l-.36-1.9h.36a2.84,2.84,0,0,1-.36-1.18,20,20,0,0,1,.36-3l-.36-1.54a24.44,24.44,0,0,0,.72-3.44l-.36-.72q0-.45.36-.45l-.36-1.9V63.87h-5.7c-.54.06-.81.3-.81.73v6.05A.32.32,0,0,1,24,71l.36.81q-.27,6.42-.73,6.42A3.52,3.52,0,0,1,24,79.43q-.73,6.51-.73,8.77v.72q0,.36-.45.36l.45.82q0,.36-.45.36,0,.36.45.36l-.81,4.61a.32.32,0,0,0,.36.37l-.36,1.9v1.17h-.72V97.33h-.37a8.08,8.08,0,0,1-1.53,5.34.32.32,0,0,1,.36.36l-.73.36H19a3.72,3.72,0,0,0-1.08-2.26.32.32,0,0,0,.36-.36l-.72-.45a15.6,15.6,0,0,1,.72-3.8,2.86,2.86,0,0,1-.36-1.45h.36l-.36-.81a.32.32,0,0,1,.36-.36l-.36-.73q.36-15.09.36-16.82l.36-1.44c0-.31-.12-.46-.36-.46l.36-2.62v-7.6A106.13,106.13,0,0,0,6.51,66.49,6.1,6.1,0,0,1,5,62.7a.32.32,0,0,0,.37-.37c-2.54,0-3.8-1-3.8-3.07l.72-1.54c0-.36-.75-1-2.26-1.9v-.36a13.13,13.13,0,0,1,1.54.36Q7.69,55.46,8,55.1q.45,0,.45.36a49.82,49.82,0,0,1,8.68-.72c.3,0,.46.12.46.36l.72-.36a2.8,2.8,0,0,0,1.17.36c.06-.54.31-.81.73-.81h.36Q32.65,53.2,34.28,53.2v-.45l-4.62-.36H25.87q-4,0-19,1.17c-3.31,0-5-1.38-5-4.16l.72-.81-.36-.73.36-.81H.72v-.72l4.62.36,1.9-.36v.36a2.8,2.8,0,0,1,1.17-.36A108.51,108.51,0,0,0,23.6,44.79v.36q10.5-1.9,11.76-1.9l.82.45.36-.81q.72,0,.72.36l4.61-.36h2.26A3.05,3.05,0,0,0,45.67,42.53Zm-8.41,69.64.81.36q-.36,1.53-.81,1.53c0,.25.15.37.45.37a21.82,21.82,0,0,1-.81,3.8l.36.81a6,6,0,0,0-.72,2.62l.36.82q-.36,1.08-.72,1.08l.36.82-.36,1.44a12.65,12.65,0,0,0,.36,1.54c-.36,3.07-.88,4.61-1.54,4.61l.36,1.9v1.9q-1.08,3.53-1.08,11.4v1.17c1.26,0,1.9-.27,1.9-.81a51.34,51.34,0,0,1,.72-6.42c-.24,0-.36-.15-.36-.46a.64.64,0,0,0,.72-.72,3.45,3.45,0,0,0-.36-1.54l.81-1.9-.81-.36.36-.72a3.43,3.43,0,0,1-.36-1.18q.81,0,.81-.72a2.87,2.87,0,0,1-.45-1.54c.66,0,1.05-.51,1.18-1.54-.49,0-.73-.27-.73-.81v-1.45a6.33,6.33,0,0,1,.73-3.07l-.37-.72c.24-1.27.49-1.9.73-1.9a3.5,3.5,0,0,1-.36-1.18l.36-2.71a2.89,2.89,0,0,1-.36-1.45q.72,0,.72-.81l-.72-.37.36-2.62v-.81l-.36-1.9C38.07,110.63,37.68,111.14,37.26,112.17ZM36.18,68v3.8c0,.48-.28.72-.82.72a2.9,2.9,0,0,1,.45,1.54h.73v-.72q1.53-8.06,1.53-8.41V63.87Q36.18,63.87,36.18,68Zm-.37,6.42c0,.55-.15.82-.45.82l.45.72a2.59,2.59,0,0,1-.45,1.54v.36h.45l.37-1.9V74.45Zm2.26,32.74a4.62,4.62,0,0,1-.36,2.26h.73v-2.26Zm0-5.7v2.26h.37v-2.26Zm2.63,63.94v.37h1.53v-.37Zm9.95-1.9H49.11a4.23,4.23,0,0,1-.82,2.63H51c0-1.27.12-1.9.36-1.9a2.41,2.41,0,0,0,1.17.45v-1.54Zm4.52-29.3v1.9h.36v-1.9Z" fill="#fbae17"/><path d="M145.33,36.29v.36h1.09l-.36-.72a10.79,10.79,0,0,1,1.44.36l2.54-.36,6.87,1.44v.36q-6,2.81-18.81,5.79v.73h.36l1.81-.37.36.73q-.54,0-1.08,1.08h.36a2.76,2.76,0,0,1,1.08-.36v.36l-.36.73q.72.09.72.72l.73-.36h.36c.18,0,.54.36,1.09,1.08l2.53-1.08c0,.3,1.08.9,3.25,1.81v.72a16.3,16.3,0,0,0-3.25,1.81c.24.72.48,1.09.72,1.09l-.36.72v.36q1.17,0,10.85-4Q160,47.41,168.49,45v.72l-1.45.37v.36l1.81-.36h1.08l-.36.72c0,.18.6.78,1.81,1.81q-12,5.52-12.66,6.87c0,.24-.36.36-1.09.36.06.49.31.73.73.73a2.86,2.86,0,0,1,1.44-.37c-.72.61-1.08,1.09-1.08,1.45h-.36l-.73-.36q-.18,1.17-5.42,4l-.73-.36c0,.48-1.2,1.69-3.61,3.61H145.7l-1.45,2.9.36.72a.32.32,0,0,1-.36.36l.36,2.17a18,18,0,0,1-.72,3.62,19.55,19.55,0,0,1,.36,3.62.32.32,0,0,1-.36.36l.36.72v.73a3.63,3.63,0,0,1-.72,1.08l.36.73a2.76,2.76,0,0,0-.36,1.08l.36.73-.36.72a2.76,2.76,0,0,0,.36,1.08c-.24,2.66-.49,4-.73,4a.32.32,0,0,0,.37.37q-.65,5.77-1.45,5.78l-.36-.72-.73.36h-.36a3.74,3.74,0,0,0-.36-1.81.32.32,0,0,1,.36-.36l-.36-1.81v-.72a2.89,2.89,0,0,1,.36-1.45,3.91,3.91,0,0,1-.72-1.81l.36-1.81a2.76,2.76,0,0,1-.36-1.08.32.32,0,0,1,.36-.36l-.36-1.81V80.06a.32.32,0,0,1,.36-.36.32.32,0,0,0-.36-.36l.36-1.81V76.08q0-2.53.36-8Q138.1,69.94,128,75.36l-.72-.36-4.34,3.61V79.7c.24,0,1.56,1.57,4,4.7q5.78,6.87,17,21.71,7.05,8.49,20.26,18.81a40.32,40.32,0,0,1,5.78,4.7v1.45l-.72-.36v.36a.32.32,0,0,1,.36.36l-.72.36a.32.32,0,0,1-.36-.36l-.73.36q-2.53,0-9.4-6.15c-1,0-1.45-.24-1.45-.72l-.72.36h-1.81v1.81q-3.25,2.81-3.26,3.25a4.16,4.16,0,0,1,1.09,2.54v.36c0,.48-.49.72-1.45.72v1.09A5,5,0,0,1,154,134h.36a8.25,8.25,0,0,1,3.25,3.26v1.44q-.54,0-6.15,4.35,8.6,5,9.05,6.87a5.61,5.61,0,0,1-2.17.72q-.27,0-10.49-4.7-.18.72-6.15,3.62,0,.54-7.6,4.7,0,.45-4.34,3.26Q112,167.7,112.05,170.14l.37.72c-.25.72-.49,1.09-.73,1.09a.32.32,0,0,0,.36.36l-.72,5.79h.36a19.9,19.9,0,0,0-.72,6.51v1.81a2.85,2.85,0,0,1-.36,1.44l.36.73a25.49,25.49,0,0,1-.73,5.06.32.32,0,0,0,.37.36q-.37,5.79-1.45,5.79v1.81a.64.64,0,0,1-.72.72l-.73-1.08a2.89,2.89,0,0,1,.36-1.45,7.56,7.56,0,0,0-1.08-2.89q.36-11.49,1.45-25.33v-.36h-.37c0,.73-.24,1.09-.72,1.09a2.76,2.76,0,0,0-1.08-.36l-.37.72h.73v.72h-.36l-.73-.36q0,.81-6.15,4H97.58q-4-3.07-4-4a15.55,15.55,0,0,0-4.7,3.62q-4,2.72-4,3.25l-1.81.37H82c-2.66-1.57-4-3.26-4-5.07q7.86-4.33,13.74-8.32v-.36H90.71Q80,172,76.24,172.31q-4-3.08-4-3.62v-1.45l8.32-8h-.36a18.26,18.26,0,0,1-3.26.37l-3.61-4v-.37q.09-.54,8.68-4,12.57-7.87,15.55-9.05,1.1-2,14.84-9.4l8.68-6.15q-.82,0-19.18-18.81L83.47,90.55q-2.89-1.26-2.89-3.26-.81,0-5.43,2.9a6.91,6.91,0,0,1-4-3.26v-.36Q73.44,84,83.84,79v-.36q-2.53-3.7-2.54-5.78a11,11,0,0,1,3.26-1.45V68.12A87.5,87.5,0,0,1,94,61.25l.72.36h.36q0-2.62,6.87-5.79,0-1.44,11.58-7.59,17.1-9.4,22.79-9.41v.36H137l-.36-.72,1.09-.73h.36c0,.49.12.73.36.73Q140.73,36.28,145.33,36.29ZM100.84,92c.24.66,1.57,1.51,4,2.53v-.36C104.82,93.75,103.49,93,100.84,92Zm12.3,18.81q2.07,5.43,11.94,13.75a13.33,13.33,0,0,1,2.53-2.54q-13.76-10.22-13.75-11.21ZM115,83v.37L126.16,92a1,1,0,0,1,1.09,1.08h.36v-.72q-.9,0-9.41-11.21A13.51,13.51,0,0,1,115,83Zm2.17,14.47q8.41,8.68,9.77,8.69v-.37q-9-7.59-9-8.32ZM118.2,156v.36h.36a6.38,6.38,0,0,1,2.54-1.09v-.36h-.36A6.23,6.23,0,0,1,118.2,156Zm3.62-2.17v.72a4,4,0,0,1,1.81-.72v-.36h-.36A2.89,2.89,0,0,1,121.82,153.86Zm.36-41.24V113q9.13,6.87,9.41,6.87a2.76,2.76,0,0,1,1.08-.36q-3.34-4.42-10.13-6.87Zm24.24,21q0,.36-4,3.62.09.72.72.72a50.09,50.09,0,0,0,6.88-2.53v-.72A13.86,13.86,0,0,0,146.42,133.6Zm1.08-98.4h1.09v.73h-1.81C146.84,35.44,147.08,35.2,147.5,35.2Z" fill="#fbae17"/><path d="M257.39,31c1.93.85,2.89,1.45,2.89,1.81-.24,3.32-.6,6.81-1.08,10.49h2.89a2.89,2.89,0,0,0,1.45-.36,2.76,2.76,0,0,0,1.08.36l1.81-.36v.36l.73-.36h3.25a.32.32,0,0,1,.36.36l.73-.36q1.35,0,15.19.72V44l.72-.37a6,6,0,0,0,2.9.73h2.17q.54,0,1.08,1.08l-1.08,1.81a.32.32,0,0,1,.36.36L288.5,48v-.36l-.72.36h-.37a.32.32,0,0,1-.36-.36l-.72.36h-1.81l-.72-.36-.37.73-.72-.37-1.81.37a2.66,2.66,0,0,1-1.08-.37,18.36,18.36,0,0,1-3.26.37h-2.17A.32.32,0,0,1,274,48a.33.33,0,0,0-.36.37,2.69,2.69,0,0,1-1.09-.37,18.26,18.26,0,0,1-3.25.37h-.73V49h23.88a19,19,0,0,1,3.25.36,2.85,2.85,0,0,1,1.09-.36,2.76,2.76,0,0,0,1.08.36.33.33,0,0,0,.37-.36l2.53.36h4c.3,0,.78.73,1.44,2.17v.73l-.72-.37h-.36v.37h.72V53H303a2.89,2.89,0,0,0-1.45.36,2.76,2.76,0,0,0-1.08-.36.64.64,0,0,1-.73.72h-5.06a.32.32,0,0,1-.36-.36,2.85,2.85,0,0,1-1.09.36v.36h5.43a.33.33,0,0,1,.36.37l.72-.37h2.17l2.54.37a.33.33,0,0,1,.36-.37,3.46,3.46,0,0,1,1.44,2.9q-.63,1.81-13.38,1.81h-1.45l-.72.36-.36-.72c-1.21.3-1.81.66-1.81,1.08l-.72-.36h-.37a9.12,9.12,0,0,1-3.61,1.08l-2.9-.72a.64.64,0,0,1-.72.72h-2.9v.37l.37.72c-.73,0-1.09.24-1.09.72H282c5.3.12,8,.36,8,.73a.32.32,0,0,0,.36-.37c2.41,0,3.61.49,3.61,1.45h2.9c.54,0,.9.85,1.08,2.53q-13.29,2.89-14.1,2.9v.36h.72v.72q-9.13.74-13,1.45l-2.17-.36a11.13,11.13,0,0,1-1.45.36l-.72-.36c-1.69.24-2.54.6-2.54,1.08q-.36,6.06-.36,9.41h-.36l.36.72a.32.32,0,0,1-.36.36.32.32,0,0,0,.36.37,48,48,0,0,1-.72,5.78.32.32,0,0,0,.36.37,2.76,2.76,0,0,1-.36,1.08,28.55,28.55,0,0,1,.36,4V95a.32.32,0,0,1-.36.36.32.32,0,0,0,.36.37l-.36,1.8v.37l.36,1.81h-.36l.36.72v3.25a94.39,94.39,0,0,0,.72,14.11l-.36.73a2.85,2.85,0,0,1,.36,1.44.32.32,0,0,1-.36.37l.36.72-.36.72.36.73q0,.72-.36.72a44.55,44.55,0,0,0,.72,6.15l-.36.72a19.07,19.07,0,0,1,.36,3.26h-.36l.36.72v5.43l.37,2.17-.37.72a18.26,18.26,0,0,1,.37,3.26H265l.37.72a.32.32,0,0,1-.37.36l.37,1.81V150c0,.72-.12,1.08-.37,1.08l.37,1.81c0,2.42.12,6,.36,10.86h-.36l.36.72v1.81a.32.32,0,0,1-.36.36l.36.72-.36,3.62.36,1.81h-.36a2.76,2.76,0,0,1,.36,1.08.33.33,0,0,1-.36.37l.36,1.81v3.61a.32.32,0,0,1-.36.36l.36.73v2.17a.32.32,0,0,1-.36.36l.36.72v.73c0,1.2-.24,1.81-.73,1.81l.37,1.8q0,11.58-1.45,11.58l.36.72c-1,3.38-1.75,5.07-2.17,5.07h-.36V186.51h-.36L261,188a2.8,2.8,0,0,0,.36,1.09,54,54,0,0,0-.73,5.42h-.72v-4.7a.32.32,0,0,1,.36-.36,4.38,4.38,0,0,1-.36-2.17,2.47,2.47,0,0,1-1.81,1.08l.72,1.09h-.72v2.89a.64.64,0,0,1-.72.73H257a10.65,10.65,0,0,0-.37-2.53l.37-2.18a3.66,3.66,0,0,1-1.09.73h-1.81a.64.64,0,0,1-.72-.73v-2.17q0-3.07-.36-9h-.73l.37,1.81c-1.21,1.93-2.06,2.89-2.54,2.89s-.72-.36-.72-1.08a134,134,0,0,1,.72-14.47,3.72,3.72,0,0,1-.36-1.81l.72-.36c-.24-2.66-.48-4-.72-4l.36-1.81V146.35a.32.32,0,0,1,.36-.36l-.36-.72a.33.33,0,0,1,.36-.37l-.36-.72v-5.43a19.36,19.36,0,0,1,.36-3.61,12.87,12.87,0,0,1-.36-3.26v-.72a.32.32,0,0,1,.36-.36l-.36-.73v-.36l.36-2.17a.32.32,0,0,0-.36-.36l.36-1.81c0-.24-.12-1.21-.36-2.89l.73-.37-.37-.72v-7.6a3.74,3.74,0,0,0-.36-1.81l.36-2.17V106.2l-.36-3.62h.36a38.24,38.24,0,0,1-1.08-7.24h.36l-.36-.72V93.17l.36-.72a.64.64,0,0,1-.72-.72V89.56h-.73v11.21a.64.64,0,0,1-.72.72,12,12,0,0,1,.72,3.26H248l.36.72-.72,1.09q.72.09.72.72L248,108a.32.32,0,0,0,.36.36l-.36,1.81v6.87l.36,1.81H248l.36.72v.73a.32.32,0,0,1-.36.36l.36.72a.32.32,0,0,1-.36.36l.36.73v2.17a.32.32,0,0,1-.36.36l.36.72v1.09a.32.32,0,0,1-.36.36l.36.72a.32.32,0,0,1-.36.36l.73,4.34h-.37a.32.32,0,0,0,.37.37l-.37,2.53.37,2.53h-.37a.32.32,0,0,0,.37.36l-.37,1.81a2.91,2.91,0,0,1,.37,1.09c-.37,0-.85.48-1.45,1.44v.37q.09.72.72.72l-.36-.72v-.73h.72v1.81l-.72,1.09v.36l.72,1.08H248l.36.73a3.74,3.74,0,0,1-.36,1.81l.36,2.17v.72h-.72l.72,2.17a2.86,2.86,0,0,0-.36,1.45,10.79,10.79,0,0,0,.36,1.44l-.72.37.36,1.8v1.09a.64.64,0,0,1-.72.72.32.32,0,0,0-.36-.36v1.09h.72v.72c-.54,0-.9.6-1.08,1.81-.25,0-.49.36-.73,1.08h1.09v.37h-1.09l.36.72a2.76,2.76,0,0,0-.36,1.08h-.72V167a.32.32,0,0,1,.36-.36.32.32,0,0,0-.36-.36l.36-1.81v-.36l-.36-2.54h.36a4.19,4.19,0,0,1-.72-2.17v-8.32l-.37-2.17.37-.72a22.59,22.59,0,0,1-.37-4.34H244c0,2.41-.12,3.62-.36,3.62l.36.72v.72a.32.32,0,0,1-.36.37l.36.72a.32.32,0,0,1-.36.36l.36,1.81v1.08a.32.32,0,0,1-.36.37l.36.72v2.53a.32.32,0,0,1-.36.36l.36.73-.72,1.81A6.52,6.52,0,0,1,244,163a.32.32,0,0,1-.36.36l.36,1.81V171a.32.32,0,0,1-.36.36l.36.73a.32.32,0,0,1-.36.36l.36.72v2.17a.64.64,0,0,1-.72.73,4.19,4.19,0,0,1,.72,2.17v1.08a.64.64,0,0,1-.72.72l.36.73v1.08c0,.73-.48,1.09-1.45,1.09l.37,3.62c-.31,0-.91.6-1.81,1.8h-.36v-2.89l.36-1.81-.73-.36a.32.32,0,0,1,.37-.36l-.37-1.81v-6.15a2.89,2.89,0,0,0-.36-1.45A2.85,2.85,0,0,0,240,172v-.73q0-1.08-.36-1.08l.36-1.81c0-2.41-.12-5.31-.36-8.68a.33.33,0,0,1,.36-.37l-.36-1.8V150a2.89,2.89,0,0,0-.36-1.45l.36-.72-.36-.72c0-.19.12-.91.36-2.18l-.36-1.8h.36l-.36-.73v-2.89a2.89,2.89,0,0,0-.36-1.45.32.32,0,0,1,.36-.36l-.36-1.81V124.28l-.36-2.53h.36a.32.32,0,0,0-.36-.36q0-.72.36-.72l-.36-3.62V97.15a.32.32,0,0,1,.36-.36.32.32,0,0,0-.36-.36q.36-4.25.36-6.15V87.75q-1.81-1.36-1.81-8V74l-.72.36.36.73v.36a2.85,2.85,0,0,1-.36,1.44,2.91,2.91,0,0,1,.36,1.45.32.32,0,0,1-.36.36l.36.73v7.23l.36,2.53h-.36l.36.73v2.53l.36,2.53h-.36l.36.73v4.34a19,19,0,0,0,.36,3.25,3.74,3.74,0,0,0-.36,1.81l.36,2.53c-.36,0-.72.37-1.08,1.09V112h-1.09l-2.53-22.79a.32.32,0,0,1,.36-.36l-.36-3.62V82.32a2.91,2.91,0,0,0-.36-1.45.32.32,0,0,1,.36-.36L232.79,78V74l-3.62.36h-1.45c0,1.21-.12,1.81-.36,1.81l.36,2.53v8.69l.37,4.34h-.37l.37.72v14.83a.33.33,0,0,1-.37.36l.37.73v8.32h-.37l-.72-.36v.36l.36.72c-.6,0-1.08,1.21-1.44,3.62-.31,0-.79.6-1.45,1.81q-.81,0-1.09-18.81l-.36-.73.36-.72a2.75,2.75,0,0,1-.36-1.09h.36l-.36-.72q-.72-23.05-.72-25.68h-.36a14,14,0,0,0-4,.72l-.73-.36a2.76,2.76,0,0,1-1.08.36q-3.08,0-5.79-5.06h-1.09l-1.8.36v-.36l-.73.36h-.36q-3,0-4.7-4.71v-.72q.09-.72.72-.72h1.45a19,19,0,0,0,3.25-.36l.73.36a28.43,28.43,0,0,1,4-.36h.72v-.73c-1.2,0-1.81-.12-1.81-.36l-.72.36q-1.91,0-5.07-8v-.36q0-1,6.52-1.45a12.32,12.32,0,0,0-1.81-3.25c.48-1.09,1-1.69,1.44-1.81h1.09L236,45.42v.36q8-1.17,8-2.53c.79-2.17,1.39-3.25,1.81-3.25h.36a28.26,28.26,0,0,0,2.9.72,3,3,0,0,1,1.81-2.53h1.44c1,.48,1.45,1.08,1.45,1.81,0,.3-.12,1.5-.36,3.61h1.45V41.08a2.91,2.91,0,0,1,.36-1.45.32.32,0,0,0-.36-.36C255.4,33.73,256.24,31,257.39,31ZM244,140.93v1.44h.36v-1.44Zm17,43.41v1.08l.72.36v-.36a2.76,2.76,0,0,1-.36-1.08Zm3.25-129.87v.36a2.85,2.85,0,0,1,1.09.36v-.72Zm1.45,0q.09.72.72.72h.36v-.72Zm24.6-.73v.36c.72,0,1.08.13,1.08.37a2.89,2.89,0,0,1,1.45-.37v-.36Z" fill="#fbae17"/><path d="M369.08,30.23c3.19,1.57,4.85,2.71,5,3.44q0,.45-.36.45l.36.72v.81a.32.32,0,0,1-.36.37.32.32,0,0,0,.36.36,2.8,2.8,0,0,1-.36,1.17l.36,3.8h-.36l.36.82v2.26a.32.32,0,0,1-.36.36l.36.81q.36,7.07.37,11.94h-.37a56.32,56.32,0,0,1,1.18,6.87H376V60.62a3.05,3.05,0,0,0-.36-1.54q0-.45.36-.45l-.72-6.15.72-.37a2.88,2.88,0,0,1,1.18.37l2.35-.37h1.09c1.68,0,2.59,3,2.71,8.87l-.36.72.36.82a2.76,2.76,0,0,1-.36,1.08l.36,2q-.36,4.62-.36,6.87l.36,1.9-.72,4.25a2.88,2.88,0,0,1,.36,1.18h-.36a.32.32,0,0,0,.36.36l-.36,4.61V88.2a2.6,2.6,0,0,1-.46,1.54l.46.81-.46,2.62a3.06,3.06,0,0,1,.46,1.18h-.46c0,.24.15.36.46.36a18.68,18.68,0,0,1-.82,3.53l.82.36a22.79,22.79,0,0,0-.82,4.25,2.86,2.86,0,0,1,.36,1.45h-.36l.36.81c0,.18-.12.94-.36,2.26a3.5,3.5,0,0,1,.36,1.18h-.36l.36.81c0,.3-.24,1.69-.72,4.16q0,.45.36.45l-.36,3.8v5q0,.45-.36.45a.32.32,0,0,0,.36.36q-.81,4.71-2.71,39.16a2.84,2.84,0,0,1,.36,1.18h-.36a.32.32,0,0,0,.36.36,44.32,44.32,0,0,0-.73,6.15,3.05,3.05,0,0,1,.37,1.54h-.37l.37.72v.81a.65.65,0,0,1-.73.73,4.79,4.79,0,0,1,.73,2.35q-1.37,0-1.54,21.07a25.32,25.32,0,0,1,.81,4.61l-1.53,1.18c-.79-.24-1.18-.51-1.18-.82l-.81.46h-1.09q-2.35,0-2.35-10v-3.8l.36-2.35-.36-.73.36-2.35v-1.53a6.69,6.69,0,0,1-3.07-4.62q0-.36.45-.36l-.45-1.9V160a3.4,3.4,0,0,0-.37-1.54,3.05,3.05,0,0,0,.37-1.54c0-.48-.13-.72-.37-.72l.37-2v-1.9l-.73.36c-.84,0-1.35-.87-1.54-2.62l-1.17.72h-1.18a10.68,10.68,0,0,0-3.8-1.53,23,23,0,0,0-.72,7v3.44a3.38,3.38,0,0,0,.36,1.53,3.1,3.1,0,0,0-.36,1.54c.24,1.81.36,2.84.36,3.08L358,166.88q-6.06,0-6.52-4.16c-1.32,0-2-.51-2-1.54l.46-.81c0-.24-.15-.36-.46-.36l.46-3.8q.72-20.36.72-23.88a2.76,2.76,0,0,1,.36-1.08,3.42,3.42,0,0,1-.36-1.54v-.45c0-.72.12-1.09.36-1.09l-.36-2V116.6h-1.9a.32.32,0,0,1-.36-.36q-.45,0-.45.36l-2.63-.36h-3.88a.32.32,0,0,1-.37-.37.33.33,0,0,0-.36.37c-1.39-.24-2.17-.37-2.35-.37l-3.8.37v-.37c-1.57.31-2.35.7-2.35,1.18v15.74l-.36,2.26a.32.32,0,0,0,.36.36l-.36,2v6.15a.32.32,0,0,1-.36.36.32.32,0,0,0,.36.36,122.56,122.56,0,0,0-.72,13.48c-.55.06-.82.3-.82.72a2.8,2.8,0,0,1,.36,1.18q-.54,1.53-1.08,1.53h-.45c-.43,0-.79-1.29-1.09-3.89l.36-.72v-.81H328c0,.78-.51,1.44-1.54,2v.72h-.81c0-.18.12-.93.36-2.26a3.37,3.37,0,0,1-.36-1.18H326l-.36-.81.36-.72a.33.33,0,0,0-.36-.37A2.8,2.8,0,0,1,326,152q-.36-3.89-.36-6.15v-1.54h.81V143.1h-.81V140q.81,0,.81-.36a4.33,4.33,0,0,1-.81-2.26V119.31l.36-2.71c-1.27-.24-1.9-.48-1.9-.73l-.72.37H323a.32.32,0,0,1-.37-.37l-.72.37a2.7,2.7,0,0,1-1.17-.37,20.13,20.13,0,0,1-3.44.37h-.82v.36a32.76,32.76,0,0,1-.36,4.25l.36.81a3.08,3.08,0,0,0-.36,1.54q0,.72.36.72l-.72,6.51.36.82a9.1,9.1,0,0,0-.72,2.62q0,.45.36.45l-.36,2.63V145a.4.4,0,0,1-.45.45q0,.36.45.36l-.45,1.9q0,4.51-.36,14.2h-.37c0,.3.12.45.37.45l-.37,1.9v.36l.37,2.26a3.3,3.3,0,0,0-.37,1.54,8.59,8.59,0,0,0,.37,1.54,3.26,3.26,0,0,0-.37,1.53,3.58,3.58,0,0,1,.37,1.18,4.34,4.34,0,0,1-4.26,2.35v.36c-1.74-.6-2.62-1.39-2.62-2.35A5.68,5.68,0,0,1,305,172v.72l.36.81a2.8,2.8,0,0,0-.36,1.09l.36,1.54-.36.81.36.72-.36.82a.32.32,0,0,0,.36.36l-.36,1.9V185a50.47,50.47,0,0,0,.36,5.33l-.36.82.36.72-.36.82c.24,1.32.36,2.08.36,2.26l-.36,1.53a3.45,3.45,0,0,1,.36,1.54H305l.36.82A2.8,2.8,0,0,0,305,200a2.8,2.8,0,0,1,.36,1.09q-.36,0-.36.45l.72.36-.36.72v1.18l.36,1.9h-.36q0,.45.36.45l-.36,1.9V218c0,2.59-.39,3.89-1.17,3.89V223H305v.82h-.36l-.82-.36a3.28,3.28,0,0,1-1.53,3.07,6.8,6.8,0,0,1-1.18-3.07l.45-.82v-.36h-.45l-.36,1.9v3.07H300a4,4,0,0,0-.36-1.9,2.8,2.8,0,0,0,.36-1.17,2.84,2.84,0,0,1-.36-1.18H300l-.36-.72.36-.81a.32.32,0,0,0-.36-.37,12.73,12.73,0,0,0,.36-1.53q0-1.28-.36-11.13H300a2.8,2.8,0,0,1-.36-1.17q-1.17-20.53-1.17-28.4c-.36,0-.76-.39-1.18-1.18V166.16l-.72.36a.32.32,0,0,0,.36.36l-.36,4.61v5.07a2.9,2.9,0,0,1-.45,1.54l.81,2.62c-.48,1.2-1,1.87-1.54,2l-.36-.82-.81.37c-.73,0-1.24-1.27-1.54-3.8v-2.72a.32.32,0,0,1,.36-.36l-.36-.81c.18-1.51.45-2.26.81-2.26l-.45-.82v-1.08a.4.4,0,0,1,.45-.45c0-.24-.15-.37-.45-.37l.45-4.61v-4.16q0-.45.36-.45a.32.32,0,0,0-.36-.36c.24-2.84.49-4.25.73-4.25a2.86,2.86,0,0,1-.37-1.09l.37-.81c0-1-.76-1.72-2.26-2.26v4.16c-.73,1.57-1.63,2.35-2.72,2.35-1.32-.78-2.47-2.71-3.43-5.79-.43,0-.82-1.14-1.18-3.44L285,147v-5.42l.36-2.26a.32.32,0,0,0-.36-.36l.82-9.23-.46-.81q.45-1,.82-12.3a48.93,48.93,0,0,1-.36-5h.36l-.36-.72v-1.18h.72v-.81c-.48,0-.72-.51-.72-1.54a3.46,3.46,0,0,0-2,.45q-3.44,0-3.44-3.52a.32.32,0,0,1-.36-.36V102l1.9-.37h2.71c.36,0,.75-.63,1.18-1.89l-.46-.82c0-.24.15-.36.46-.36l-.46-.81V96.25l.46-2.26a2.8,2.8,0,0,1-.46-1.54l.82-.36a8,8,0,0,0-.82-2.71,2.34,2.34,0,0,1,.46-1.18c0-.18-.16-.93-.46-2.26q.45-11.13,1.18-11.13,0-.45-.36-.45,2.89-30.28,5.79-30.29h.36A2.39,2.39,0,0,1,295,46.78l-.45.72A2.9,2.9,0,0,1,295,49h.36q1.1-9.23,4.61-9.23h.37l.36.82v2.62L300,44.43v.81l1.09-.81h1.18c.72,0,1.23,1,1.53,3.07L302.25,56l.36.73-.73,1.9c0,.3.12.45.37.45a24.62,24.62,0,0,1-1.18,5q0,.36.45.36a21.36,21.36,0,0,1-.81,4.26l.81.36-.81,2.26h.81l1.9-7.69a2.76,2.76,0,0,1-.36-1.08l.36-1.54a.32.32,0,0,0-.36-.36l1.54-10.4c0-.24-.15-.37-.45-.37.3-2.35.57-3.52.81-3.52l-.36-.73a.32.32,0,0,1,.36-.36l-.36-.81a4.3,4.3,0,0,1,4.16-2.72,11.26,11.26,0,0,0,1.17,2.72,2.8,2.8,0,0,0-.36,1.17q1.08,0,2.71-11.12l2.63-.36a4.08,4.08,0,0,1,1.17,2.62q0,.9-.72,5.79a13.13,13.13,0,0,0,.36,1.54c-.54,2.83-.93,4.25-1.17,4.25l.36.72c0,.24-.24,1.54-.73,3.89a2.21,2.21,0,0,0,1.54,1.54,17,17,0,0,1,3.44-.46l1.17,2.36q-1.53,18.26-1.53,23.06h-.37l.37.72v1.54L318.43,84a3.48,3.48,0,0,1,.37,1.17h-.37l.37.82a.33.33,0,0,1-.37.36l.37.72v2l-.37,2.63c.49.12.73.39.73.81a5.72,5.72,0,0,1,2.71-.36l-.45-.82q.45,0,.45-.36,7.68-.36,11.49-.36h.81l3.8-.45v.45l.81-.45h.36a2.85,2.85,0,0,1,1.54.45q.36,0,.36-.45l1.9.45h4.25l2.72-.45c0-.24-.15-.36-.46-.36a6,6,0,0,1,1.18-3.08.64.64,0,0,1-.72-.72V84a.32.32,0,0,1,.36-.36l-.36-.73v-.81h.72v.81H351a6.44,6.44,0,0,0-1.08-3.43V76.35h.72v1.09H351V76.35c-.48-1.32-.84-2-1.08-2,.24-2.77.6-4.16,1.08-4.16l-.36-2v-.72a.32.32,0,0,1,.36-.36l-.36-.82V62.52c.24-.79,1-1.18,2.35-1.18h1.54q0-3.53,4.16-4.61.45,0,.45-.36-.45-4.62-.45-7a6.79,6.79,0,0,1,3.07-.72l1.9,1.17.46-.81V43.25l2.62-11.12C367.39,32.13,368.18,31.49,369.08,30.23ZM296.91,162.36v2.26h.36c0-.18.12-.93.36-2.26ZM300,77.89a2.76,2.76,0,0,1-.36,1.08h.73V77.89Zm.37-4.25a5.88,5.88,0,0,1-.37,2.71h.73V73.64Zm.72,142.08v1.9h.45v-1.9Zm.45-75.7v.45l.36,3.44h.37a3.94,3.94,0,0,1,.81-2.71c0-.37-.39-.76-1.18-1.18Zm0,6.15v1.9h.36v-1.9Zm.73-20.71a3.08,3.08,0,0,1-.37,1.54h.73v-1.54Zm0,5-.37.82a3.43,3.43,0,0,1,1.18.36v-.36A.72.72,0,0,0,302.25,130.43Zm.36,1.54c-.18,3.32-.42,5-.73,5l.37.81v.36a.33.33,0,0,1-.37.36,3.58,3.58,0,0,1,.37,1.18q.81,0,.81-.72v-2.72a2.56,2.56,0,0,0-.45-1.53,2.9,2.9,0,0,0,.45-1.54V132Zm.45-5.33-.45,1.9h.81v-1.9Zm11.12-71.45a24.88,24.88,0,0,1-.36,4.25h.73V55.19Zm33.38,47.66v.36h2.71v-.36Zm10-22.7a2.77,2.77,0,0,0,.37,1.18c-.19,2-.46,3.07-.82,3.07l.82,1.54a11.29,11.29,0,0,0-.37,2.62V89H358a1,1,0,0,1,1.17-1.17l-.45-.82.45-.72-.81-.36.36-.82-.36-2.62a.72.72,0,0,0,.81-.81V80.15a2.62,2.62,0,0,0-.45-1.54,2.56,2.56,0,0,0,.45-1.53h-.45C358,77.26,357.59,78.28,357.59,80.15Zm.37-9.59v1.9a3.05,3.05,0,0,0,.36,1.54,2.84,2.84,0,0,0-.36,1.18h.72V74a.32.32,0,0,0-.36-.36l.81-2.71-.81-.37Z" fill="#fbae17"/><path d="M428.41,42.53a.32.32,0,0,1,.36.36l5.33-.36q13,0,18.63,3.8a4.17,4.17,0,0,1,3.08,1.9l-.36.72q1.08,0,1.08.81c-.36,1-.72,1.54-1.08,1.54a23.35,23.35,0,0,0-3.08-.81H452a4,4,0,0,0-1.9.36c-2.53-.24-3.8-.48-3.8-.72q-.45,0-.45.36l-4.52-.73-.72.37a3.33,3.33,0,0,0-1.54-.37c.06.49.3.73.72.73h1.54a12.68,12.68,0,0,1,9.86,4.61l-.36.72a7.68,7.68,0,0,0,4.61,2.26,4.65,4.65,0,0,1,1.08,2.72v.72c-.12.6-1,1.24-2.62,1.9l-.81-.36-.73.36-.72-.36a3.42,3.42,0,0,1-1.54.36.32.32,0,0,1-.36-.36c-.6.48-3.41.87-8.41,1.17v-.36a2.84,2.84,0,0,1-1.18.36v1.54a50,50,0,0,0,.82,9.5l-.36.72.36,2.26-.82,1.18v.36c.55,0,.82.12.82.36q0,.63.36,5.34l-.36.81.72,2.26-.36.72a3.45,3.45,0,0,1,.36,1.54h-.36A2.88,2.88,0,0,1,441.7,92l-.36.72q0,.45.36.45l-.36,1.45a27.63,27.63,0,0,1,.72,5,3.05,3.05,0,0,1-.36,1.54,2.88,2.88,0,0,1,.36,1.18q-.72.09-.72.72t.72.72a5.35,5.35,0,0,1-1.44,3.44.81.81,0,0,1,.72.82,2.85,2.85,0,0,0-.36,1.44h.72l-.36.82q.72.09.72.72h-.72v3.8l.72,1.17-.72,1.18a2.8,2.8,0,0,0,1.18.36v.73a1.48,1.48,0,0,0-1.18.81.32.32,0,0,0,.36.36q0,.72-.36.72l.36,3.8v1.9a3.05,3.05,0,0,1-.36,1.54,3.39,3.39,0,0,1,.36,1.54c0,.54-.12,1.93-.36,4.16q0,.81.36.81l-.36,3.8v6.42a3.08,3.08,0,0,1-.36,1.54c.36,1,.72,1.54,1.08,1.54h.82a3.26,3.26,0,0,0,1.53-.37l.73.37.72-.37q5,1.9,6.15,5v1.08c0,.36-.39.76-1.17,1.18h-1.09a45.42,45.42,0,0,0-9.13.72v.82H441c1.14,0,3.92-.15,8.32-.46a10.59,10.59,0,0,1,5.7,4.25v1.09c0,.3-.13.45-.37.45l.37.73c0,.48-1,.87-3,1.17-2.29-.3-3.44-.57-3.44-.81l-2.71.36h-5.7v3.07a3.33,3.33,0,0,0,1.54.37H444q4.08,0,20.62-1.54c0,.54.51.81,1.54.81v.73h-.81v.36h.36l1.54-.36a20.81,20.81,0,0,0,3.43.36V167c-1.26,0-1.9.24-1.9.72l-1.9-.36h-.72q0,1.54-4.61,1.54a.32.32,0,0,1-.36.36v-.72h-.37v.72a.33.33,0,0,1,.37.36h-1.54v-.36l-3.8,1.54A.72.72,0,0,0,455,170h-.73q0,1.17-.72,1.17h-.82l-1.08-.72a11.39,11.39,0,0,1-4.25,1.08.64.64,0,0,0-.72-.72c0,.6-1,1-3.08,1.18,0-.31-.12-.46-.36-.46,0,.55-.24.82-.72.82-.31,0-.46-.12-.46-.36l-.72.36H441l-.82-.36-.72,1.08c0,.78.12,1.18.36,1.18-.24,2.53-.48,3.79-.72,3.79a.32.32,0,0,0,.36.37l-.36,1.9v6.06l-.36,2.35a2.76,2.76,0,0,1,.36,1.08h-.36c.24,0,.36,1.42.36,4.25a1.5,1.5,0,0,0-1.18.73q-2.25,0-3.8-3.8h.73V189.4h-.36v.81h-.37q-.54,0-1.17-1.17v-1.9a2.59,2.59,0,0,1,.45-1.54,2.57,2.57,0,0,1-.45-1.54v-1.53c.12-.49.39-.73.81-.73l-.36-.72c0-1.69.48-2.59,1.45-2.71l-.36-2.26-.73.36v-.36c0-.55.36-.82,1.09-.82v-.72c-1,0-1.45-.63-1.45-1.9h-2.71a.32.32,0,0,1-.36-.36l-.73.36q-5.79-.27-5.79-.72l-.72.36-5.33-.36-.73.36q-15.37-1.55-16.37-5.34c-.3,0-1.32-1.14-3.07-3.44v-.36q0-.54,1.17-1.17h1.9a.32.32,0,0,1,.36.36q.28-.36,6.52-.72v-.37q-4.8,0-7.69-5.33c-.73,0-1.09-.27-1.09-.82V154c0-.54.51-.82,1.54-.82v-1.89a6.69,6.69,0,0,1-2.35-.73,2.41,2.41,0,0,0,.45-1.17h.36q12.57,0,12.57-1.9,1.9-15.19,2.63-27.41a5.42,5.42,0,0,1-.36-2.62c0-1.26.24-1.9.72-1.9l-.36-.81v-1.9a3.42,3.42,0,0,1,.36-1.54,2.86,2.86,0,0,1-.36-1.45v-1.53a3.08,3.08,0,0,1,.36-1.54,3.05,3.05,0,0,1-.36-1.54h.36a12.09,12.09,0,0,1-.72-4.16h.36l-.36-.81V93.17a19.74,19.74,0,0,0-.37-3.43l.37-.82-.37-1.53.37-2.63-.37-.72.37-2.35v-.36l-.37-1.9h.37a2.73,2.73,0,0,1-.37-1.18,19,19,0,0,1,.37-3l-.37-1.54a23.63,23.63,0,0,0,.73-3.44l-.36-.72q0-.45.36-.45l-.36-1.9V63.87h-5.7c-.55.06-.82.3-.82.73v6.05a.32.32,0,0,1-.36.37l.36.81q-.27,6.42-.72,6.42a3.43,3.43,0,0,1,.36,1.18Q406,85.94,406,88.2v.72q0,.36-.45.36l.45.82q0,.36-.45.36,0,.36.45.36l-.82,4.61a.32.32,0,0,0,.37.37l-.37,1.9v1.17h-.72V97.33h-.36a8,8,0,0,1-1.54,5.34.32.32,0,0,1,.36.36l-.72.36h-.45a3.68,3.68,0,0,0-1.09-2.26.32.32,0,0,0,.36-.36l-.72-.45a15.6,15.6,0,0,1,.72-3.8,2.86,2.86,0,0,1-.36-1.45H401l-.36-.81a.32.32,0,0,1,.36-.36l-.36-.73q.36-15.09.36-16.82l.37-1.44c0-.31-.13-.46-.37-.46l.37-2.62v-7.6a105.7,105.7,0,0,0-12.12,2.26,6,6,0,0,1-1.54-3.79.32.32,0,0,0,.36-.37q-3.79,0-3.8-3.07l.73-1.54c0-.36-.76-1-2.26-1.9v-.36a12.73,12.73,0,0,1,1.53.36q6.15-.36,6.42-.72c.31,0,.46.12.46.36a49.74,49.74,0,0,1,8.68-.72q.45,0,.45.36l.72-.36a2.88,2.88,0,0,0,1.18.36q.09-.81.72-.81h.37c8.07-.73,12.66-1.09,13.74-1.09v-.45l-4.61-.36h-3.8q-4,0-19,1.17c-3.32,0-5-1.38-5-4.16l.73-.81-.36-.73.36-.81h-1.9v-.72l4.61.36,1.9-.36v.36a2.84,2.84,0,0,1,1.18-.36,108.65,108.65,0,0,0,15.19-1.54v.36q10.49-1.9,11.76-1.9l.81.45.36-.81c.48,0,.73.12.73.36l4.61-.36h2.26A3.1,3.1,0,0,0,428.41,42.53ZM420,112.17l.81.36q-.36,1.53-.81,1.53c0,.25.15.37.45.37a21.52,21.52,0,0,1-.82,3.8l.37.81a5.86,5.86,0,0,0-.73,2.62l.36.82q-.36,1.08-.72,1.08l.36.82-.36,1.44a12.65,12.65,0,0,0,.36,1.54q-.54,4.61-1.53,4.61l.36,1.9v1.9q-1.1,3.53-1.09,11.4v1.17c1.27,0,1.9-.27,1.9-.81a51.34,51.34,0,0,1,.72-6.42c-.24,0-.36-.15-.36-.46a.64.64,0,0,0,.73-.72,3.46,3.46,0,0,0-.37-1.54l.82-1.9-.82-.36.37-.72a3.29,3.29,0,0,1-.37-1.18c.55,0,.82-.24.82-.72A2.87,2.87,0,0,1,420,132c.66,0,1.05-.51,1.17-1.54q-.72,0-.72-.81v-1.45a6.44,6.44,0,0,1,.72-3.07l-.36-.72c.24-1.27.48-1.9.72-1.9a3.5,3.5,0,0,1-.36-1.18l.36-2.71a2.89,2.89,0,0,1-.36-1.45c.48,0,.73-.27.73-.81l-.73-.37.36-2.62v-.81l-.36-1.9C420.81,110.63,420.42,111.14,420,112.17ZM418.91,68v3.8q0,.72-.81.72a2.9,2.9,0,0,1,.45,1.54h.72v-.72q1.55-8.06,1.54-8.41V63.87Q418.91,63.87,418.91,68Zm-.36,6.42c0,.55-.15.82-.45.82l.45.72a2.59,2.59,0,0,1-.45,1.54v.36h.45l.36-1.9V74.45Zm2.26,32.74a4.62,4.62,0,0,1-.36,2.26h.72v-2.26Zm0-5.7v2.26h.36v-2.26Zm2.62,63.94v.37H425v-.37Zm9.95-1.9h-1.54a4.29,4.29,0,0,1-.81,2.63h2.71c0-1.27.12-1.9.36-1.9a2.47,2.47,0,0,0,1.18.45v-1.54Zm4.52-29.3v1.9h.36v-1.9Z" fill="#fbae17"/><path d="M528.07,36.29v.36h1.09l-.37-.72a10.73,10.73,0,0,1,1.45.36l2.53-.36,6.88,1.44v.36q-6,2.81-18.81,5.79v.73h.36l1.81-.37.36.73c-.36,0-.73.36-1.09,1.08h.36a2.85,2.85,0,0,1,1.09-.36v.36l-.36.73q.72.09.72.72l.72-.36h.37q.27,0,1.08,1.08l2.53-1.08c0,.3,1.09.9,3.26,1.81v.72a16.21,16.21,0,0,0-3.26,1.81c.24.72.49,1.09.73,1.09l-.36.72v.36q1.17,0,10.85-4,2.72-1.91,11.21-4.34v.72l-1.44.37v.36l1.8-.36h1.09l-.36.72c0,.18.6.78,1.81,1.81q-12,5.52-12.66,6.87c0,.24-.37.36-1.09.36.06.49.3.73.72.73a2.89,2.89,0,0,1,1.45-.37c-.72.61-1.08,1.09-1.08,1.45h-.37l-.72-.36q-.18,1.17-5.43,4l-.72-.36c0,.48-1.21,1.69-3.62,3.61h-2.17L527,67.4l.37.72a.32.32,0,0,1-.37.36l.37,2.17a18.23,18.23,0,0,1-.73,3.62,19.55,19.55,0,0,1,.36,3.62.32.32,0,0,1-.36.36L527,79v.73a3.63,3.63,0,0,1-.72,1.08l.36.73a2.76,2.76,0,0,0-.36,1.08l.36.73-.36.72a2.76,2.76,0,0,0,.36,1.08c-.24,2.66-.48,4-.72,4a.32.32,0,0,0,.36.37q-.63,5.77-1.45,5.78l-.36-.72-.72.36h-.36a3.74,3.74,0,0,0-.36-1.81.32.32,0,0,1,.36-.36L523,90.91v-.72a2.89,2.89,0,0,1,.36-1.45,3.84,3.84,0,0,1-.73-1.81l.37-1.81a2.66,2.66,0,0,1-.37-1.08.32.32,0,0,1,.37-.36l-.37-1.81V80.06a.32.32,0,0,1,.37-.36.33.33,0,0,0-.37-.36l.37-1.81V76.08q0-2.53.36-8-2.54,1.81-12.66,7.24L510,75l-4.34,3.61V79.7q.36,0,4,4.7,5.79,6.87,17,21.71,7.07,8.49,20.26,18.81a41.11,41.11,0,0,1,5.79,4.7v1.45l-.72-.36v.36a.32.32,0,0,1,.36.36l-.73.36a.32.32,0,0,1-.36-.36l-.72.36q-2.54,0-9.41-6.15-1.44,0-1.44-.72l-.73.36h-1.81v1.81q-3.25,2.81-3.25,3.25a4.2,4.2,0,0,1,1.08,2.54v.36q0,.72-1.44.72v1.09a5,5,0,0,1,3.25-1.09h.36a8.29,8.29,0,0,1,3.26,3.26v1.44q-.54,0-6.15,4.35,8.6,5,9,6.87a5.51,5.51,0,0,1-2.17.72q-.27,0-10.49-4.7-.18.72-6.15,3.62,0,.54-7.59,4.7,0,.45-4.34,3.26-17.73,10.22-17.73,12.66l.36.72c-.24.72-.48,1.09-.72,1.09a.32.32,0,0,0,.36.36l-.72,5.79h.36a19.55,19.55,0,0,0-.73,6.51v1.81a2.85,2.85,0,0,1-.36,1.44l.36.73a26.89,26.89,0,0,1-.72,5.06.32.32,0,0,0,.36.36q-.36,5.79-1.44,5.79v1.81a.64.64,0,0,1-.73.72l-.72-1.08a2.89,2.89,0,0,1,.36-1.45,7.38,7.38,0,0,0-1.09-2.89q.36-11.49,1.45-25.33v-.36h-.36c0,.73-.24,1.09-.72,1.09A2.85,2.85,0,0,0,489,172l-.36.72h.72v.72H489l-.72-.36q0,.81-6.15,4h-1.81q-4-3.07-4-4a15.42,15.42,0,0,0-4.7,3.62c-2.66,1.81-4,2.89-4,3.25l-1.81.37h-1.09q-4-2.36-4-5.07,7.88-4.33,13.75-8.32v-.36h-1.08Q462.77,172,459,172.31c-2.66-2.05-4-3.26-4-3.62v-1.45l8.32-8H463a18.17,18.17,0,0,1-3.25.37l-3.62-4v-.37q.09-.54,8.68-4,12.57-7.87,15.56-9.05,1.08-2,14.83-9.4l8.68-6.15q-.81,0-19.17-18.81L466.21,90.55q-2.9-1.26-2.89-3.26-.82,0-5.43,2.9a6.85,6.85,0,0,1-4-3.26v-.36Q456.18,84,466.57,79v-.36Q464,74.91,464,72.83a10.84,10.84,0,0,1,3.26-1.45V68.12a87.56,87.56,0,0,1,9.4-6.87l.72.36h.37q0-2.62,6.87-5.79,0-1.44,11.58-7.59,17.09-9.4,22.79-9.41v.36h.72l-.36-.72,1.08-.73h.37c0,.49.12.73.36.73C522.7,37,525,36.29,528.07,36.29ZM483.57,92c.24.66,1.57,1.51,4,2.53v-.36C487.55,93.75,486.23,93,483.57,92Zm12.3,18.81q2.08,5.43,11.94,13.75a13.72,13.72,0,0,1,2.53-2.54q-13.74-10.22-13.74-11.21ZM497.68,83v.37L508.9,92A1,1,0,0,1,510,93.08h.36v-.72q-.9,0-9.4-11.21A13.47,13.47,0,0,1,497.68,83Zm2.17,14.47q8.41,8.68,9.77,8.69v-.37q-9-7.59-9-8.32ZM500.94,156v.36h.36a6.41,6.41,0,0,1,2.53-1.09v-.36h-.36A6.26,6.26,0,0,1,500.94,156Zm3.62-2.17v.72a3.91,3.91,0,0,1,1.81-.72v-.36H506A2.85,2.85,0,0,1,504.56,153.86Zm.36-41.24V113q9.13,6.87,9.4,6.87a2.85,2.85,0,0,1,1.09-.36q-3.35-4.42-10.13-6.87Zm24.24,21q0,.36-4,3.62.09.72.72.72a50.26,50.26,0,0,0,6.87-2.53v-.72A13.83,13.83,0,0,0,529.16,133.6Zm1.08-98.4h1.09v.73h-1.81C529.58,35.44,529.82,35.2,530.24,35.2Z" fill="#fbae17"/><path d="M619.59,33.57q4.89.47,22.89,15.56,23.41,26,32.82,32.2,0,.63,9.59,7.32a32.12,32.12,0,0,0,5,3.26v1.35c0,.25-.55.79-1.63,1.63h-.64q-4.07-.36-18.63-12.57-.63.09-.63.63c1.21,0,2.41,1.45,3.62,4.34q4.69,6,6.69,7.33a2.82,2.82,0,0,0,.27,1q-.36,1.62-1,1.62c.6,1.45,1.17,2.23,1.72,2.35,0-.42.75-1.08,2.26-2,2.23.37,3.34,1.24,3.34,2.63q-5,4-5,4.34c.9.42,1.35,1,1.35,1.63h.64q3.71-2.62,5.33-2.63h.28c2,.79,3,2,3,3.62a18.44,18.44,0,0,0-4.61,4.61q-1.46,0-8.32,7h-.27v.72a42.36,42.36,0,0,0,5.24-3h1l1,.63a64.83,64.83,0,0,1,11.31-7.33,34.93,34.93,0,0,1,7-4.25q.36,0,.36.27l2-1c1.09,0,1.63.24,1.63.72a19.11,19.11,0,0,1-8,6.61Q684.62,122.48,666.71,136c-3.56,2-5.33,3.77-5.33,5.34s-.13,2.44-.37,2.62a2.25,2.25,0,0,1,.37,1H661a.32.32,0,0,0,.37.36q-1.1,10.48-1.63,12.3l.27,1.26c-.78,6.21-1.33,9.32-1.63,9.32a.32.32,0,0,0,.36.36q0,3-1.35,14.92v.27a2.86,2.86,0,0,0-1,2.35h-.63l-.36-4v-1a.32.32,0,0,1,.36-.36l-.36-.63v-5.61q0-5.25.63-19.27h.36a.32.32,0,0,0-.36-.36q.36-.54.72-9.94H657l-.28-.64a2.59,2.59,0,0,0,.28-1h-.28a179.39,179.39,0,0,0-14.28,10.94c-.49,0-1.72,1-3.71,3q-1.82,1.19-20.89,16.55a65.05,65.05,0,0,1-6.61,2.36h-.63c-2.23-.55-3.35-1.87-3.35-4l5.61-4.34h-.63q-6.42,5-8,5h-2c-.18,0-1-1-2.35-3v-1q7.41-6,8.95-7v-1.27q-.63,0-8.95,7a3.64,3.64,0,0,0-1.63.28l-2-3v-.63c4-2.84,6-4.82,6-6,0-1.57.12-2.44.36-2.62a.33.33,0,0,0-.36-.37l.36-1.62v-1q0-4.06.64-11.66c0-.19-.13-.28-.37-.28l.37-1.71v-4.25l.36-2a.33.33,0,0,0-.36-.37l.36-2.35v-2q0-.36.27-.36a.24.24,0,0,0-.27-.27q.54-8.42,1-8.68l-.36-.64v-3.34l.36-2q0-.27-.36-.27.36-2.44.63-16.28h.36a.32.32,0,0,0-.36-.36,15.28,15.28,0,0,0,.36-2.63c0-1.56.12-4.76.37-9.58h.27l-.27-.73c.18-2.17.39-3.25.63-3.25l-.36-.73V78a2.28,2.28,0,0,0,.72-1.27,2.22,2.22,0,0,0-.36-1,12.46,12.46,0,0,1,.63-2.71l-.27-.64.63-4.34-.36-.63a79.51,79.51,0,0,1,1.72-9.32l-.36-.63a5.49,5.49,0,0,0,.63-2c-.24,0-1.32-1.11-3.25-3.35a9.34,9.34,0,0,1,3.61-3.25h1.36q4.53,0,10.22,3.62v-.37q-6.6-7.23-7.23-7.23c-.67-.48-1-.93-1-1.36.18-.9.6-1.35,1.27-1.35v-.64c-2.42-2.59-3.62-4-3.62-4.34v-.27a6.45,6.45,0,0,1,5-2.71,5,5,0,0,0,2,.72Zm-6,26.87-.73,4,1,.64c.12-.42.36-.64.72-.64a5.84,5.84,0,0,0,1,2.36c-.49,3.19-.73,4.85-.73,5V72h.36q.91-5,1.63-5l-.27-1.27.27-2.35Q614.52,60.71,613.63,60.44Zm3.61,22.88c-.9,5.72-1.57,8.59-2,8.59l.37.72v2.62c0,.43-.25.64-.73.64l.36.72v1.27l-.36,2,.36.72a48.6,48.6,0,0,1-1.35,8.59,12.35,12.35,0,0,1,.72,3,2.22,2.22,0,0,1-1,.36,12.94,12.94,0,0,1,1,3c-.48.06-.72.27-.72.64q.72.09.72.63l-.36.72h.63v-.36q0-2.17,1.36-15.92a2.22,2.22,0,0,1-.36-1,12,12,0,0,0,1.35-3.62q-.63,0-.63-.72v-.27h.63v-.73h-.63l1-9.58-.36-.64.36-.72v-.63Zm-3.34,36.8v2c0,.25-.09.37-.27.37a2.73,2.73,0,0,1,.27,1h.36c0-.3.12-1.42.36-3.35Zm-.27,5.34v1.63h.27v-1.63Zm.63-7.69v2h.36l.27-1.63Zm2.62,13.3-1,10.31.36.63c-.24,1.15-.45,1.72-.63,1.72l.27.63a22.82,22.82,0,0,1-.64,3.62q1.54,0,2-13.2v-.73l-.36-.63.36-1.36v-1Zm.36-10.31a2.83,2.83,0,0,1,.36,1h.64a2.22,2.22,0,0,1-.36-1Zm0,4v1.72h.36v-1.72Zm1.63,37.53v.36h.36a32.51,32.51,0,0,0,6.6-6h-.27Q621,160.19,618.87,162.27ZM626.56,81v.37a27.48,27.48,0,0,1-1,6.33c.42.06.64.27.64.63a3.69,3.69,0,0,0-.64,1.63q.27,0,.27.36c-.36,0-.69.66-1,2h.36a2.22,2.22,0,0,0-.36,1l.36,1.63q-1,0-1,7.33a9.05,9.05,0,0,0,.36,1.35q-.74,0-1.72,8.6.72.09.72.63c-.36,0-.69.66-1,2l.27.72q-.54,7.24-1,7.24a.32.32,0,0,0,.36.36l-.36,1.63v2.71l-.28.63.64.36c-.24,2.24-.58,3.35-1,3.35q0,.27.36.27l-.36,2.35v.37l.36,1.62c-.48.06-.72.27-.72.64a.32.32,0,0,0,.36.36l-.36,2.35V143q3-1.19,3-5a31.64,31.64,0,0,1,.73-5l-.36-.64.63-4.34-.27-.63q.81,0,1.26-15.65c.24,0,.37-.09.37-.27a.33.33,0,0,0-.37-.36,38.47,38.47,0,0,0,.73-7.32,2.79,2.79,0,0,0-.36-1l.36-2V97.6l.63-1a4,4,0,0,1-.63-2V93.9a.24.24,0,0,1,.27-.27c0-.24-.09-.37-.27-.37l.27-1.62-.27-.73c.18-1.32.39-2,.63-2l-.36-.63V86.66l.36-1.72a.56.56,0,0,1-.63-.63v-.63h.63V81Zm-3.71-11.21c0,1.09-.21,1.63-.63,1.63a.32.32,0,0,0,.36.36c-.36,3.74-.7,5.61-1,5.61a2.79,2.79,0,0,1,.28,1l-.28,1.36c0,.18.09.27.28.27l-.28,2.35v2.35q0,.27-.36.27l.36.73-.36,3.25a15.91,15.91,0,0,1,.36,3,.32.32,0,0,0-.36.36l.64.36,3-20.89A3.22,3.22,0,0,0,622.85,69.75ZM621.58,92.9l-.36,1.72h.64V92.9Zm3.26-31.11v.27a3.07,3.07,0,0,1,1,1.72h.73v-.36c-.42-1-.88-1.57-1.36-1.63Zm18.63,79.59-16.64,14.29v.27a124.69,124.69,0,0,0,11.94-10.22c2.11-1.63,3.89-2.95,5.33-4v-.36Zm-12.3-64V78.7q0,.27.36.27l-.36.73v1c0,2.66-.33,4-1,4v.64h.63v1.62a3,3,0,0,1-.27,1.36q0,.36.27.36l-.27,2.26v4a.32.32,0,0,1-.36.36.32.32,0,0,0,.36.37l-.36,1.62v.36l.36,1.63h-.36a.32.32,0,0,0,.36.36c-.18,1.33-.43,2-.73,2l.37.64v1.63c0,.48-.22.72-.64.72l.27.63q0,.36-.27.36a26.6,26.6,0,0,1,.64,4.25c-.43.13-.64.37-.64.73v.27c.42,0,.64.12.64.36l-.64,1.36.27.63-.27.63c0,.25.09.37.27.37a26.51,26.51,0,0,1-.63,4.34l.36,2v3.25a3.65,3.65,0,0,1-.72,2c.48.12.72.36.72.73q-.81,1.62-1,1.62l.27.64v1a21.4,21.4,0,0,1-.27,3.08,2.73,2.73,0,0,1,.27,1c-.3,0-.63.33-1,1l.73.27-.36,1.72V137c1.2-1.33,2.32-2,3.34-2v.36h.27v-.63c-.18,0-.27-.12-.27-.37a45.89,45.89,0,0,1,6.6-5.33c0,.42.12.63.37.63q1.26-.45,1.26-1v-.28a3,3,0,0,1-1,.64h-.27v-.36a141.44,141.44,0,0,1,13.29-10.59v.64a2.09,2.09,0,0,1,1.27-.64v-.36h-.27a2.93,2.93,0,0,1-1,.36,2.77,2.77,0,0,1,2.26-1.62l-.27.63h.63v-.36l-.36-.63q12.3-10,12.93-10,4.17-2.36,5.34-2.35c-.9-.85-1.36-1.51-1.36-2h-.27c0,.9-.66,1.35-2,1.35s-4.52-2.32-10-7c-1.32,1.14-2,1.81-2,2q.36,0,4.25,5.61c-1.26,1.8-2.59,2.71-4,2.71q-3.45-5.79-13.3-15.92l-.27,4v2.26a2.42,2.42,0,0,1-.36,1.36.32.32,0,0,0,.36.36c-.3,3.07-.63,4.61-1,4.61l.27.64v.36a38.15,38.15,0,0,1-3.26,8c-.48,0-.72-.21-.72-.64a.32.32,0,0,1,.36-.36,2.22,2.22,0,0,0-.36-1q.36-8.15.36-12.94v-.36a2.22,2.22,0,0,1,.36-1.26,2.29,2.29,0,0,1-.36-1h.36a.32.32,0,0,0-.36-.36l.36-1.63v-7Q639.49,85,631.17,77.35Zm-2.35-33.47,3.71,4-.36.64q2.16,0,8,7.59,6.24,7.24,7.6,9.32,6.51,6,6.69,6.6c.42,0,1.3.67,2.63,2q-13-17.08-22.25-25.5l-5.61-4.62Zm3,25.87V70q0,.81,7.33,9V78.7a96.26,96.26,0,0,1-7-9Zm1-12.66v.36q0,1.27,5.7,8.59c1.32,1.63,2,2.63,2,3h1c1,0,1.84.66,2.62,2h.36v2.71q5,6.15,5,6.6.09.63,5.33,5.61l9,8.68V93.9l-2.72-5-.63.36h-.63q-.45,0-4.7-7a96.53,96.53,0,0,1-13.57-15.55Q633.51,57.08,632.8,57.09ZM641.48,138v.36h.63a2.14,2.14,0,0,1,.37-1h-.37Q641.48,137.49,641.48,138Zm12.3-5q-8.87,7.68-9.68,7.68V141h.36q4.44-2.18,9.59-8Zm2.26-2.35a2.42,2.42,0,0,1-.63,1.35h.36l.63-1v-.36Zm19.9-10.59h.36a.56.56,0,0,0,.63-.63h-.27Q675.94,119.58,675.94,120.12Z" fill="#fbae17"/><path d="M744.13,40l.72.36q.27,0,.27-.36l1.72.36c3.13-.24,5.46-.36,7-.36v.36l.73-.36,1,.72,1.45-.36q8.68,1.62,10,3.8V46.6h2.71l2.08.36a3.19,3.19,0,0,1,1.72-.36A11.13,11.13,0,0,1,775,47q.27,0,.27-.36,7,0,7,2.44c0,.24-.57.81-1.72,1.72H778.4a.32.32,0,0,1-.36-.36q-3.43,0-3.43,2.8c-1.15.3-1.72.63-1.72,1q-10.59.38-15.65.37h-5.52a2.38,2.38,0,0,0-1.35.36,2.85,2.85,0,0,0-1.09-.36l-1.72.36v-.36c-.06.24-1.2.36-3.43.36v.36c4.4.78,6.6,1.24,6.6,1.36l.63-.37.73.37a2.69,2.69,0,0,1,1.35-.37q0,1,13.57,2.81c1.14.6,1.72,1.05,1.72,1.36v1.08a3.72,3.72,0,0,1-1.09,2.35l3.44.36a11.13,11.13,0,0,0,1.45-.36l.63.36,2.08-.36h.36q3.25,2.54,3.53,3.53V68A4.49,4.49,0,0,1,776,70.47c-1.75-.66-5.09-1.11-10-1.35v.36l-.72-.36-1.36.36-1.35-.36a11.13,11.13,0,0,1-1.45.36c-1.39-.18-2.08-.42-2.08-.72a1.56,1.56,0,0,1-2,0l-2.08.36H753.8a.32.32,0,0,1-.36-.36l-.63.36h-8c-.72,0-1.08,1.51-1.08,4.52v1.72a.33.33,0,0,1-.37.36c0,.18.12.27.37.27l-.37,1.72v4.52a2.89,2.89,0,0,1-.36,1.45q0,.27.36.27L743,87.48v1a17.6,17.6,0,0,0,.36,3.17,3.15,3.15,0,0,0-.36,1.71l.36,1.72.73-.36h3.07a.32.32,0,0,1,.36.36,10.7,10.7,0,0,1,3.8-.72l1.09,1.72q.36,0,.36-.27l1.36.27L759,95.8q2.81,2.16,2.8,4.43h-.36c0,.54.93,1.48,2.81,2.8q0,3.8-2.81,3.8a123.73,123.73,0,0,1-13.47,1.36c-.49.12-.73.36-.73.72,2.11,0,3.17.12,3.17.36l.63-.36h3.17l3.07,2.44v1.72c0,1.69-.33,2.62-1,2.8h-.37a.32.32,0,0,1-.36-.36l-.63.36h-.36l-1.09-.72h-1.72v.36c.37,0,.82.33,1.36,1l.72-.36a3.66,3.66,0,0,1,.37,1.8l.72-.36h.27v1a2.34,2.34,0,0,0-1.36.72h-2.44a16.11,16.11,0,0,0-3.07.36l-.73-.36a11.12,11.12,0,0,1-3.07.72,2.8,2.8,0,0,0-1.09-.36,2.22,2.22,0,0,1-1,.36l-.72-.36L741,120l-.63-.36-.72.36a2.39,2.39,0,0,1-1.36-.36,26.4,26.4,0,0,1-3.8.36h-.72a.32.32,0,0,1-.36-.36,12.52,12.52,0,0,1-4.53.64H725c-.24,0-.36-.1-.36-.28l-.63.28h-1.72q0,.72.27.72l-.27,2.44v1a3.63,3.63,0,0,0,.27,1.44l-.27.64q0,.36.27.36l-.27,1.72V136a8.2,8.2,0,0,1-.72,3.8,2.39,2.39,0,0,1,.36,1.36l-.36,1.35.72.36-.36.73v.36h.63l2.44-.36v.36l.73-.36h2.08a.32.32,0,0,1,.36.36l.63-.36H733v-.36h-1v-.73h.36q2.8,0,6.51.36a.32.32,0,0,0,.36-.36l1.72.36h1.45q6.51,0,10.4,2.81a2.22,2.22,0,0,1,1,.36l.73-.36.63.36.72-.36q3.43,1.53,3.44,4.16l-1,2.71c1.44,0,2.35,1.06,2.71,3.17a3.12,3.12,0,0,1-1.36,2.8,12.54,12.54,0,0,1-3.43-.72c-1.39.3-2.08.63-2.08,1v.36c2.29,0,3.55.49,3.79,1.45v.63l-13.11,1.36v.36c2.23.06,3.59.42,4.07,1.09a2.75,2.75,0,0,1,1.09-.36q11.38,1.17,11.39,2.08l.73-.37a7.73,7.73,0,0,1,3.07,2.08l-.63,1.09a13.78,13.78,0,0,1,5.51,1.72l2.08.63v.36c0,.36-.36.73-1.08,1.09l-.63-.36c0,.3-.37.63-1.09,1H765.2l-2.08-.27-.63.27c-2.36-.18-3.53-.39-3.53-.63l-.63.36q-6.24-.27-6.24-.72c-1.15.24-1.72.48-1.72.72l-2.44-.36h-2.45q-1,0-1,.36l-1.72-.36h-2.08a87.74,87.74,0,0,0-13.56,1,2.62,2.62,0,0,0-.37,1.36V175q.74.72,1.81,6.6c-.12.91-.48,1.36-1.08,1.36v1.45l-1,7.95a2.82,2.82,0,0,1,.27,1h-.27a3.45,3.45,0,0,1,.27,1.08q-.27,8.32-1,8.33,0,.27.36.27c-.6,4.64-1.3,7-2.08,7h-.72V197.54a.32.32,0,0,1,.36-.36l-.36-.64a2.76,2.76,0,0,0,.36-1.08l-.73.36c-.3,0-.63-.57-1-1.72l.36-1.72v-2.44l-.36-2.08a2.28,2.28,0,0,0,.36-1.08,2.42,2.42,0,0,1-.36-1.36h.36a.32.32,0,0,0-.36-.36l.36-2.35v-4.89l-1.08.73h-2.08q-1,0-2.08-5.25l-.64.36h-1.81a42.08,42.08,0,0,0-5.15.37l-1.72-.37a2.82,2.82,0,0,1-1.08.37,2.25,2.25,0,0,1-1-.37,26.52,26.52,0,0,1-3.8.37h-.72c-.72,0-1.3-1.15-1.72-3.44a.64.64,0,0,1-.72-.72c-2.78.6-4.16,1.62-4.16,3.07a2.25,2.25,0,0,1-1,.36l-.72-.36h-1l-1.44-2.35v-1.45a.32.32,0,0,1,.36-.36l-.36-.63v-.73c1.44-1.62,4.1-2.77,8-3.43v-.36c-1.27,0-2-1.63-2.36-4.89-.78,0-1.35-.69-1.71-2.08-1-.42-2-1.57-3.17-3.44v-2.08c0-1.68.36-2.59,1.09-2.71l.63.27c1.39,0,2.08-1.14,2.08-3.43v-.37q0-4.52.36-15.55l-.36-1.72.72-.36a5.56,5.56,0,0,1-.72-2.8v-.28a.32.32,0,0,1,.36-.36c0-1.38-.93-2.08-2.8-2.08-.67-.54-1-.9-1-1.08.18-2.78.51-4.16,1-4.16h2.44a4.92,4.92,0,0,0-2.71-4.8l.27-1.71a4.13,4.13,0,0,1-1-2.08,2.49,2.49,0,0,1,2.81-2.81V100a3.64,3.64,0,0,1,.27-1.45,23.48,23.48,0,0,1-.64-3.8l.37-.72c0-.18-.12-.27-.37-.27l.37-3.53V88.83l-.37-2.08c.25-1.38.46-2.08.64-2.08q0-.36-.27-.36a11.14,11.14,0,0,0,.27-1.36l-.27-2.08.63-.36-.63-1.35q.81-7,1-7l-.36-.63V71.2l.36-.73q-2.44,0-2.44-3.79c0-1.33.93-2.27,2.8-2.81l-.36-.63,1.09-1.72V60.44l-.37-.73c.43,0,.76-.9,1-2.71a.32.32,0,0,0-.36-.36,17.7,17.7,0,0,0,.72-4.16H697a2.71,2.71,0,0,1-1.36.36h-.36a.32.32,0,0,1-.36-.36l-.63.36h-2.45a2.85,2.85,0,0,0-1.44.36l-.64-.36a2.85,2.85,0,0,1-1.44.36l-3.08-2.8a8.14,8.14,0,0,1,5.88-2.08V48c-.78,0-1.23-.81-1.36-2.44s3.8-2.65,11.4-3.43v.36l3.16-.73c.19,0,.28.13.28.37a106.65,106.65,0,0,1,12.84-.73,2.83,2.83,0,0,1,1.08-.27v.27l.64-.27q.36,0,.36.27l1.72-.27H723c.25,0,.37.09.37.27l.72-.27q8.51-.36,13.11-.36a2.8,2.8,0,0,0,1.09-.36l.63.36.73-.36a.32.32,0,0,1,.36.36A26.38,26.38,0,0,1,744.13,40ZM697.37,99.23v1.36h.72v-.36a2.25,2.25,0,0,1-.36-1ZM698.09,76a2.89,2.89,0,0,1-.36,1.45l.64.27V76Zm-.36,3.53v1.72h.36V79.52Zm9-34h-.27c-.37,0-3.14.24-8.33.73v.36l3.08.36q13.2-.72,13.2-1.72h-2.8l-4.16.27v-.27Zm-8.6,68.55v2.09c.43,0,.64-.34.64-1a2.28,2.28,0,0,1-.36-1.09Zm.28,11.13v1q.72,0,.72-.63Zm.36-29.76.72.37V94.71Q698.73,94.8,698.73,95.43Zm0,2.72v.36h.36l.36-1.36C699,97.15,698.73,97.48,698.73,98.15Zm0,1.81a9.86,9.86,0,0,1,.36,2.71h.36V100Zm7-28.13q0,.72-.36.72l.36.73v2.08l-.36,2.08a2.38,2.38,0,0,1,.36,1.35h.36c0-2.53.12-3.79.37-3.79a2.65,2.65,0,0,1-.37-1.36l.37-.72a2.74,2.74,0,0,1-.37-1.09Zm0,7.33q0,.63-.36.63a2.76,2.76,0,0,1,.36,1.08h.36V79.16Zm0,11.75a4.9,4.9,0,0,1,.36,2.44h.37v-2.8Zm7.6,33.28q-1,9.5-1.72,19.36c.9,0,1.36.24,1.36.72h.72a.32.32,0,0,0-.36-.36c.24-2.35.48-3.53.72-3.53q0-.27-.36-.27l.36-1.81V136a2.91,2.91,0,0,0-.36-1.45q0-.27.36-.27l-.36-1.81q0-1,.36-1l-.36-1.72v-5.52Zm4.16-51.27a.33.33,0,0,0-.36-.37c0,.73-.13,1.09-.37,1.09l.37.63v1.09l-.37.63.73.36a.32.32,0,0,1,.36-.36l.36.72v1.36l-1.45.36v2.08l.73-.36.36.72v2.45a.32.32,0,0,1-.36.36q0,.27.36.27-.72,8.6-.72,11.48a2.29,2.29,0,0,1,.36,1h.36l.36-1.72v-8a.32.32,0,0,1,.36-.36.32.32,0,0,0-.36-.36l.36-1.72V81.6q0-.36.27-.36l-.27-.73.27-1.35c0-.24-.09-.37-.27-.37a30.3,30.3,0,0,0,.64-6.6v-.36Zm-.36-8v1h2.08q.54,0,1.08-1.35h-.72Zm.72-7.33V58h2.44v-.36Zm8.32-13.11a2.75,2.75,0,0,1-1.09.36.32.32,0,0,1-.36-.36,20.27,20.27,0,0,1-5.15.36v.36h6.6q1.08,0,6.6-.36v.36l.64-.36h11.48a3.49,3.49,0,0,0,1.72-.36l2.08.36h7.6v-.36q-4.08-.36-5.88-.36Q743.86,44.16,726.13,44.52Zm-4.88,114.22v.72a4.29,4.29,0,0,1,2.44-.72v-.27h-1.36A3.45,3.45,0,0,1,721.25,158.74Zm0,14.56a8.5,8.5,0,0,1,.72,3.44.32.32,0,0,0-.36.36h.72V175q0-.36.27-.36a3.05,3.05,0,0,1-.27-1.36Zm.36-21.43v.63h2.08a3,3,0,0,0,1.35-.27,3.71,3.71,0,0,0,1.45.27h1l.72-.27.36.63c1.39-.42,4.37-.63,9-.63h3.16a3.44,3.44,0,0,1,1.36.27l.72-.27a34.82,34.82,0,0,0,3.8.27l1.72-.27v.27q.36,0,.36-.27a2.73,2.73,0,0,1,1,.27l3.44-.27v-.36l-10.67-1.09a2.89,2.89,0,0,1-1.45.36v-.36q-.27,0-.27.36l-2.44-.36h-1.09A140.89,140.89,0,0,0,721.61,151.87Zm13.11-81.76v.73c-.42,0-.63-.24-.63-.73a2.8,2.8,0,0,1-1.09.36c-4.4,0-7,.46-8,1.36V71.2h-.63q-.36,7.23-.72,7.23a.32.32,0,0,0,.36.36c-.3,2.78-.66,4.16-1.09,4.16l.37.73c0,.18-.12.27-.37.27l.37.72V85a15,15,0,0,1-1,5.52.66.66,0,0,1,.63.72,3,3,0,0,1-.63,1l.63.36a6.22,6.22,0,0,0-.63,2.8l.27.64,7.69-.64v.37a38.3,38.3,0,0,1,4.16-.73v.36l.63-.36,2.45.36v-.36l.72.36h1V90.55l-.36-1.72h.36a2.22,2.22,0,0,1-.36-1,.32.32,0,0,1,.36-.36l-.36-1.72V85a.32.32,0,0,1,.36-.36l-.36-.72V81.87l.36-2.08q0-.27-.36-.27l.36-2.44v-3.8l.37-3.53h-.37C736.41,70,734.9,70.11,734.72,70.11ZM725,142.46h1.45v.73H725Zm13.84-79.22a71.24,71.24,0,0,0-13.47,1l.72,1.09q-.36,0-.36.27h.72a.56.56,0,0,0,.64-.63l.72.36,1-.72a3.61,3.61,0,0,1,1.09.72A7.26,7.26,0,0,1,733,64.23a2.79,2.79,0,0,0,1.45.37h1a.32.32,0,0,0,.36-.37c1.86.25,2.8.49,2.8.73A2.39,2.39,0,0,1,740,64.6v-1l-.36-.72Zm-10.31,94.87c.06.42.27.63.64.63a3.45,3.45,0,0,1,1.08-.27v-.72A3.47,3.47,0,0,1,728.57,158.11Zm1-103.19v.36c1.93,0,3,.09,3.16.27a6.63,6.63,0,0,1,2.72-.27v-.36Zm6.6,0v.36l2.44.27h.63l2.45-.27v-.36Zm8.68,8v1.35q3.43-.36,5.16-.36a.32.32,0,0,1,.36.36l.63-.36c2.35.06,3.53.3,3.53.73l1.72-.37h8V63.6Q749.83,62.88,744.85,62.88Zm19.72.72v.63a2.22,2.22,0,0,1,1-.36V63.6Z" fill="#fbae17"/><path d="M815.3,14.58h.37q1.8.74,6.14,17.73h.37a4.56,4.56,0,0,1,3.25-1.09,28.41,28.41,0,0,0-1.08-4.7c1.26-1.21,2.35-1.81,3.25-1.81H828q3.25,0,3.26,7.6a51.83,51.83,0,0,1,3.26,10.85c1.2,0,1.8.72,1.8,2.17h.37q1.35,0,2.53-5.06l1.81-.73q1.89,0,4,4a18.5,18.5,0,0,1-2.17,4.34v.37a3.16,3.16,0,0,1,3.25,2.17q0,1.53-5.79,10.13c0,.48.12.72.37.72.18,1,.54,1.45,1.08,1.45v.72H841q2.16,3.7,13,28.58l10.85,25c.73.12,1.09,1,1.09,2.53l.72-.36v.72H866v.73c.6,0,1.08.48,1.45,1.44h.36v.73H867v.36c1.21,0,1.81,1.08,1.81,3.25h-.36v.37c.54,0,1.27,1.2,2.17,3.61a8.4,8.4,0,0,0,1.45,4.35,2.76,2.76,0,0,0-.36,1.08q1.08.72,4,8.32a2.69,2.69,0,0,0-.37,1.09c.49,0,1,1.08,1.45,3.25l-.36.73,1.08,1.8v1.09q-2.16,2.89-4.34,2.89a5.18,5.18,0,0,1,1.09,2.54h-.36l2.17,4a2.91,2.91,0,0,0-.36,1.45l1.44,1.09-.36.72v.72c1,0,1.81,1.81,2.53,5.43-.3,0-.78.6-1.44,1.81l-1.45,1.08h-.72q-1.1,0-6.15-12.3-.37-.18-6.52-13l-1.44,1.09h-1.45c-.9-.42-1.87-1.75-2.89-4-1.93,0-2.9-.12-2.9-.36l-.72.36a2.8,2.8,0,0,0-1.09-.36c-1.44.54-2.17,1.38-2.17,2.53a14.47,14.47,0,0,1,1.45,5.42c-.42,0-.78.73-1.09,2.17a3.62,3.62,0,0,1,1.09.73l-.36.72v.36c.66,0,1.14.61,1.45,1.81V160c.84,2.17,1.44,3.25,1.8,3.25l-.36.73c1,1.93,1.57,2.89,1.81,2.89l-.36.72v.73c1,0,1.45.24,1.45.72-.49.06-.73.3-.73.72.48,0,.73.37.73,1.09l.72-.36q1.53,5.34,4.34,7.23,2.17,3.61,2.17,4.71l-.36.72a2.86,2.86,0,0,1,.36,1.45,9.68,9.68,0,0,0-2.53,1.81h-1.81q-2.45-2-7.6-18.09l-6.15-14.83-.36-1.45-14.83,1.08.36.73v1.08h.36a.32.32,0,0,1-.36.36l.73,5.07h-.37q1.09,3,1.09,10.13v.72a.32.32,0,0,0,.36.36.33.33,0,0,1-.36.37l.72,6.87a.32.32,0,0,1-.36.36l.36,1.81v19.53l-.36,1.81H833v-.72h-.36v1.81l.72-.36v.72h-.72v1.09h.72v.72h-1.08a2.76,2.76,0,0,1,.36,1.08c0,1.93-.36,2.9-1.09,2.9v1.08h.73V211h-1.45a2.59,2.59,0,0,0-.73-1.45V207.4a.32.32,0,0,1,.37-.36,12.94,12.94,0,0,1-1.09-2.9h.36l.73.36v-.72a7.27,7.27,0,0,1-1.09-3.62.32.32,0,0,1,.36-.36l-.36-.72a.32.32,0,0,1,.36-.36l-.36-1.81a2.86,2.86,0,0,1,.36-1.45l-.36-2.17v-2.17h.72v-.72h-.72l.72-1.09v-.72l-.72.36v-1.09l.72.36c0-.48.12-.72.37-.72-.79-1.69-1.27-2.53-1.45-2.53a2.8,2.8,0,0,0,.36-1.09q-1.08-7.23-1.08-7.59a2.85,2.85,0,0,0,.36-1.09H828l.37-1.81V172h-.73v-.37h.73v-.36a.33.33,0,0,0-.37-.36.32.32,0,0,1,.37-.36l-.37-1.81.37-.72a2.64,2.64,0,0,1-1.09-.37c.36-1,.72-1.44,1.09-1.44a8.71,8.71,0,0,1-.73-3.62H828l-.72-1.81.36-2.17v-.36l-.72.36h-.36l.36-1.81h-.36l.36-.72-.36-.73v-1.08c-.49,0-.73-.48-.73-1.45q-15.64-.45-21.34-1.44l-.72.36a2.91,2.91,0,0,0-1.45-.36q-4,11.38-5.07,13.74a2.74,2.74,0,0,1,.37,1.09l-1.09,1.44.36.73a2.76,2.76,0,0,0-.36,1.08h-.72v-1.08h-.36a3.11,3.11,0,0,1-.73,2.17v1.81q-.72,0-.72,1.08h-.36c-.36,0-.73-.36-1.09-1.08a1.93,1.93,0,0,1,1.45-2.17l-.36-1.81c.06-.48.3-.73.72-.73a.32.32,0,0,0,.36.37l-.36-1.81c.36-1.21.85-1.81,1.45-1.81v-2.53c0-.37.36-.73,1.08-1.09l-.36-.72a48.41,48.41,0,0,1,3.26-7.24,2.76,2.76,0,0,1-.36-1.08.32.32,0,0,0,.36-.36,2.79,2.79,0,0,1-1.45-.37l-.72.37a2.91,2.91,0,0,0-1.09-.37,2.56,2.56,0,0,0-2.89,2.9l-.73-.36h-.36l.36.72q-4.33,9-4.34,9.77a.32.32,0,0,1,.36.36,1.28,1.28,0,0,0-1.44,1.45,2.76,2.76,0,0,1,.36,1.08l-.72-.36a9.91,9.91,0,0,1-1.45,3.25l.36.73a2.76,2.76,0,0,0-.36,1.08l-.72-.36a2.68,2.68,0,0,1-1.09,2.53v1.09q-.72,0-.72.36a2.75,2.75,0,0,1,.36,1.09l-.72-.37v.37l.36.72a5.86,5.86,0,0,1-1.81,2.89l.36.73a6.36,6.36,0,0,0-1.09,2.53,2.8,2.8,0,0,1,.37,1.09,11.45,11.45,0,0,1-4,1.44c-1.09-.48-1.69-1-1.81-1.44v-.73a20.79,20.79,0,0,0,1.45-4.7c-.67,0-1.27-.6-1.81-1.81v-1.45a14.27,14.27,0,0,0,1.81-5.42.32.32,0,0,0,.36-.37V168h-.36q0,1.44-2.54,4.34a3.81,3.81,0,0,1-4-2.9v-1.08q2.26-2.27,7.24-13.75H777a38,38,0,0,0-5.07,1.09,4.29,4.29,0,0,1-4-2.17,13.78,13.78,0,0,0,1.81-2.17c-.72,0-1.08-.24-1.08-.73v-.36a3.06,3.06,0,0,1,2.53-1.81v.36a2.86,2.86,0,0,1,1.45-.36v-.36c-.73,0-1.09-.24-1.09-.72v-1.09c0-1,2.65-1.63,8-1.81l-.36-2.53c.72,0,1.32-.48,1.81-1.45v-.72h-.37c0,.78-.6,1.51-1.8,2.17q-2.89-1.08-2.9-3.62v-.72q3.61-5.52,10.85-22.07h-.36c-.48,0-1.2-.48-2.17-1.45h-.36q-1.26,5-4,7.24h-.72a3,3,0,0,1-2.9-2.17v-1.81q5-9.85,10.13-22.07Q798.57,70.65,808.43,54a38.2,38.2,0,0,0-5.79-9.4v-.36a6.39,6.39,0,0,1,2.9-2.54q2.79,0,5.42,6.88c1.09,0,2.29-2.17,3.62-6.51h.36l-.36-2.54v-.36c0-1.38.84-2.47,2.53-3.25a2.8,2.8,0,0,0,1.09.36v-.36q-.74-.45-3.62-11.58a28.55,28.55,0,0,0-2.89-6.51v-.73C812.77,15.43,814,14.58,815.3,14.58Zm-13.74,81a128.47,128.47,0,0,1-8.32,16.64,2.76,2.76,0,0,1,.36,1.08q-1.1,0-5.79,11.22-1.35,2.07-6.15,13.74V139H782q1.82,0,9.05-18.09a226.07,226.07,0,0,0,9.76-22.43c.18,0,.67-.72,1.45-2.17v-.72Zm2.17-4a14.66,14.66,0,0,0-1.45,3.25c.3,0,.9-1,1.81-2.89v-.36ZM803,132.15v1.45c2.17-.48,3.26-1,3.26-1.45v-.36Zm12.67-25.68c0,.36-.61,1.32-1.81,2.89-1.27,2.11-2.11,3.2-2.54,3.26l.37.72-5.79,11.94v.36a.32.32,0,0,1,.36.36c-.6.12-1.21,1-1.81,2.54h.36l1.81-.37v.37c1.39,0,2.71-2.42,4-7.24L816,106.83v-.36Zm-9.41,35.45-.36.72h.36a62.58,62.58,0,0,1,6.51-.36v-.36Zm6.15-11.21h-.36a1.93,1.93,0,0,0-2.17,1.44h.36q11-1.08,13-1.08v-.36a21.44,21.44,0,0,1-4-.37A63.25,63.25,0,0,1,812.41,130.71Zm11.21-34.37a2.69,2.69,0,0,1-.72,1.45v1.08c-.18,0-.54.6-1.09,1.81l.37.72a.65.65,0,0,1-.73.73.32.32,0,0,0-.36-.36l-.36,1.44a2.85,2.85,0,0,1,.36,1.09c-.72,0-1.45,1.44-2.17,4.34a137.28,137.28,0,0,0-7.23,19.17h.36a45.21,45.21,0,0,1,5.06-.36h1.09a28.55,28.55,0,0,1,4,.36l.72-.36c4,.72,6,1.21,6.15,1.45l.72-.36a.32.32,0,0,1,.36.36l5.43-.73v-.72l-7.23-18.81L824,96.7v-.36Zm1.09,51h-1.45q-2.18,0-8.32.72v.72h.36c1.39,0,4.4.13,9.05.37l2.17-.37a.32.32,0,0,0,.36.37,2.8,2.8,0,0,1,.36-1.09c-.48,0-.72-.36-.72-1.09l-.73.37a.32.32,0,0,1-.36-.37ZM828,76.44a3.27,3.27,0,0,1-1.08,1.81v.36c.06.49.3.73.72.73l.73-2.54v-.36Zm1.81,4.71a5.25,5.25,0,0,1-1.08,2.53v2.53q2.53,5,2.53,5.79v1.44q1.17,0,4.7,8,0,.18,2.9,5.07a.32.32,0,0,0-.36.36c1,.12,1.44.48,1.44,1.09h.36v-.37a3.91,3.91,0,0,1-.72-1.81h1.09a10.35,10.35,0,0,0,.36,1.45h.72v-.72a28.29,28.29,0,0,1-3.25-6.88,2.76,2.76,0,0,0,.36-1.08c-2.17-2.77-3.26-5.07-3.26-6.87l.36-.73c-1.32,0-2.29-1.93-2.89-5.79-1.21-1.8-1.81-3.13-1.81-4Zm1.09,66.2c.3,1.2.66,1.81,1.08,1.81H833a18.17,18.17,0,0,0,3.25-.37.33.33,0,0,1,.37.37l1.81-.37h1.44v-.72L832.31,147A2.82,2.82,0,0,1,830.86,147.35Zm1.08,30.75v3.61h.37V178.1Zm6.88-62.95v.36q3.43,10.77,4.7,12.3h1.81v-.72l-6.15-11.94Zm1.81-6.87v.36q.09.72.72.72v-1.08Zm.72,2.53v.36a2.8,2.8,0,0,1,.36,1.09h1.09v-.73a.64.64,0,0,0-.73-.72Zm1.81,3.62v1.08h.72v-.36A.64.64,0,0,0,843.16,114.43Zm1.08,2.17a2.82,2.82,0,0,1,.37,1.08H845V116.6Zm1.81,2.89v.36a4,4,0,0,1,.73,1.81h.36v-1.08a2.85,2.85,0,0,1-.36-1.09Zm3.62,13h-1.45a.32.32,0,0,1-.36-.36,3.72,3.72,0,0,1-1.81.36v.73q6.15,0,6.15,3.25a1.6,1.6,0,0,1-1.81,1.81V139a6.51,6.51,0,0,1,4.34,1.44l-.36-.72v-.36l.36-.73c-.78,0-1.75-2.29-2.89-6.87A4.22,4.22,0,0,1,849.67,132.51Zm12.3,4-.72,1.09v.36a34.13,34.13,0,0,0,3.61,5.43l-.36.72L866,145.9a.32.32,0,0,0-.36.36l.72.36v-.72c-.54-2.65-1.27-4-2.17-4v-.36a.32.32,0,0,1,.36-.36C863.54,138.06,862.69,136.49,862,136.49Z" fill="#fbae17"/><path d="M897.15,33.57Q902,34,920,49.13q23.43,26,32.83,32.2,0,.63,9.59,7.32a32.77,32.77,0,0,0,5,3.26v1.35c0,.25-.54.79-1.63,1.63h-.63q-4.06-.36-18.63-12.57-.63.09-.63.63c1.2,0,2.41,1.45,3.61,4.34q4.71,6,6.7,7.33a2.82,2.82,0,0,0,.27,1c-.24,1.08-.58,1.62-1,1.62.6,1.45,1.18,2.23,1.72,2.35,0-.42.75-1.08,2.26-2,2.23.37,3.35,1.24,3.35,2.63q-5,4-5,4.34c.91.42,1.36,1,1.36,1.63h.63q3.7-2.62,5.34-2.63h.27c2,.79,3,2,3,3.62a18.68,18.68,0,0,0-4.62,4.61q-1.44,0-8.32,7h-.27v.72a43.59,43.59,0,0,0,5.25-3h1l1,.63a64.73,64.73,0,0,1,11.3-7.33,35.21,35.21,0,0,1,7-4.25c.25,0,.37.09.37.27l2-1q1.62,0,1.62.72a19.09,19.09,0,0,1-8,6.61Q962.18,122.48,944.27,136q-5.34,3-5.34,5.34c0,1.57-.12,2.44-.36,2.62a2.21,2.21,0,0,1,.36,1h-.36a.32.32,0,0,0,.36.36q-1.08,10.48-1.63,12.3l.28,1.26q-1.19,9.32-1.63,9.32a.32.32,0,0,0,.36.36q0,3-1.36,14.92v.27a2.88,2.88,0,0,0-1,2.35h-.63l-.37-4v-1a.32.32,0,0,1,.37-.36l-.37-.63v-5.61q0-5.25.64-19.27H934a.32.32,0,0,0-.36-.36q.36-.54.72-9.94h.27l-.27-.64a2.73,2.73,0,0,0,.27-1h-.27A179.13,179.13,0,0,0,920,154.31q-.72,0-3.71,3-1.8,1.19-20.89,16.55a66.5,66.5,0,0,1-6.6,2.36h-.63c-2.24-.55-3.35-1.87-3.35-4l5.61-4.34h-.64q-6.42,5-8,5h-2c-.18,0-1-1-2.36-3v-1q7.43-6,9-7v-1.27q-.63,0-9,7a3.6,3.6,0,0,0-1.62.28l-2-3v-.63c4-2.84,6-4.82,6-6,0-1.57.12-2.44.36-2.62a.33.33,0,0,0-.36-.37l.36-1.62v-1q0-4.06.63-11.66c0-.19-.12-.28-.36-.28l.36-1.71v-4.25l.36-2a.33.33,0,0,0-.36-.37l.36-2.35v-2q0-.36.27-.36a.24.24,0,0,0-.27-.27q.54-8.42,1-8.68l-.36-.64v-3.34l.36-2q0-.27-.36-.27.36-2.44.63-16.28h.36a.32.32,0,0,0-.36-.36,15.28,15.28,0,0,0,.36-2.63c0-1.56.12-4.76.36-9.58h.27l-.27-.73c.18-2.17.39-3.25.64-3.25l-.37-.73V78a2.25,2.25,0,0,0,.73-1.27,2.22,2.22,0,0,0-.36-1,12.46,12.46,0,0,1,.63-2.71l-.27-.64.63-4.34-.36-.63a75.55,75.55,0,0,1,1.72-9.32l-.37-.63a5.36,5.36,0,0,0,.64-2c-.24,0-1.33-1.11-3.26-3.35a9.37,9.37,0,0,1,3.62-3.25h1.36q4.51,0,10.22,3.62v-.37q-6.61-7.23-7.24-7.23c-.66-.48-1-.93-1-1.36q.27-1.35,1.26-1.35v-.64q-3.62-3.89-3.62-4.34v-.27a6.47,6.47,0,0,1,5-2.71,5,5,0,0,0,2,.72Zm-6,26.87-.72,4,1,.64a.74.74,0,0,1,.73-.64,6,6,0,0,0,1,2.36c-.48,3.19-.72,4.85-.72,5V72h.36q.9-5,1.63-5l-.27-1.27.27-2.35Q892.09,60.71,891.18,60.44Zm3.62,22.88c-.91,5.72-1.57,8.59-2,8.59l.36.72v2.62c0,.43-.24.64-.72.64l.36.72v1.27l-.36,2,.36.72a48.23,48.23,0,0,1-1.36,8.59,12.71,12.71,0,0,1,.73,3,2.29,2.29,0,0,1-1,.36,13.22,13.22,0,0,1,1,3c-.49.06-.73.27-.73.64.48.06.73.27.73.63l-.37.72h.64v-.36q0-2.17,1.35-15.92a2.22,2.22,0,0,1-.36-1,11.87,11.87,0,0,0,1.36-3.62q-.63,0-.63-.72v-.27h.63v-.73h-.63l1-9.58-.36-.64.36-.72v-.63Zm-3.35,36.8v2c0,.25-.09.37-.27.37a2.73,2.73,0,0,1,.27,1h.36c0-.3.12-1.42.37-3.35Zm-.27,5.34v1.63h.27v-1.63Zm.63-7.69v2h.37l.27-1.63Zm2.63,13.3-1,10.31.36.63c-.24,1.15-.45,1.72-.63,1.72l.27.63a22.34,22.34,0,0,1-.63,3.62q1.53,0,2-13.2v-.73l-.36-.63.36-1.36v-1Zm.36-10.31a2.83,2.83,0,0,1,.36,1h.63a2.22,2.22,0,0,1-.36-1Zm0,4v1.72h.36v-1.72Zm1.63,37.53v.36h.36a32.51,32.51,0,0,0,6.6-6h-.27Q898.59,160.19,896.43,162.27ZM904.11,81v.37a27.93,27.93,0,0,1-1,6.33q.63.09.63.63a3.77,3.77,0,0,0-.63,1.63q.27,0,.27.36c-.36,0-.69.66-1,2h.36a2.22,2.22,0,0,0-.36,1l.36,1.63q-1,0-1,7.33a9.05,9.05,0,0,0,.36,1.35q-.72,0-1.71,8.6.72.09.72.63c-.36,0-.69.66-1,2l.28.72q-.55,7.24-1,7.24a.32.32,0,0,0,.36.36l-.36,1.63v2.71l-.27.63.63.36c-.24,2.24-.57,3.35-1,3.35q0,.27.36.27l-.36,2.35v.37l.36,1.62c-.48.06-.72.27-.72.64a.32.32,0,0,0,.36.36l-.36,2.35V143q3-1.19,3-5a31,31,0,0,1,.72-5l-.36-.64.64-4.34-.28-.63q.82,0,1.27-15.65.36,0,.36-.27a.32.32,0,0,0-.36-.36,39.26,39.26,0,0,0,.72-7.32,2.79,2.79,0,0,0-.36-1l.36-2V97.6l.64-1a4,4,0,0,1-.64-2V93.9a.24.24,0,0,1,.27-.27c0-.24-.09-.37-.27-.37l.27-1.62-.27-.73c.18-1.32.39-2,.64-2l-.37-.63V86.66l.37-1.72a.56.56,0,0,1-.64-.63v-.63h.64V81Zm-3.7-11.21c0,1.09-.22,1.63-.64,1.63a.32.32,0,0,0,.36.36q-.54,5.61-1,5.61a2.73,2.73,0,0,1,.27,1l-.27,1.36a.24.24,0,0,0,.27.27l-.27,2.35v2.35q0,.27-.36.27l.36.73-.36,3.25a15.91,15.91,0,0,1,.36,3,.32.32,0,0,0-.36.36l.63.36,3-20.89A3.24,3.24,0,0,0,900.41,69.75ZM899.14,92.9l-.36,1.72h.63V92.9Zm3.26-31.11v.27a3.07,3.07,0,0,1,1,1.72h.72v-.36c-.42-1-.87-1.57-1.35-1.63ZM921,141.38l-16.65,14.29v.27a124.69,124.69,0,0,0,11.94-10.22c2.11-1.63,3.89-2.95,5.34-4v-.36Zm-12.3-64V78.7q0,.27.36.27l-.36.73v1c0,2.66-.34,4-1,4v.64h.63v1.62a3,3,0,0,1-.27,1.36q0,.36.27.36l-.27,2.26v4a.32.32,0,0,1-.36.36.32.32,0,0,0,.36.37l-.36,1.62v.36l.36,1.63h-.36a.32.32,0,0,0,.36.36c-.18,1.33-.42,2-.72,2l.36.64v1.63q0,.72-.63.72l.27.63q0,.36-.27.36a25.88,25.88,0,0,1,.63,4.25c-.42.13-.63.37-.63.73v.27q.63,0,.63.36l-.63,1.36.27.63-.27.63c0,.25.09.37.27.37a26.51,26.51,0,0,1-.63,4.34l.36,2v3.25a3.65,3.65,0,0,1-.72,2c.48.12.72.36.72.73-.54,1.08-.88,1.62-1,1.62l.28.64v1a21.59,21.59,0,0,1-.28,3.08,2.79,2.79,0,0,1,.28,1c-.31,0-.64.33-1,1l.72.27-.36,1.72V137c1.21-1.33,2.32-2,3.35-2v.36h.27v-.63c-.18,0-.27-.12-.27-.37a45.89,45.89,0,0,1,6.6-5.33q0,.63.36.63c.85-.3,1.27-.63,1.27-1v-.28a3,3,0,0,1-1,.64h-.27v-.36a143.1,143.1,0,0,1,13.3-10.59v.64a2.09,2.09,0,0,1,1.26-.64v-.36h-.27a2.83,2.83,0,0,1-1,.36,2.76,2.76,0,0,1,2.26-1.62l-.27.63H932v-.36l-.36-.63q12.3-10,12.93-10,4.15-2.36,5.34-2.35c-.91-.85-1.36-1.51-1.36-2h-.27c0,.9-.67,1.35-2,1.35s-4.52-2.32-10-7c-1.33,1.14-2,1.81-2,2q.36,0,4.25,5.61c-1.27,1.8-2.59,2.71-4,2.71q-3.44-5.79-13.29-15.92l-.27,4v2.26a2.42,2.42,0,0,1-.37,1.36.32.32,0,0,0,.37.36c-.31,3.07-.64,4.61-1,4.61l.27.64v.36a38.21,38.21,0,0,1-3.25,8c-.49,0-.73-.21-.73-.64a.32.32,0,0,1,.36-.36,2.22,2.22,0,0,0-.36-1q.36-8.15.36-12.94v-.36a2.15,2.15,0,0,1,.37-1.26,2.2,2.2,0,0,1-.37-1h.37a.33.33,0,0,0-.37-.36l.37-1.63v-7Q917.05,85,908.73,77.35Zm-2.35-33.47,3.7,4-.36.64q2.17,0,8,7.59,6.24,7.24,7.6,9.32,6.51,6,6.69,6.6c.42,0,1.29.67,2.62,2q-13-17.08-22.25-25.5l-5.6-4.62Zm3,25.87V70q0,.81,7.32,9V78.7a98,98,0,0,1-7-9Zm1-12.66v.36q0,1.27,5.7,8.59c1.33,1.63,2,2.63,2,3h1c1,0,1.83.66,2.62,2H922v2.71c3.32,4.1,5,6.3,5,6.6s1.84,2.29,5.34,5.61l8.95,8.68V93.9l-2.71-5-.63.36h-.64q-.45,0-4.7-7A95.9,95.9,0,0,1,919,66.77Q911.08,57.08,910.35,57.09ZM919,138v.36h.63a2.22,2.22,0,0,1,.36-1h-.36Q919,137.49,919,138Zm12.3-5q-8.87,7.68-9.68,7.68V141H922q4.43-2.18,9.59-8Zm2.26-2.35a2.45,2.45,0,0,1-.64,1.35h.37l.63-1v-.36Zm19.89-10.59h.36a.56.56,0,0,0,.64-.63h-.27C953.73,119.55,953.49,119.76,953.49,120.12Z" fill="#fbae17"/></g></g></svg>