<svg xmlns="http://www.w3.org/2000/svg" viewBox="0 0 219.78 43.88"><title>logo</title><g id="Layer_2" data-name="Layer 2"><g id="Layer_1-2" data-name="Layer 1"><path d="M209.33,0l.06.18V.26s-.73.61-2.16,1.68l0,.09a2.35,2.35,0,0,1,1.05-.44l.06.17,0,.18a11,11,0,0,1-1.47,1.14l.64.18A15.42,15.42,0,0,1,210.08,2l.06.17,0,.09a6.34,6.34,0,0,1-.91.71v.08a23.73,23.73,0,0,1,2.78-1q.18,0,.15.18v.09A37.31,37.31,0,0,1,208.73,4c.54.36,2.3,1.27,5.3,2.73a5.34,5.34,0,0,1,2.09-1.32s0,.08.07.08c1.24-.91,2.35-1.67,3.34-2.29h.09c.13,0,.18.08.16.18l0,.09a66.54,66.54,0,0,0-4.47,5.11c.37.06.55.14.52.26l-.2.53v.09a19,19,0,0,0,2.72-3.09c0-.17.19-.32.47-.44h.09c.13,0,.18.08.16.18a20.66,20.66,0,0,0-1.2,2.2c-.67.62-1.18,1.12-1.55,1.5l0,.09c.84.31,1.24.51,1.22.62v.08a.21.21,0,0,1-.23.18h-.1a6.65,6.65,0,0,1-1.33-.53l1.94,2.29,0,.09a.2.2,0,0,1-.22.18h-.1L215,10.93l-.13.17c.12,0,.18.08.16.18l0,.09a.21.21,0,0,1-.23.17h-.48a66.37,66.37,0,0,0-4.69,5.29l-5,7.58a10.06,10.06,0,0,0-1.76,2.11c-.18.18-.29.27-.34.27h-.1q-.19,0-.15-.18a50.82,50.82,0,0,1,2.91-5l-4.81,4.93-.44.27-.46-.09a8.09,8.09,0,0,1-1.11,1.23h-.19c-.13,0-.17-.09-.14-.26a16.4,16.4,0,0,0,1.14-1.41h-.09a.9.9,0,0,1-.4.09c0-.12,0-.18-.16-.18-1.28,1.53-1.94,2.29-2,2.29h-.09c-.13,0-.18-.09-.14-.26a8,8,0,0,1,1.77-2.65,16.29,16.29,0,0,0,1.4-2.2v-.53l.47-.44h-.1a33.3,33.3,0,0,1-3.51,2.73h-.1c-.13,0-.18-.06-.16-.17l0-.18c1.45-1.17,2.22-2,2.31-2.47a83.5,83.5,0,0,0,6.05-5.81q3.24-4.36,4.35-5l2.22-2a1,1,0,0,0-.87-.44.19.19,0,0,1-.22.17h-.1a36.72,36.72,0,0,1-5.46-2.9,63.48,63.48,0,0,0-6.53,4c-1.34,1.09-2.72,2.26-4.15,3.53h-.1c-.13,0-.18-.06-.16-.18l0-.09A42.14,42.14,0,0,1,197.58,10V9.87h-.09l-.32.18h-.1c-.14-.12-.22-.18-.25-.18a25.17,25.17,0,0,0-3.38,2h-.28l-.06-.18v-.09l.7-.62h-.19a9.76,9.76,0,0,0-1.4.8H192c-.13,0-.19-.06-.16-.18l0-.09,1.49-1.23,0-.09c-.26,0-.38-.06-.35-.17V10a22,22,0,0,1,4.74-3.09,46.54,46.54,0,0,0,4.13-2.46l.36-.36c-.31,0-.57-.26-.8-.79a.58.58,0,0,1-.34-.7l.21-.09a6.25,6.25,0,0,1,1.83.88l.13-.18,0-.09a7,7,0,0,1-1.76-1.23V1.76a1.17,1.17,0,0,0,.25-.26c-.31-.05-.45-.13-.43-.27l0-.08a.22.22,0,0,1,.23-.18A6.5,6.5,0,0,1,204.43,2h.09c1-.63,1.84-1.13,2.5-1.5h.1c.13,0,.17.09.14.26a.75.75,0,0,0-.15.27A6.54,6.54,0,0,1,209.33,0ZM197.86,29.7H198q3.74,6,4.65,7.93l0,.17c0,.12-.13.18-.33.18-1.35-.49-2.13-1.07-2.33-1.76h-.19a3.23,3.23,0,0,0,.42.79l0,.09c-.21.35-.41.53-.58.53h-.29c-.05.23-.14.35-.26.35l.2.44,0,.18a.21.21,0,0,1-.23.17h-.09l-.89-1.32a.91.91,0,0,1-.3.09c-.1,0-.31-.21-.65-.62h-.09l.2.44,0,.09c0,.07-.26.19-.74.35h-.1a3.83,3.83,0,0,1-1.41-3c-.89-1-1.3-1.66-1.24-1.94l.21-.09H194c.23.12.33.26.29.44h.19l.07-.35-.13-.27.2-.53a1.12,1.12,0,0,1-.31-.88.88.88,0,0,1,.31-.09c.3.11.43.25.39.45h.1q0-.27.24-.27c.29,0,.77.32,1.43,1a2.08,2.08,0,0,0,.17-.35,4.4,4.4,0,0,0-1.09-1.24l.07-.35a.21.21,0,0,1,.22-.17h.19c.51.52.9.79,1.19.79-.05.22.4.84,1.35,1.85h.1a27.92,27.92,0,0,0-1.37-2.73l0-.18A.22.22,0,0,1,197.86,29.7Zm-3.69-19.48h.1a4,4,0,0,0,1.47-1.14h-.19Zm1.07,23,0,.18h.09l0-.18Zm.1.44v.09c.2.82.37,1.26.5,1.32l0-.18C195.69,34.16,195.52,33.75,195.34,33.66Zm1.36-.09v.09h.19l0-.09Zm.85,1.5a.66.66,0,0,0,.67.53c0-.09-.14-.27-.47-.53Zm.38-25.91H198c2.21-1.21,4.16-2.36,5.86-3.43l0-.09q-.19,0-.18-.09-1.47.8-4.37,2.73A4.3,4.3,0,0,0,197.93,9.16Zm.28,27,0,.09c0,.08.06.17.23.26h.1l0-.09a.6.6,0,0,1,0-.26ZM199,22.38h.1c.07,0,.26-.15.56-.44l0-.18C199.66,21.76,199.43,22,199,22.38Zm2.28,14-.07.35c.19.3.32.45.4.45l0-.18C201.53,36.6,201.41,36.39,201.31,36.39Zm1-15.86,0,.09h.2v-.09ZM203,23l0,.09h.19l0-.09Zm.24-.27,0,.09h.19l0-.09Zm.23-.17h.09a15.82,15.82,0,0,0,2.56-2.73A16.3,16.3,0,0,0,203.5,22.56Zm.87-17.36-.13.18.17.08.13-.17Zm-.12,18.86c.22,0,.91-1,2.05-3.09.2-.19,1-1.36,2.43-3.52h-.1q-.57.21-3,4.4A13.94,13.94,0,0,0,204.25,24.06Zm1-18.33c0,.12-.13.17-.32.17l0,.09a33.23,33.23,0,0,0,4.41,2.38A29.85,29.85,0,0,0,205.22,5.73Zm1.5,9.78a16.29,16.29,0,0,0-1.53,1.94,8.21,8.21,0,0,0,1.72-1.94Zm1.75-9.25,0,.08a13.08,13.08,0,0,0,3.44,2.47l.26-.35Zm1.95,8.46A7.07,7.07,0,0,0,209,16.39a7.19,7.19,0,0,0,1.58-1.67ZM213.27,11h.19l0-.17C213.36,10.85,213.29,10.91,213.27,11Zm.75-.88-.13.18.25.18.13-.18,0-.09A.6.6,0,0,1,214,10.13Zm1.62-3.79h.19l0-.17A.21.21,0,0,0,215.64,6.34Zm.29.45,0,.17h.19a1.12,1.12,0,0,1,.28-.44h-.1C216.18,6.52,216.06,6.61,215.93,6.79Z" fill="#fbae17"/><path d="M8.83,8.17a.06.06,0,0,1,.07.07l1-.07a6.62,6.62,0,0,1,3.6.74.82.82,0,0,1,.6.36l-.07.14c.14,0,.21.06.21.16s-.14.3-.21.3a3.79,3.79,0,0,0-.6-.16h-.07a.82.82,0,0,0-.36.07c-.49,0-.74-.09-.74-.14s-.08,0-.08.07l-.88-.14-.14.07a.73.73,0,0,0-.3-.07c0,.1.06.14.14.14h.3a2.47,2.47,0,0,1,1.91.89l-.07.14a1.47,1.47,0,0,0,.89.44.9.9,0,0,1,.21.53v.14q0,.17-.51.36l-.16-.07-.14.07-.14-.07a.59.59,0,0,1-.29.07s-.07,0-.07-.07a4.92,4.92,0,0,1-1.63.23V12.3a.49.49,0,0,1-.23.07v.3a10,10,0,0,0,.16,1.83l-.07.14.07.44-.16.23v.07c.11,0,.16,0,.16.07s0,.42.07,1l-.07.16.14.43-.07.14a.66.66,0,0,1,.07.3h-.07a.49.49,0,0,1,.07.23l-.07.14c0,.06,0,.08.07.08l-.07.28a5.77,5.77,0,0,1,.14,1,.54.54,0,0,1-.07.29.53.53,0,0,1,.07.23.14.14,0,0,0,0,.28,1.05,1.05,0,0,1-.28.67c.09,0,.14.07.14.15a.53.53,0,0,0-.07.28h.14l-.07.16a.14.14,0,0,1,.14.14h-.14v.73l.14.23-.14.23a.49.49,0,0,0,.23.07v.14a.29.29,0,0,0-.23.16.06.06,0,0,0,.07.07c0,.09,0,.14-.07.14l.07.73v.37a.54.54,0,0,1-.07.29.66.66,0,0,1,.07.3c0,.11,0,.38-.07.81,0,.1,0,.15.07.15l-.07.74v1.24a.56.56,0,0,1-.07.3c.07.2.14.29.21.29h.16a.66.66,0,0,0,.3-.07l.14.07.14-.07a1.87,1.87,0,0,1,1.18,1v.21c0,.07-.07.14-.22.22H13a9,9,0,0,0-1.77.14V30h.07c.22,0,.76,0,1.61-.09a2,2,0,0,1,1.1.83V31c0,.05,0,.08-.07.08l.07.14c0,.1-.19.17-.58.23s-.66-.11-.66-.16l-.52.07H11.1v.6a.82.82,0,0,0,.3.07h.44c.52,0,1.85-.1,4-.3,0,.1.1.16.3.16V32H16v.07H16l.3-.07a4.92,4.92,0,0,0,.67.07v.15c-.25,0-.37.05-.37.14l-.37-.07h-.14c0,.2-.3.3-.89.3,0,0,0,.07-.07.07v-.14h-.07v.14c.05,0,.07,0,.07.07h-.3v-.07l-.73.3a.14.14,0,0,0-.16-.16h-.14c0,.15-.05.23-.14.23h-.16l-.21-.14a2.29,2.29,0,0,1-.82.21.12.12,0,0,0-.14-.14c0,.11-.2.19-.59.23,0-.06,0-.09-.07-.09s0,.16-.14.16-.09,0-.09-.07l-.14.07h-.07l-.16-.07-.14.21c0,.15,0,.22.07.22,0,.49-.09.74-.14.74a.07.07,0,0,0,.07.07l-.07.36V36l-.07.45a.46.46,0,0,1,.07.21h-.07s.07.27.07.82a.29.29,0,0,0-.22.14c-.29,0-.54-.24-.74-.73h.14v-.3H10v.16H9.93c-.07,0-.14-.08-.23-.23v-.37a.48.48,0,0,1,.09-.29.51.51,0,0,1-.09-.3v-.3c0-.09.08-.14.16-.14L9.79,35c0-.32.1-.5.28-.52L10,34l-.14.07V34c0-.1.07-.16.21-.16V33.7c-.18,0-.28-.12-.28-.36H9.27a.06.06,0,0,1-.07-.07l-.14.07a3.15,3.15,0,0,1-1.12-.14l-.14.07-1-.07-.14.07c-2-.2-3-.55-3.17-1-.06,0-.25-.22-.59-.66V31.5c0-.07.07-.15.23-.23h.36a.06.06,0,0,1,.07.07,5.81,5.81,0,0,1,1.26-.14v-.07a1.68,1.68,0,0,1-1.49-1c-.13,0-.2-.05-.2-.16v-.21c0-.1.09-.15.29-.15v-.37a1.41,1.41,0,0,1-.45-.14A.42.42,0,0,0,3,28.84H3.1c1.62,0,2.43-.12,2.43-.37.24-1.95.41-3.72.5-5.29A1.16,1.16,0,0,1,6,22.67c0-.25,0-.37.14-.37L6,22.14v-.36a.73.73,0,0,1,.07-.3A.61.61,0,0,1,6,21.2v-.3a.65.65,0,0,1,.07-.29.73.73,0,0,1-.07-.3H6.1A2.46,2.46,0,0,1,6,19.5H6L6,19.35V18a3.53,3.53,0,0,0-.07-.66L6,17.14l-.07-.29L6,16.34l-.07-.14L6,15.74v-.07l-.07-.36H6a.71.71,0,0,1-.07-.23A5,5,0,0,1,6,14.5l-.07-.29A4,4,0,0,0,6,13.54L6,13.4c0-.06,0-.09.07-.09L6,13V12.3H4.86c-.1,0-.16.06-.16.14v1.17c0,.05,0,.07-.07.07l.07.16c0,.83-.08,1.24-.14,1.24a.56.56,0,0,1,.07.23c-.09.84-.14,1.4-.14,1.69v.14c0,.05,0,.07-.08.07l.08.16c0,.05,0,.07-.08.07s0,.07.08.07l-.15.89c0,.05,0,.07.07.07l-.07.37v.23H4.2v-.3H4.13a1.54,1.54,0,0,1-.3,1s.07,0,.07.07l-.14.07H3.67a.73.73,0,0,0-.21-.44s.07,0,.07-.07l-.14-.08a3.77,3.77,0,0,1,.14-.74.61.61,0,0,1-.07-.28h.07l-.07-.16a.07.07,0,0,1,.07-.07L3.46,18c0-1.94.07-3,.07-3.25l.07-.28c0-.06,0-.08-.07-.08l.07-.51V12.37a20.37,20.37,0,0,0-2.34.44,1.19,1.19,0,0,1-.3-.74c.05,0,.07,0,.07-.07-.49,0-.73-.2-.73-.59l.14-.3c0-.07-.15-.19-.44-.37v-.07l.3.07a4.44,4.44,0,0,0,1.24-.14c.06,0,.09,0,.09.07a9.81,9.81,0,0,1,1.67-.14c.06,0,.09,0,.09.07l.14-.07a.53.53,0,0,0,.23.07c0-.1.06-.15.14-.15H4c1.56-.14,2.45-.21,2.66-.21v-.09l-.89-.07H5c-.51,0-1.74.08-3.67.23q-1,0-1-.81l.14-.16L.44,9.21l.07-.16H.14V8.91L1,9l.37-.07V9a.49.49,0,0,1,.23-.07,20.62,20.62,0,0,0,2.93-.3v.07c1.36-.24,2.11-.37,2.28-.37L7,8.4l.07-.16c.1,0,.14,0,.14.07l.9-.07h.43A.56.56,0,0,0,8.83,8.17ZM7.2,21.64l.16.07c-.05.2-.1.29-.16.29s0,.07.09.07a4,4,0,0,1-.16.74L7.2,23a1.15,1.15,0,0,0-.14.5l.07.16c0,.14-.09.21-.14.21l.07.16L7,24.28s0,.12.07.29c-.07.6-.16.9-.29.9l.07.36v.37a8.25,8.25,0,0,0-.21,2.2v.23c.24,0,.36-.05.36-.16a10.72,10.72,0,0,1,.14-1.24.07.07,0,0,1-.07-.08A.12.12,0,0,0,7.2,27a.6.6,0,0,0-.07-.3l.16-.37-.16-.07.07-.14a.79.79,0,0,1-.07-.23c.11,0,.16,0,.16-.14a.52.52,0,0,1-.09-.29c.13,0,.21-.1.23-.3-.09,0-.14-.05-.14-.16v-.28a1.25,1.25,0,0,1,.14-.59L7.36,24c0-.25.09-.37.14-.37a.56.56,0,0,1-.07-.23l.07-.52a.53.53,0,0,1-.07-.28c.09,0,.14-.05.14-.16l-.14-.07.07-.51v-.15l-.07-.37C7.36,21.34,7.29,21.44,7.2,21.64ZM7,13.1v.74c0,.09,0,.14-.15.14a.52.52,0,0,1,.08.3h.14v-.14c.2-1,.3-1.58.3-1.63V12.3C7.12,12.3,7,12.57,7,13.1Zm-.07,1.25c0,.1,0,.15-.08.15l.08.14a.48.48,0,0,1-.08.3V15h.08L7,14.64v-.29Zm.44,6.33a.83.83,0,0,1-.07.43h.14v-.43Zm0-1.11V20h.07v-.44Zm.51,12.37V32h.3v-.07Zm1.92-.37H9.5a.86.86,0,0,1-.16.51h.52c0-.25,0-.37.07-.37a.48.48,0,0,0,.23.09v-.3Zm.88-5.67v.37h.07V25.9Z" fill="#fbae17"/><path d="M28.1,7V7h.21l-.07-.14a1.63,1.63,0,0,1,.28.07L29,6.9l1.33.28v.07A20.2,20.2,0,0,1,26.7,8.37v.14h.07l.35-.07.07.14q-.11,0-.21.21h.07a.46.46,0,0,1,.21-.07v.07l-.07.14c.09,0,.14.05.14.13L27.47,9h.07s.11.06.21.21L28.24,9c0,.05.21.17.63.34v.14a3.18,3.18,0,0,0-.63.35c.05.14.09.21.14.21l-.07.14v.07a12.74,12.74,0,0,0,2.1-.77,8.44,8.44,0,0,1,2.17-.83v.14l-.28.06v.08l.35-.08h.21L32.79,9s.11.15.35.34a9.87,9.87,0,0,0-2.45,1.33c0,.05-.07.07-.21.07s.06.14.14.14a.61.61,0,0,1,.28-.07c-.14.12-.21.21-.21.28h-.07L30.48,11c0,.16-.38.41-1.05.77l-.14-.07c0,.1-.23.33-.7.7h-.42l-.28.56.07.14c0,.05,0,.07-.07.07l.07.42a3.69,3.69,0,0,1-.14.7,3.53,3.53,0,0,1,.07.7c0,.05,0,.07-.07.07l.07.14v.14a.93.93,0,0,1-.14.21l.07.14a.46.46,0,0,0-.07.21l.07.14-.07.14a.46.46,0,0,0,.07.21c-.05.51-.09.77-.14.77s0,.07.07.07c-.08.74-.17,1.12-.28,1.12l-.07-.14-.14.07h-.07a.68.68,0,0,0-.07-.35c0-.05,0-.07.07-.07l-.07-.35v-.14a.51.51,0,0,1,.07-.28.8.8,0,0,1-.14-.35l.07-.35a.46.46,0,0,1-.07-.21c0-.05,0-.07.07-.07l-.07-.35v-.35s0-.07.07-.07,0-.07-.07-.07l.07-.35v-.28c0-.33,0-.84.07-1.54-.33.23-1.14.7-2.45,1.4l-.14-.07-.84.7v.21a4.63,4.63,0,0,1,.77.91c.75.88,1.84,2.28,3.29,4.2a26.16,26.16,0,0,0,3.92,3.63,8.82,8.82,0,0,1,1.12.91v.28l-.14-.07v.07a.07.07,0,0,1,.07.07l-.14.07s-.07,0-.07-.07l-.14.07c-.33,0-.94-.39-1.82-1.19-.19,0-.28,0-.28-.14l-.14.07h-.35v.35q-.63.54-.63.63a.82.82,0,0,1,.21.49v.07c0,.1-.09.14-.28.14v.21a1,1,0,0,1,.63-.21h.07a1.7,1.7,0,0,1,.63.63v.28a6.92,6.92,0,0,0-1.19.84c1.11.64,1.69,1.08,1.75,1.33a1.17,1.17,0,0,1-.42.14s-.71-.3-2-.91a3.77,3.77,0,0,1-1.19.7,6.72,6.72,0,0,1-1.47.91q0,.09-.84.63c-2.28,1.32-3.42,2.13-3.42,2.45l.06.14c0,.14-.09.21-.13.21a.06.06,0,0,0,.07.07l-.15,1.11h.08a3.72,3.72,0,0,0-.14,1.26V36a.61.61,0,0,1-.07.28l.07.14a5.85,5.85,0,0,1-.14,1s0,.07.07.07c-.05.75-.14,1.12-.28,1.12v.35a.13.13,0,0,1-.14.14l-.14-.21a.53.53,0,0,1,.07-.28,1.56,1.56,0,0,0-.21-.56c0-1.48.14-3.11.28-4.89v-.07H20.9c0,.14,0,.21-.14.21a.55.55,0,0,0-.21-.07l-.07.14h.14v.14h-.07l-.14-.07c0,.1-.4.36-1.19.76h-.35c-.52-.39-.77-.65-.77-.76a3,3,0,0,0-.91.69c-.51.35-.77.56-.77.63l-.35.07h-.21c-.51-.3-.77-.63-.77-1,1-.56,1.9-1.1,2.66-1.61v-.07h-.21a10.38,10.38,0,0,1-2.8,1.12c-.51-.4-.77-.63-.77-.7v-.28l1.61-1.54h-.07a4.6,4.6,0,0,1-.63.07l-.7-.77V30a7.32,7.32,0,0,1,1.68-.77,27.06,27.06,0,0,1,3-1.75,11.51,11.51,0,0,1,2.86-1.82l1.68-1.19a47.74,47.74,0,0,1-3.7-3.63l-3.57-3.36c-.37-.17-.56-.38-.56-.63a4.23,4.23,0,0,0-1.05.56,1.34,1.34,0,0,1-.77-.63v-.07a9.49,9.49,0,0,1,2.45-1.47v-.07A2.24,2.24,0,0,1,15.72,14a2.07,2.07,0,0,1,.63-.28v-.63a17.85,17.85,0,0,1,1.82-1.33l.14.07h.07c0-.34.44-.71,1.33-1.12,0-.18.74-.67,2.23-1.47q3.31-1.81,4.41-1.81v.07h.14l-.07-.14.21-.14h.07c0,.09,0,.14.07.14A1.86,1.86,0,0,1,28.1,7ZM19.5,17.74c0,.13.3.29.77.49v-.07C20.27,18.08,20,17.94,19.5,17.74Zm2.38,3.64A7.77,7.77,0,0,0,24.18,24a3,3,0,0,1,.49-.49A16,16,0,0,1,22,21.38ZM22.22,16v.07l2.17,1.68a.19.19,0,0,1,.21.21h.07v-.14a12.67,12.67,0,0,1-1.82-2.17A2.67,2.67,0,0,1,22.22,16Zm.42,2.8q1.63,1.68,1.89,1.68V20.4a11.44,11.44,0,0,1-1.75-1.61Zm.21,11.33v.07h.07a1.28,1.28,0,0,1,.49-.21v-.07h-.07A1.17,1.17,0,0,1,22.85,30.12Zm.7-.42v.14a.85.85,0,0,1,.35-.14v-.07h-.07A.51.51,0,0,1,23.55,29.7Zm.07-8v.07c1.18.89,1.79,1.33,1.82,1.33a.71.71,0,0,1,.21-.07,4.13,4.13,0,0,0-2-1.33Zm4.69,4.06a4.17,4.17,0,0,1-.77.7.14.14,0,0,0,.14.14A9.12,9.12,0,0,0,29,26.13V26A2.75,2.75,0,0,0,28.31,25.78Zm.21-19h.21V6.9h-.35C28.39,6.8,28.44,6.76,28.52,6.76Z" fill="#fbae17"/><path d="M49.77,5.94c.37.16.55.27.55.34,0,.65-.11,1.32-.21,2h.56A.51.51,0,0,0,51,8.24a.55.55,0,0,0,.21.07l.35-.07v.07l.14-.07h.63a.06.06,0,0,1,.07.07l.14-.07,2.94.14v.07l.14-.07a1.11,1.11,0,0,0,.56.14h.42q.11,0,.21.21l-.21.35a.06.06,0,0,1,.07.07l-.84.07V9.15l-.14.07h-.07s-.07,0-.07-.07l-.14.07H55l-.14-.07-.07.14-.14-.07-.35.07a.46.46,0,0,1-.21-.07,3.25,3.25,0,0,1-.63.07h-.42A.06.06,0,0,1,53,9.22a.07.07,0,0,0-.07.07.55.55,0,0,1-.21-.07,3.25,3.25,0,0,1-.63.07h-.14v.14h4.62a4.6,4.6,0,0,1,.63.07.63.63,0,0,1,.21-.07.46.46,0,0,0,.21.07s.07,0,.07-.07l.49.07h.77c.06,0,.15.14.28.42v.14L59.07,10H59v.07h.14v.14h-.56a.61.61,0,0,0-.28.07.63.63,0,0,0-.21-.07.13.13,0,0,1-.14.14H57s-.07,0-.07-.07a.46.46,0,0,1-.21.07v.07h1.05a.06.06,0,0,1,.07.07l.14-.07h.42l.49.07a.06.06,0,0,1,.07-.07.69.69,0,0,1,.28.56c-.08.23-1,.35-2.59.35h-.28l-.14.07-.07-.14c-.23.06-.35.13-.35.21l-.14-.07h-.07a1.8,1.8,0,0,1-.7.21l-.56-.14a.13.13,0,0,1-.14.14h-.56v.07l.07.14c-.14,0-.21,0-.21.14h1.05a4.25,4.25,0,0,1,1.54.14s.07,0,.07-.07c.47,0,.7.09.7.28h.56c.1,0,.17.16.21.49-1.71.37-2.62.56-2.73.56v.07H55v.14c-1.18.09-2,.19-2.52.28l-.42-.07-.28.07-.14-.07c-.32,0-.49.12-.49.21,0,.78-.07,1.39-.07,1.82H51l.07.14A.06.06,0,0,1,51,16a.07.07,0,0,0,.07.07A7.07,7.07,0,0,1,51,17.2a.07.07,0,0,0,.07.07.55.55,0,0,1-.07.21,4.94,4.94,0,0,1,.07.76v.07c0,.05,0,.07-.07.07a.06.06,0,0,0,.07.07L51,18.8v.07l.07.35H51l.07.14V20a18.54,18.54,0,0,0,.14,2.73l-.07.14a.53.53,0,0,1,.07.28c0,.05,0,.07-.07.07l.07.14-.07.14.07.14c0,.09,0,.14-.07.14A9.87,9.87,0,0,0,51.23,25l-.07.14a3.42,3.42,0,0,1,.07.63h-.07l.07.14v1.05l.07.42-.07.14a3.25,3.25,0,0,1,.07.63h-.07l.07.14a.06.06,0,0,1-.07.07l.07.35V29c0,.14,0,.21-.07.21l.07.35c0,.46,0,1.16.07,2.09H51.3l.07.14v.35s0,.07-.07.07l.07.14-.07.7.07.35H51.3a.55.55,0,0,1,.07.21s0,.07-.07.07l.07.35v.7s0,.07-.07.07l.07.14v.42s0,.07-.07.07l.07.14v.14c0,.23,0,.35-.14.35l.07.35c0,1.49-.09,2.24-.28,2.24l.07.14c-.19.65-.33,1-.42,1H50.6V36h-.07l-.07.28a.63.63,0,0,0,.07.21c-.09.58-.14.93-.14,1h-.14v-.91a.06.06,0,0,1,.07-.07.93.93,0,0,1-.07-.42.46.46,0,0,1-.35.21l.14.21H49.9v.56c0,.09,0,.14-.13.14H49.7a2.5,2.5,0,0,0-.07-.49l.07-.42a.93.93,0,0,1-.21.14h-.35a.12.12,0,0,1-.14-.14v-.42c0-.4,0-1-.07-1.75h-.14l.07.35c-.24.38-.4.56-.49.56s-.14-.07-.14-.21a24.38,24.38,0,0,1,.14-2.8.66.66,0,0,1-.07-.35l.14-.07c0-.51-.1-.77-.14-.77l.07-.34V28.25c0-.05,0-.07.07-.07L48.37,28c0-.05,0-.07.07-.07l-.07-.14v-1a3.46,3.46,0,0,1,.07-.7,2.38,2.38,0,0,1-.07-.63v-.14s0-.07.07-.07l-.07-.14V25l.07-.42a.06.06,0,0,0-.07-.07l.07-.35c0-.05,0-.23-.07-.56l.14-.07-.07-.14V22a.8.8,0,0,0-.07-.35l.07-.42v-.7l-.07-.7h.07a7.21,7.21,0,0,1-.21-1.4h.07l-.07-.14V18l.07-.13a.12.12,0,0,1-.14-.14v-.42H48v2.16a.12.12,0,0,1-.14.14,3,3,0,0,1,.14.63H48l.07.14-.14.21a.14.14,0,0,1,.14.14l-.07.14c0,.05,0,.07.07.07l-.07.35v1.33l.07.35H48l.07.14v.14a.06.06,0,0,1-.07.07l.07.14a.06.06,0,0,1-.07.07l.07.14v.42a.06.06,0,0,1-.07.07l.07.14v.21a.06.06,0,0,1-.07.07l.07.14a.06.06,0,0,1-.07.07l.14.84H48c0,.05,0,.07.07.07l-.07.49.07.49H48c0,.05,0,.07.07.07l-.07.35a.63.63,0,0,1,.07.21c-.07,0-.17.09-.28.28v.07c0,.09,0,.14.14.14l-.07-.14v-.14H48v.35l-.14.21v.07l.14.21H48l.07.14a.8.8,0,0,1-.07.35l.07.42v.14h-.14l.14.42a.51.51,0,0,0-.07.28,1.91,1.91,0,0,0,.07.28l-.14.07.07.35V31c0,.09-.05.13-.14.13a.07.07,0,0,0-.07-.07v.21h.14v.14c-.11,0-.18.12-.21.35-.05,0-.1.07-.14.21h.21V32h-.21l.07.14a.55.55,0,0,0-.07.21h-.14v-.14a.06.06,0,0,1,.07-.07.07.07,0,0,0-.07-.07l.07-.35v-.07l-.07-.49h.07a.74.74,0,0,1-.14-.41V29.16l-.07-.42.07-.14a4.32,4.32,0,0,1-.07-.84h-.07c0,.46,0,.7-.07.7l.07.14v.14a.07.07,0,0,1-.07.07l.07.14a.07.07,0,0,1-.07.07l.07.35v.21a.07.07,0,0,1-.07.07l.07.14v.49a.07.07,0,0,1-.07.07l.07.14-.14.34a1.33,1.33,0,0,1,.14.63.06.06,0,0,1-.07.07l.07.35V33a.06.06,0,0,1-.07.07l.07.14a.06.06,0,0,1-.07.07l.07.14v.42A.12.12,0,0,1,47,34a.84.84,0,0,1,.14.42v.21a.12.12,0,0,1-.14.14l.07.14v.21c0,.14-.1.21-.28.21l.07.7c-.06,0-.18.12-.35.35h-.07V35.8l.07-.35-.14-.07c0-.05,0-.07.07-.07L46.41,35V33.77a.64.64,0,0,0-.07-.28.61.61,0,0,0,.07-.28v-.14c0-.14,0-.21-.07-.21l.07-.35c0-.46,0-1-.07-1.68,0,0,0-.06.07-.06l-.07-.35V29a.61.61,0,0,0-.07-.28l.07-.14-.07-.14a3.2,3.2,0,0,1,.07-.42l-.07-.35h.07l-.07-.14v-.56a.61.61,0,0,0-.07-.28c0-.05,0-.07.07-.07l-.07-.35V24l-.07-.49h.07a.06.06,0,0,0-.07-.07c0-.09,0-.14.07-.14l-.07-.7V18.73a.06.06,0,0,1,.07-.07.07.07,0,0,0-.07-.07c0-.54.07-.94.07-1.18v-.49c-.24-.18-.35-.69-.35-1.54V14.26l-.14.07.07.14v.07a.64.64,0,0,1-.07.28.61.61,0,0,1,.07.28.07.07,0,0,1-.07.07l.07.14v1.4l.07.49h-.07l.07.14v.49l.07.48h-.07l.07.14v.84a3.25,3.25,0,0,0,.07.63.7.7,0,0,0-.07.35l.07.49q-.1,0-.21.21v.63h-.21l-.49-4.4c0-.05,0-.07.07-.07l-.07-.7v-.56a.51.51,0,0,0-.07-.28c0-.05,0-.07.07-.07L45,15v-.77l-.7.07H44c0,.23,0,.35-.07.35l.07.49v1.68l.07.84H44l.07.14v2.86s0,.07-.07.07l.07.14v1.61H44l-.14-.07v.07l.07.14c-.12,0-.21.23-.28.7-.06,0-.15.12-.28.35a15.94,15.94,0,0,1-.21-3.64l-.07-.14.07-.14a.46.46,0,0,1-.07-.21h.07l-.07-.14c-.09-3-.14-4.62-.14-5h-.07a2.38,2.38,0,0,0-.77.14L42,14.54a.63.63,0,0,1-.21.07c-.39,0-.77-.33-1.12-1h-.21l-.35.07v-.07L40,13.7H39.9c-.38,0-.68-.3-.91-.91v-.14c0-.09.06-.14.14-.14h.28a3.25,3.25,0,0,0,.63-.07l.14.07a5.05,5.05,0,0,1,.77-.07h.14V12.3c-.23,0-.35,0-.35-.07l-.14.07c-.24,0-.57-.51-1-1.54v-.07c0-.13.42-.22,1.26-.28a2.39,2.39,0,0,0-.35-.63c.1-.21.19-.32.28-.35H41l4.62-.7V8.8c1-.15,1.54-.31,1.54-.49.15-.42.27-.63.35-.63h.07a3.51,3.51,0,0,0,.56.14.59.59,0,0,1,.35-.49h.28c.18.1.28.21.28.35s0,.3-.07.7h.28V7.89a.55.55,0,0,1,.07-.28.07.07,0,0,0-.07-.07C49.38,6.47,49.54,5.94,49.77,5.94ZM47.18,27.2v.28h.07V27.2Zm3.28,8.39v.21l.14.07V35.8a.63.63,0,0,1-.07-.21Zm.63-25.11v.07a.46.46,0,0,1,.21.07v-.14Zm.28,0c0,.09.06.14.14.14h.07v-.14Zm4.76-.14v.07c.14,0,.21,0,.21.07a.61.61,0,0,1,.28-.07v-.07Z" fill="#fbae17"/><path d="M71.36,5.79c.62.31.94.53,1,.67s0,.09-.07.09l.07.14v.15s0,.07-.07.07a.06.06,0,0,0,.07.07.49.49,0,0,1-.07.23l.07.74h-.07l.07.15v.44c0,.05,0,.07-.07.07l.07.16c.05.91.07,1.68.07,2.31h-.07a10.69,10.69,0,0,1,.23,1.32h.14v-.73a.58.58,0,0,0-.07-.3c0-.06,0-.08.07-.08l-.14-1.19.14-.07a.53.53,0,0,1,.23.07l.45-.07h.21c.33,0,.5.57.53,1.71l-.07.14.07.16a.82.82,0,0,1-.07.21l.07.38c0,.6-.07,1-.07,1.33l.07.37-.14.82a.65.65,0,0,1,.07.23H74a.06.06,0,0,0,.07.07l-.07.89V17a.49.49,0,0,1-.09.3l.09.16-.09.5a.63.63,0,0,1,.09.23h-.09s0,.07.09.07a4,4,0,0,1-.16.68L74,19a4.17,4.17,0,0,0-.16.83.61.61,0,0,1,.07.28h-.07l.07.15s0,.18-.07.44a.89.89,0,0,1,.07.23h-.07l.07.16s0,.32-.14.8c0,.06,0,.09.07.09l-.07.73v1c0,.06,0,.09-.07.09s0,.07.07.07c-.11.61-.28,3.13-.53,7.57a.53.53,0,0,1,.07.23h-.07a.06.06,0,0,0,.07.07,9.38,9.38,0,0,0-.14,1.19.56.56,0,0,1,.07.3h-.07l.07.14v.15c0,.1,0,.14-.14.14a.9.9,0,0,1,.14.46c-.17,0-.27,1.36-.29,4.07a5.06,5.06,0,0,1,.15.89l-.29.23c-.15-.05-.23-.1-.23-.16l-.16.09h-.21c-.3,0-.45-.65-.45-1.94v-.73l.07-.46-.07-.14.07-.45v-.3a1.29,1.29,0,0,1-.6-.89s0-.07.09-.07l-.09-.37v-3a.6.6,0,0,0-.07-.3.56.56,0,0,0,.07-.3c0-.09,0-.14-.07-.14l.07-.38V29.4l-.14.07c-.16,0-.26-.17-.29-.51l-.23.14h-.23a2.11,2.11,0,0,0-.73-.29,4.16,4.16,0,0,0-.14,1.34v.67a.59.59,0,0,0,.07.29.6.6,0,0,0-.07.3c0,.35.07.55.07.6l-.3.21q-1.17,0-1.26-.81c-.26,0-.38-.1-.38-.3l.08-.15c0-.05,0-.07-.08-.07l.08-.74c.1-2.62.14-4.16.14-4.61a.63.63,0,0,1,.07-.21.82.82,0,0,1-.07-.3v-.09c0-.14,0-.21.07-.21l-.07-.38V22.49h-.36c-.05,0-.07,0-.07-.07s-.09,0-.09.07l-.51-.07H66c-.05,0-.07,0-.07-.07a.06.06,0,0,0-.07.07l-.45-.07-.74.07v-.07c-.3.06-.45.14-.45.23v3l-.07.44c0,.05,0,.07.07.07l-.07.39v1.19s0,.06-.07.06,0,.07.07.07A22.11,22.11,0,0,0,64,30.45c-.11,0-.16.06-.16.14a.49.49,0,0,1,.07.23c-.07.2-.14.29-.21.29h-.09q-.12,0-.21-.75l.07-.14v-.15h-.07c0,.15-.1.28-.3.38v.14H63a4.22,4.22,0,0,1,.07-.44.58.58,0,0,1-.07-.22H63L63,29.77l.07-.14a.06.06,0,0,0-.07-.07.49.49,0,0,1,.07-.23c0-.5-.07-.9-.07-1.19v-.3h.15v-.22H63V27c.1,0,.15,0,.15-.07a.86.86,0,0,1-.15-.43V23l.07-.53c-.25,0-.37-.09-.37-.14l-.14.07h-.09a.06.06,0,0,1-.07-.07l-.14.07a.46.46,0,0,1-.22-.07,3.71,3.71,0,0,1-.67.07h-.16v.07a5.87,5.87,0,0,1-.07.83l.07.15a.7.7,0,0,0-.07.3c0,.09,0,.14.07.14L61,25.17l.07.16a1.84,1.84,0,0,0-.14.5c0,.06,0,.09.07.09l-.07.51V28c0,.06,0,.09-.08.09s0,.07.08.07l-.08.37c0,.58,0,1.5-.07,2.74h-.07c0,.06,0,.09.07.09l-.07.37v.07l.07.44a.59.59,0,0,0-.07.29,1.34,1.34,0,0,0,.07.3.6.6,0,0,0-.07.3.79.79,0,0,1,.07.23.85.85,0,0,1-.83.45v.07c-.33-.12-.5-.27-.5-.45A1.1,1.1,0,0,1,59,33.2v.14l.07.15a.82.82,0,0,0-.07.21L59,34l-.07.16.07.14-.07.15a.06.06,0,0,0,.07.07l-.07.37v.82c0,.27,0,.62.07,1L59,36.9,59,37,59,37.2a3.83,3.83,0,0,1,.07.44l-.07.29a.66.66,0,0,1,.07.3H59l.07.16a.65.65,0,0,0-.07.23.46.46,0,0,1,.07.21s-.07,0-.07.08l.14.07-.07.14v.23l.07.37H59c0,.06,0,.09.07.09l-.07.36V42.1c0,.5-.07.75-.22.75v.21H59v.16h-.07l-.15-.07a.63.63,0,0,1-.3.59,1.36,1.36,0,0,1-.23-.59L58.3,43v-.07h-.09l-.07.37v.59H58a.74.74,0,0,0-.07-.37.49.49,0,0,0,.07-.22.53.53,0,0,1-.07-.23H58l-.07-.14.07-.16s0-.07-.07-.07a1.64,1.64,0,0,0,.07-.3c0-.16,0-.88-.07-2.15H58a.49.49,0,0,1-.07-.22c-.15-2.65-.23-4.48-.23-5.5-.07,0-.14-.07-.22-.22V32.08l-.14.07a.06.06,0,0,0,.07.07l-.07.89v1a.52.52,0,0,1-.09.29l.16.51c-.1.24-.2.36-.3.39L57,35.12l-.16.07c-.14,0-.24-.25-.3-.74v-.52a.06.06,0,0,1,.07-.07l-.07-.16c0-.29.09-.43.16-.43l-.09-.16V32.9a.08.08,0,0,1,.09-.09c0-.05,0-.07-.09-.07l.09-.89V31a.07.07,0,0,1,.07-.08c0-.05,0-.07-.07-.07,0-.55.1-.82.14-.82a.82.82,0,0,1-.07-.21l.07-.16c0-.19-.14-.33-.44-.44v.81c-.13.3-.31.45-.52.45a1.88,1.88,0,0,1-.66-1.12c-.09,0-.16-.22-.23-.66l.07-.37V27.32l.07-.44a.06.06,0,0,0-.07-.07L55.26,25l-.09-.16a15.82,15.82,0,0,0,.16-2.38,8.53,8.53,0,0,1-.07-1h.07l-.07-.14v-.22h.14V21c-.1,0-.14-.1-.14-.3a.66.66,0,0,0-.39.09.59.59,0,0,1-.66-.68.06.06,0,0,1-.07-.07v-.37l.36-.07H55c.07,0,.14-.12.23-.37l-.09-.16s0-.07.09-.07l-.09-.15v-.3l.09-.44a.52.52,0,0,1-.09-.29l.16-.07a1.77,1.77,0,0,0-.16-.53.48.48,0,0,1,.09-.23,4,4,0,0,0-.09-.43,6.16,6.16,0,0,1,.23-2.15c0-.06,0-.09-.07-.09q.56-5.86,1.11-5.86h.07A.47.47,0,0,1,57,9L57,9.13a.58.58,0,0,1,.09.3h.07c.14-1.19.44-1.78.89-1.78h.07l.07.16v.5L58,8.54V8.7l.21-.16h.23c.14,0,.24.2.3.59l-.3,1.65.07.14-.14.37c0,.05,0,.08.07.08a4.5,4.5,0,0,1-.23,1c0,.05,0,.07.09.07a4,4,0,0,1-.16.83l.16.07-.16.43h.16l.37-1.48A.55.55,0,0,1,58.6,12l.07-.3a.06.06,0,0,0-.07-.07l.29-2c0-.05,0-.07-.08-.07,0-.46.11-.68.15-.68l-.07-.14A.06.06,0,0,1,59,8.7l-.07-.16A.83.83,0,0,1,59.7,8a2.46,2.46,0,0,0,.22.52.65.65,0,0,0-.07.23c.14,0,.32-.72.53-2.15l.51-.07a.76.76,0,0,1,.22.5A10.41,10.41,0,0,1,61,8.17s0,.13.07.3c-.1.55-.18.82-.22.82l.07.14c0,.05,0,.3-.14.75a.42.42,0,0,0,.29.3,3.18,3.18,0,0,1,.67-.09l.23.46c-.2,2.35-.3,3.84-.3,4.46h-.07l.07.14v.29l-.07.44a.89.89,0,0,1,.07.23h-.07l.07.16a.07.07,0,0,1-.07.07l.07.14v.38l-.07.51a.15.15,0,0,1,.14.16,1,1,0,0,1,.52-.07l-.08-.16a.07.07,0,0,0,.08-.07c1-.05,1.73-.07,2.22-.07h.16l.73-.09v.09l.16-.09h.07a.53.53,0,0,1,.3.09s.07,0,.07-.09l.37.09h.82l.52-.09c0-.05,0-.07-.08-.07a1.14,1.14,0,0,1,.22-.59.13.13,0,0,1-.14-.14v-.39a.07.07,0,0,1,.07-.07L67.65,16v-.16h.14V16h.07a1.17,1.17,0,0,0-.21-.66v-.6h.14v.21h.07v-.21c-.09-.25-.16-.38-.21-.38q.07-.81.21-.81l-.07-.38V13a.06.06,0,0,1,.07-.07l-.07-.16V12c0-.15.2-.23.46-.23h.29c0-.45.27-.75.81-.89.06,0,.09,0,.09-.07-.06-.6-.09-1-.09-1.35a1.35,1.35,0,0,1,.59-.14l.37.23.09-.16V8.31l.51-2.15C71,6.16,71.19,6,71.36,5.79Zm-14,25.55v.44h.07a3.83,3.83,0,0,1,.07-.44ZM58,15a.46.46,0,0,1-.07.21h.14V15Zm.07-.82a1.1,1.1,0,0,1-.07.52h.14v-.52Zm.14,27.47V42h.09v-.37ZM58.3,27v.09l.07.66h.07a.74.74,0,0,1,.16-.52c0-.07-.08-.15-.23-.23Zm0,1.19v.37h.07v-.37Zm.14-4a.54.54,0,0,1-.07.29h.14v-.29Zm0,1-.07.16a.61.61,0,0,1,.23.07v-.07A.14.14,0,0,0,58.44,25.17Zm.07.3c0,.64-.08,1-.14,1l.07.16v.07a.06.06,0,0,1-.07.07.58.58,0,0,1,.07.22c.1,0,.16,0,.16-.14v-.52a.49.49,0,0,0-.09-.3.53.53,0,0,0,.09-.3v-.22Zm.09-1-.09.36h.16v-.36Zm2.15-13.82a5.44,5.44,0,0,1-.07.82h.14v-.82Zm6.45,9.22v.07h.52v-.07Zm1.94-4.39a.46.46,0,0,0,.07.22c0,.4-.09.6-.16.6l.16.3a2,2,0,0,0-.07.5v.09h.07a.21.21,0,0,1,.23-.23l-.09-.15.09-.14-.16-.07.07-.16-.07-.51a.14.14,0,0,0,.16-.16v-.29a.49.49,0,0,0-.09-.3.49.49,0,0,0,.09-.3h-.09Q69.14,14.91,69.14,15.45Zm.07-1.86V14a.56.56,0,0,0,.07.3.49.49,0,0,0-.07.23h.14v-.23s0-.07-.07-.07l.16-.53-.16-.07Z" fill="#fbae17"/><path d="M82.83,8.17a.06.06,0,0,1,.07.07l1-.07a6.69,6.69,0,0,1,3.61.74.82.82,0,0,1,.59.36l-.07.14c.14,0,.21.06.21.16s-.14.3-.21.3a4.18,4.18,0,0,0-.59-.16H87.4a.83.83,0,0,0-.37.07c-.49,0-.74-.09-.74-.14a.07.07,0,0,0-.08.07l-.88-.14-.14.07a.73.73,0,0,0-.29-.07c0,.1,0,.14.13.14h.3a2.47,2.47,0,0,1,1.91.89l-.07.14a1.47,1.47,0,0,0,.89.44.9.9,0,0,1,.21.53v.14q0,.17-.51.36l-.15-.07-.14.07-.14-.07a.66.66,0,0,1-.3.07s-.07,0-.07-.07a4.92,4.92,0,0,1-1.63.23V12.3a.49.49,0,0,1-.23.07v.3a10,10,0,0,0,.16,1.83l-.07.14.07.44-.16.23v.07c.11,0,.16,0,.16.07s0,.42.07,1l-.07.16.14.43-.07.14a.66.66,0,0,1,.07.3h-.07a.49.49,0,0,1,.07.23l-.07.14c0,.06,0,.08.07.08l-.07.28a4.87,4.87,0,0,1,.14,1,.54.54,0,0,1-.07.29.53.53,0,0,1,.07.23.14.14,0,0,0,0,.28,1.05,1.05,0,0,1-.28.67c.1,0,.14.07.14.15a.64.64,0,0,0-.07.28h.14l-.07.16c.1,0,.14.06.14.14h-.14v.73l.14.23-.14.23a.53.53,0,0,0,.23.07v.14a.29.29,0,0,0-.23.16.07.07,0,0,0,.07.07c0,.09,0,.14-.07.14l.07.73v.37a.54.54,0,0,1-.07.29.66.66,0,0,1,.07.3c0,.11,0,.38-.07.81,0,.1,0,.15.07.15l-.07.74v1.24a.56.56,0,0,1-.07.3c.07.2.14.29.21.29h.16a.66.66,0,0,0,.3-.07l.14.07.14-.07a1.92,1.92,0,0,1,1.19,1v.21c0,.07-.08.14-.23.22H87a9,9,0,0,0-1.77.14V30h.07c.22,0,.76,0,1.61-.09a2,2,0,0,1,1.1.83V31c0,.05,0,.08-.07.08l.07.14c0,.1-.19.17-.57.23s-.67-.11-.67-.16l-.52.07H85.1v.6a.82.82,0,0,0,.3.07h.44q.78,0,4-.3c0,.1.09.16.29.16V32H90v.07H90l.29-.07a4.92,4.92,0,0,0,.67.07v.15c-.25,0-.37.05-.37.14l-.37-.07h-.14c0,.2-.29.3-.89.3,0,0,0,.07-.07.07v-.14h-.07v.14s.07,0,.07.07h-.3v-.07l-.73.3a.14.14,0,0,0-.16-.16h-.14c0,.15,0,.23-.14.23h-.15l-.21-.14a2.43,2.43,0,0,1-.83.21.12.12,0,0,0-.14-.14c0,.11-.19.19-.59.23,0-.06,0-.09-.07-.09s0,.16-.14.16-.09,0-.09-.07l-.14.07h-.07l-.16-.07-.14.21c0,.15,0,.22.07.22,0,.49-.09.74-.13.74s0,.07.06.07l-.06.36V36l-.08.45a.51.51,0,0,1,.08.21h-.08c.05,0,.08.27.08.82a.29.29,0,0,0-.23.14c-.29,0-.54-.24-.74-.73h.14v-.3H84v.16h-.07c-.07,0-.14-.08-.22-.23v-.37a.47.47,0,0,1,.08-.29.5.5,0,0,1-.08-.3v-.3c0-.09.07-.14.15-.14L83.79,35c0-.32.1-.5.28-.52L84,34l-.14.07V34c0-.1.07-.16.21-.16V33.7c-.18,0-.28-.12-.28-.36h-.52a.06.06,0,0,1-.07-.07l-.14.07a3.15,3.15,0,0,1-1.12-.14l-.14.07-1-.07-.14.07c-2-.2-3-.55-3.17-1-.06,0-.25-.22-.59-.66V31.5c0-.07.07-.15.23-.23h.36a.06.06,0,0,1,.07.07,5.81,5.81,0,0,1,1.26-.14v-.07a1.65,1.65,0,0,1-1.48-1c-.14,0-.21-.05-.21-.16v-.21c0-.1.09-.15.29-.15v-.37a1.41,1.41,0,0,1-.45-.14.45.45,0,0,0,.09-.23h.07c1.62,0,2.43-.12,2.43-.37.24-1.95.41-3.72.5-5.29a1.16,1.16,0,0,1-.07-.51c0-.25.05-.37.14-.37L80,22.14v-.36a.73.73,0,0,1,.07-.3A.61.61,0,0,1,80,21.2v-.3a.65.65,0,0,1,.07-.29.73.73,0,0,1-.07-.3h.07A2.46,2.46,0,0,1,80,19.5H80L80,19.35V18a3.53,3.53,0,0,0-.07-.66l.07-.16-.07-.29.07-.51-.07-.14.07-.46v-.07l-.07-.36H80a.71.71,0,0,1-.07-.23A5,5,0,0,1,80,14.5l-.07-.29a4,4,0,0,0,.14-.67L80,13.4c0-.06,0-.09.07-.09L80,13V12.3h-1.1c-.1,0-.16.06-.16.14v1.17c0,.05,0,.07-.07.07l.07.16c0,.83-.08,1.24-.14,1.24a.56.56,0,0,1,.07.23c-.09.84-.14,1.4-.14,1.69v.14c0,.05,0,.07-.08.07l.08.16c0,.05,0,.07-.08.07s0,.07.08.07l-.15.89c0,.05,0,.07.07.07l-.07.37v.23H78.2v-.3h-.07a1.54,1.54,0,0,1-.3,1s.07,0,.07.07l-.14.07h-.09a.73.73,0,0,0-.21-.44c.05,0,.07,0,.07-.07l-.14-.08a3.77,3.77,0,0,1,.14-.74.61.61,0,0,1-.07-.28h.07l-.07-.16a.07.07,0,0,1,.07-.07L77.46,18c.05-1.94.07-3,.07-3.25l.07-.28c0-.06,0-.08-.07-.08l.07-.51V12.37a20.37,20.37,0,0,0-2.34.44,1.19,1.19,0,0,1-.3-.74c.05,0,.07,0,.07-.07-.49,0-.73-.2-.73-.59l.14-.3c0-.07-.15-.19-.44-.37v-.07l.3.07a4.44,4.44,0,0,0,1.24-.14c.06,0,.09,0,.09.07a9.84,9.84,0,0,1,1.68-.14.07.07,0,0,1,.08.07l.14-.07a.53.53,0,0,0,.23.07c0-.1.06-.15.14-.15H78c1.56-.14,2.45-.21,2.66-.21v-.09l-.89-.07H79c-.51,0-1.74.08-3.67.23q-1,0-1-.81l.14-.16-.07-.13.07-.16h-.37V8.91L75,9l.37-.07V9a.49.49,0,0,1,.23-.07,20.62,20.62,0,0,0,2.93-.3v.07c1.36-.24,2.11-.37,2.28-.37L81,8.4l.07-.16c.09,0,.14,0,.14.07l.89-.07h.43A.56.56,0,0,0,82.83,8.17ZM81.21,21.64l.15.07c0,.2-.1.29-.15.29s0,.07.08.07a5.54,5.54,0,0,1-.15.74l.07.16a1,1,0,0,0-.14.5l.07.16c0,.14-.1.21-.14.21l.07.16-.07.28a1.87,1.87,0,0,0,.07.29q-.1.9-.3.9l.07.36v.37a8.25,8.25,0,0,0-.21,2.2v.23c.24,0,.37-.05.37-.16a8.81,8.81,0,0,1,.14-1.24s-.07,0-.07-.08a.13.13,0,0,0,.14-.14.73.73,0,0,0-.07-.3l.15-.37-.15-.07.07-.14a.56.56,0,0,1-.07-.23c.1,0,.15,0,.15-.14a.51.51,0,0,1-.08-.29c.12,0,.2-.1.22-.3-.09,0-.14-.05-.14-.16v-.28a1.25,1.25,0,0,1,.14-.59L81.36,24c0-.25.1-.37.14-.37a.79.79,0,0,1-.07-.23l.07-.52a.64.64,0,0,1-.07-.28c.1,0,.14-.05.14-.16l-.14-.07.07-.51v-.15l-.07-.37C81.36,21.34,81.29,21.44,81.21,21.64ZM81,13.1v.74c0,.09-.06.14-.16.14a.53.53,0,0,1,.09.3h.14v-.14c.19-1,.29-1.58.29-1.63V12.3C81.12,12.3,81,12.57,81,13.1Zm-.07,1.25q0,.15-.09.15l.09.14a.49.49,0,0,1-.09.3V15h.09l.07-.37v-.29Zm.43,6.33a.83.83,0,0,1-.07.43h.14v-.43Zm0-1.11V20h.07v-.44Zm.51,12.37V32h.3v-.07Zm1.92-.37H83.5a.86.86,0,0,1-.16.51h.52c0-.25,0-.37.07-.37a.48.48,0,0,0,.23.09v-.3Zm.88-5.67v.37h.07V25.9Z" fill="#fbae17"/><path d="M102.1,7V7h.21l-.07-.14a1.63,1.63,0,0,1,.28.07L103,6.9l1.33.28v.07a20.2,20.2,0,0,1-3.64,1.12v.14h.07l.35-.07.07.14q-.1,0-.21.21h.07a.55.55,0,0,1,.21-.07v.07l-.07.14c.1,0,.14.05.14.13l.14-.06h.07s.11.06.21.21l.49-.21c0,.05.21.17.63.34v.14a3.18,3.18,0,0,0-.63.35c.05.14.09.21.14.21l-.07.14v.07a12.74,12.74,0,0,0,2.1-.77,8.44,8.44,0,0,1,2.17-.83v.14l-.28.06v.08l.35-.08h.21l-.07.15s.11.15.35.34a9.87,9.87,0,0,0-2.45,1.33c0,.05-.07.07-.21.07s.06.14.14.14a.61.61,0,0,1,.28-.07c-.14.12-.21.21-.21.28h-.07l-.14-.07c0,.16-.37.41-1,.77l-.14-.07c0,.1-.23.33-.7.7h-.42l-.28.56.07.14c0,.05,0,.07-.07.07l.07.42a3,3,0,0,1-.14.7,3.53,3.53,0,0,1,.07.7c0,.05,0,.07-.07.07l.07.14v.14a.93.93,0,0,1-.14.21l.07.14a.46.46,0,0,0-.07.21l.07.14-.07.14a.46.46,0,0,0,.07.21c0,.51-.09.77-.14.77a.06.06,0,0,0,.07.07c-.08.74-.17,1.12-.28,1.12l-.07-.14-.14.07h-.07a.68.68,0,0,0-.07-.35.06.06,0,0,1,.07-.07l-.07-.35v-.14a.61.61,0,0,1,.07-.28.8.8,0,0,1-.14-.35l.07-.35a.63.63,0,0,1-.07-.21.06.06,0,0,1,.07-.07l-.07-.35v-.35a.06.06,0,0,1,.07-.07s0-.07-.07-.07l.07-.35v-.28c0-.33,0-.84.07-1.54-.32.23-1.14.7-2.45,1.4l-.14-.07-.84.7v.21a4.63,4.63,0,0,1,.77.91q1.13,1.32,3.29,4.2a26.16,26.16,0,0,0,3.92,3.63,8.82,8.82,0,0,1,1.12.91v.28l-.14-.07v.07a.07.07,0,0,1,.07.07l-.14.07c-.05,0-.07,0-.07-.07l-.14.07c-.33,0-.93-.39-1.82-1.19-.19,0-.28,0-.28-.14l-.14.07h-.35v.35q-.63.54-.63.63a.82.82,0,0,1,.21.49v.07c0,.1-.09.14-.28.14v.21a1,1,0,0,1,.63-.21h.07a1.56,1.56,0,0,1,.63.63v.28a6.92,6.92,0,0,0-1.19.84c1.11.64,1.69,1.08,1.75,1.33a1.17,1.17,0,0,1-.42.14s-.71-.3-2-.91a3.77,3.77,0,0,1-1.19.7,6.72,6.72,0,0,1-1.47.91q0,.09-.84.63c-2.28,1.32-3.42,2.13-3.42,2.45l.07.14c0,.14-.1.21-.14.21a.06.06,0,0,0,.07.07l-.14,1.11h.07a3.72,3.72,0,0,0-.14,1.26V36a.61.61,0,0,1-.07.28l.07.14a5.85,5.85,0,0,1-.14,1s0,.07.07.07c0,.75-.14,1.12-.28,1.12v.35a.13.13,0,0,1-.14.14l-.14-.21a.53.53,0,0,1,.07-.28,1.56,1.56,0,0,0-.21-.56c0-1.48.14-3.11.28-4.89v-.07H94.9c0,.14-.05.21-.14.21a.55.55,0,0,0-.21-.07l-.07.14h.14v.14h-.07l-.14-.07c0,.1-.4.36-1.19.76h-.35c-.51-.39-.77-.65-.77-.76a3,3,0,0,0-.91.69c-.51.35-.77.56-.77.63l-.35.07h-.21c-.51-.3-.77-.63-.77-1,1-.56,1.9-1.1,2.66-1.61v-.07h-.21a10.38,10.38,0,0,1-2.8,1.12c-.51-.4-.77-.63-.77-.7v-.28l1.61-1.54h-.07a4.6,4.6,0,0,1-.63.07l-.7-.77V30a7.32,7.32,0,0,1,1.68-.77,27.06,27.06,0,0,1,3-1.75,11.46,11.46,0,0,1,2.87-1.82l1.68-1.19a44.46,44.46,0,0,1-3.71-3.63l-3.57-3.36c-.37-.17-.56-.38-.56-.63a4.42,4.42,0,0,0-1,.56,1.34,1.34,0,0,1-.77-.63v-.07a9.49,9.49,0,0,1,2.45-1.47v-.07A2.24,2.24,0,0,1,89.72,14a2.07,2.07,0,0,1,.63-.28v-.63a17.85,17.85,0,0,1,1.82-1.33l.14.07h.07c0-.34.44-.71,1.33-1.12,0-.18.74-.67,2.24-1.47q3.3-1.81,4.4-1.81v.07h.14l-.07-.14.21-.14h.07c0,.09,0,.14.07.14A1.86,1.86,0,0,1,102.1,7ZM93.5,17.74c0,.13.3.29.77.49v-.07C94.27,18.08,94,17.94,93.5,17.74Zm2.38,3.64A7.77,7.77,0,0,0,98.18,24a3,3,0,0,1,.49-.49A15.63,15.63,0,0,1,96,21.38ZM96.23,16v.07l2.16,1.68a.19.19,0,0,1,.21.21h.07v-.14a12.41,12.41,0,0,1-1.81-2.17A3.18,3.18,0,0,1,96.23,16Zm.42,2.8c1.08,1.12,1.71,1.68,1.88,1.68V20.4a11,11,0,0,1-1.74-1.61Zm.21,11.33v.07h.07a1.17,1.17,0,0,1,.49-.21v-.07h-.07A1.28,1.28,0,0,1,96.86,30.12Zm.7-.42v.14a.78.78,0,0,1,.34-.14v-.07h-.07A.5.5,0,0,1,97.56,29.7Zm.07-8v.07c1.17.89,1.78,1.33,1.81,1.33a.82.82,0,0,1,.21-.07,4.13,4.13,0,0,0-2-1.33Zm4.68,4.06a4.17,4.17,0,0,1-.77.7.14.14,0,0,0,.14.14,9.12,9.12,0,0,0,1.33-.49V26A2.64,2.64,0,0,0,102.31,25.78Zm.21-19h.21V6.9h-.35C102.39,6.8,102.44,6.76,102.52,6.76Z" fill="#fbae17"/><path d="M119.8,6.44q.95.09,4.42,3a43.23,43.23,0,0,0,6.35,6.22,10.33,10.33,0,0,0,1.85,1.42,6.68,6.68,0,0,0,1,.63V18c0,.05-.1.15-.31.32H133q-.8-.07-3.61-2.43-.12,0-.12.12c.24,0,.47.28.7.84a7.66,7.66,0,0,0,1.3,1.41.45.45,0,0,0,.05.2c-.05.21-.11.31-.19.31.11.28.22.43.33.46s.14-.21.43-.39c.44.07.65.24.65.51a5.7,5.7,0,0,0-1,.84c.18.08.26.18.26.31h.12a2.34,2.34,0,0,1,1-.5H133c.38.15.58.38.58.7a3.6,3.6,0,0,0-.9.89c-.18,0-.72.45-1.6,1.34H131v.14a7.81,7.81,0,0,0,1-.57h.19l.19.12a13.16,13.16,0,0,1,2.19-1.42,6.57,6.57,0,0,1,1.34-.82c.05,0,.07,0,.07.05l.39-.19c.21,0,.31.05.31.14a3.65,3.65,0,0,1-1.54,1.28c-1.87,1.33-4,2.86-6.27,4.61-.69.39-1,.73-1,1s0,.47-.07.5a.56.56,0,0,1,.07.19h-.07c0,.05,0,.07.07.07a20.75,20.75,0,0,1-.32,2.38l0,.25a7.37,7.37,0,0,1-.31,1.8c0,.05,0,.07.07.07,0,.38-.09,1.35-.26,2.88v.06a.54.54,0,0,0-.2.45h-.12l-.07-.77V35s0-.07.07-.07l-.07-.12V33.7q0-1,.12-3.72h.07c0-.05,0-.07-.07-.07A10.78,10.78,0,0,0,127,28H127l-.06-.12a.45.45,0,0,0,.06-.19H127a33,33,0,0,0-2.76,2.12q-.14,0-.72.57-.34.23-4,3.2a11.46,11.46,0,0,1-1.27.46h-.12a.74.74,0,0,1-.65-.77l1.08-.84h-.12a4.6,4.6,0,0,1-1.54,1h-.38s-.19-.19-.46-.58V32.6c1-.77,1.54-1.22,1.73-1.35V31A12.68,12.68,0,0,0,116,32.36a.64.64,0,0,0-.31,0l-.39-.58v-.12c.77-.55,1.16-.93,1.16-1.15s0-.48.07-.51a.06.06,0,0,0-.07-.07l.07-.32v-.19c0-.52,0-1.28.12-2.25,0,0,0-.06-.07-.06l.07-.33V26l.07-.39a.06.06,0,0,0-.07-.07l.07-.45v-.39s0-.06,0-.06,0-.06,0-.06a7.06,7.06,0,0,1,.19-1.68l-.07-.12v-.65l.07-.38s0-.05-.07-.05q.07-.48.12-3.15H117s0-.07-.07-.07A2.58,2.58,0,0,0,117,18c0-.3,0-.92.07-1.85h.06L117.1,16c0-.42.08-.63.13-.63l-.07-.14V15a.49.49,0,0,0,.14-.25.56.56,0,0,0-.07-.19,2.35,2.35,0,0,1,.12-.52l0-.13.12-.84-.07-.12a14,14,0,0,1,.33-1.8l-.07-.12a1.08,1.08,0,0,0,.12-.39,3.61,3.61,0,0,1-.63-.64,1.83,1.83,0,0,1,.7-.63h.27a3.74,3.74,0,0,1,2,.7V10a8.62,8.62,0,0,0-1.4-1.4c-.13-.1-.19-.18-.19-.26s.12-.27.24-.27V8a4.21,4.21,0,0,1-.69-.84v0a1.25,1.25,0,0,1,1-.53.84.84,0,0,0,.38.14Zm-1.16,5.2-.14.76.19.13c0-.08.08-.13.14-.13a1.13,1.13,0,0,0,.2.46c-.1.62-.14.94-.14,1v0H119c.11-.64.22-1,.31-1l0-.24,0-.46A1.9,1.9,0,0,0,118.64,11.64Zm.7,4.42a4.67,4.67,0,0,1-.38,1.66l.07.14v.51c0,.08,0,.12-.14.12l.07.14v.24l-.07.39.07.14a8.83,8.83,0,0,1-.27,1.66,2,2,0,0,1,.14.58.5.5,0,0,1-.19.07,2.26,2.26,0,0,1,.19.57c-.09,0-.14.06-.14.13s.14.05.14.12l-.06.14h.12V22.6c0-.28.08-1.31.26-3.08a.37.37,0,0,1-.07-.19,2.47,2.47,0,0,0,.26-.7c-.08,0-.12-.05-.12-.14v0h.12V18.3h-.12l.19-1.86-.07-.12.07-.14v-.12Zm-.65,7.12v.38c0,.05,0,.07,0,.07a.44.44,0,0,1,0,.19h.08c0-.06,0-.27.06-.64Zm0,1v.31h0v-.31Zm.13-1.49v.39h.06l.06-.32Zm.5,2.57-.19,2,.07.12q-.08.33-.12.33l0,.12a4.25,4.25,0,0,1-.12.7c.2,0,.32-.85.38-2.55v-.14l-.07-.12.07-.27v-.19Zm.07-2a.49.49,0,0,1,.07.19h.12a.5.5,0,0,1-.07-.19Zm0,.77v.33h.07v-.33Zm.32,7.25v.07h.07A6,6,0,0,0,121,30.24h0Q120.08,30.93,119.66,31.32Zm1.48-15.72v.07A5.2,5.2,0,0,1,121,16.9q.12,0,.12.12a.75.75,0,0,0-.12.32s0,0,0,.07-.13.12-.19.38h.07a.4.4,0,0,0-.07.19l.07.32c-.13,0-.19.47-.19,1.41a1.42,1.42,0,0,0,.07.27c-.09,0-.21.55-.33,1.66.09,0,.14.05.14.12s-.14.13-.2.38l.06.14a4.13,4.13,0,0,1-.2,1.4.06.06,0,0,0,.07.07l-.07.32v.52l0,.12.12.07c0,.44-.11.65-.19.65s0,.05.07.05l-.07.46V26l.07.31c-.09,0-.14.06-.14.13a.06.06,0,0,0,.07.07L120,27v.63a.92.92,0,0,0,.58-1,5.49,5.49,0,0,1,.14-1l-.07-.13.12-.84,0-.12a11.66,11.66,0,0,0,.24-3s.07,0,.07-.06a.06.06,0,0,0-.07-.07,7,7,0,0,0,.14-1.41.44.44,0,0,0-.07-.19l.07-.39v-.63l.13-.19a.72.72,0,0,1-.13-.39V18.1s0-.05.06-.05,0-.07-.06-.07l.06-.31-.06-.14c0-.26.08-.39.13-.39L121.2,17v-.31l.07-.34c-.09,0-.13,0-.13-.12v-.12h.13V15.6Zm-.71-2.16c0,.21,0,.31-.13.31a.06.06,0,0,0,.07.07c-.07.72-.13,1.08-.19,1.08a.48.48,0,0,1,0,.2l0,.26a0,0,0,0,0,0,.05l0,.46v.45s0,.05-.07.05l.07.14-.07.63a2.89,2.89,0,0,1,.07.58c-.05,0-.07,0-.07.07l.12.07.58-4A.59.59,0,0,0,120.43,13.44Zm-.25,4.47-.07.33h.12v-.33Zm.63-6v0a.57.57,0,0,1,.19.33h.14v-.07c-.08-.2-.17-.3-.26-.31Zm3.6,15.39-3.21,2.76v.05a21.79,21.79,0,0,0,2.3-2l1-.77v-.06ZM122,14.9v.27s0,.05.06.05l-.06.14v.19c0,.51-.07.77-.2.77v.12H122v.32a.53.53,0,0,1,0,.26c0,.05,0,.07,0,.07l0,.44v.77a.06.06,0,0,1-.07.07.07.07,0,0,0,.07.07l-.07.31v.07l.07.32h-.07a.07.07,0,0,0,.07.07c0,.25-.08.38-.14.38l.07.12V20c0,.09,0,.14-.12.14l0,.12c0,.05,0,.07,0,.07a4,4,0,0,1,.12.82c-.08,0-.12.07-.12.14v.06q.12,0,.12.06l-.12.27,0,.12,0,.12c0,.05,0,.07,0,.07a4,4,0,0,1-.12.84l.07.39v.63a.74.74,0,0,1-.14.38c.09,0,.14.07.14.14s-.17.31-.19.31l0,.13V25a4.84,4.84,0,0,1,0,.59.71.71,0,0,1,0,.2c-.06,0-.12.06-.19.19l.14,0-.07.33v.06a.94.94,0,0,1,.64-.39v.07h.06V26s-.06,0-.06-.07a8.53,8.53,0,0,1,1.28-1c0,.08,0,.12.07.12s.25-.12.25-.19v-.06c-.11.09-.17.13-.2.13h0v-.07A27,27,0,0,1,126,22.79v.12a.41.41,0,0,1,.25-.12v-.07h-.06a.44.44,0,0,1-.19.07.54.54,0,0,1,.44-.31l0,.12h.12v-.07l-.07-.12a24.85,24.85,0,0,1,2.5-1.93,3.21,3.21,0,0,1,1-.45c-.17-.16-.26-.29-.26-.39h0q0,.27-.39.27a6,6,0,0,1-1.92-1.35,1.77,1.77,0,0,0-.39.38,7,7,0,0,1,.83,1.09,1,1,0,0,1-.77.52,19.26,19.26,0,0,0-2.57-3.07l-.06.76v.44a.42.42,0,0,1-.07.26.06.06,0,0,0,.07.07c-.06.6-.12.9-.19.9l0,.12v.07a7.5,7.5,0,0,1-.63,1.54c-.09,0-.14,0-.14-.13a.07.07,0,0,1,.07-.07.4.4,0,0,0-.07-.19c0-1.05.07-1.88.07-2.5v-.07a.48.48,0,0,1,.07-.24.53.53,0,0,1-.07-.2h.07a.06.06,0,0,0-.07-.07l.07-.31V16.51A12.22,12.22,0,0,0,122,14.9Zm-.46-6.46.72.77-.07.12c.28,0,.79.49,1.54,1.47a22.26,22.26,0,0,1,1.46,1.8,11.18,11.18,0,0,1,1.3,1.27q.12,0,.51.39a38.19,38.19,0,0,0-4.31-4.93l-1.08-.89Zm.58,5v.05a10.38,10.38,0,0,0,1.41,1.73v-.05a19.65,19.65,0,0,1-1.34-1.73Zm.19-2.45v.07a6.31,6.31,0,0,0,1.1,1.66,1.74,1.74,0,0,1,.39.58H124c.18,0,.35.12.51.38h.07v.53a9.53,9.53,0,0,1,1,1.27,6,6,0,0,0,1,1.09l1.73,1.67V18.1l-.52-1-.13.07h-.12a7.24,7.24,0,0,1-.91-1.34,18.53,18.53,0,0,1-2.62-3A12.17,12.17,0,0,0,122.35,11ZM124,26.64v.07h.12a.37.37,0,0,1,.07-.19h-.07Q124,26.54,124,26.64Zm2.38-1a12.13,12.13,0,0,1-1.87,1.48v.06h.07a6.64,6.64,0,0,0,1.85-1.54Zm.43-.46a.46.46,0,0,1-.12.26h.07l.12-.19v-.07Zm3.85-2h.07c.08,0,.12,0,.12-.13h0C130.74,23.07,130.69,23.11,130.69,23.18Z" fill="#fbae17"/><path d="M143.88,7.68l.14.07s0,0,0-.07l.33.07c.61,0,1-.07,1.35-.07v.07l.14-.07.19.14.28-.07c1.12.21,1.76.46,1.94.74V9h.52l.41.07a.58.58,0,0,1,.33-.07l.28.07s0,0,0-.07c.9,0,1.35.16,1.35.47,0,.05-.11.16-.34.33h-.4a.06.06,0,0,1-.07-.07c-.44,0-.66.19-.66.55-.22,0-.33.12-.33.19-1.37.05-2.38.07-3,.07h-1.07a.44.44,0,0,0-.26.07.46.46,0,0,0-.21-.07l-.33.07V10.5c0,.05-.23.07-.66.07v.07a9.8,9.8,0,0,1,1.27.26l.12-.07.14.07a.52.52,0,0,1,.27-.07c0,.13.87.31,2.62.54q.33.18.33.27v.21a.71.71,0,0,1-.21.45l.67.07.28-.07.12.07.4-.07H150c.42.33.65.55.68.68v.12a.87.87,0,0,1-.61.48,7.46,7.46,0,0,0-1.94-.27v.07l-.14-.07-.26.07-.27-.07-.27.07c-.27,0-.41-.08-.41-.14a.29.29,0,0,1-.38,0l-.4.07h-.21c-.05,0-.07,0-.07-.07l-.13.07H144c-.14,0-.21.3-.21.88v.33a.06.06,0,0,1-.07.07s0,.05.07.05l-.07.34v.87a.64.64,0,0,1-.07.28s0,.05.07.05l-.07.68v.2a3.15,3.15,0,0,0,.07.61.58.58,0,0,0-.07.33l.07.33.14-.07h.59a.06.06,0,0,1,.07.07,2.1,2.1,0,0,1,.73-.14l.21.33c.05,0,.07,0,.07-.05l.27.05.92-.05a1.16,1.16,0,0,1,.55.86h-.08c0,.1.19.28.55.54,0,.49-.18.74-.55.74a24.77,24.77,0,0,1-2.6.26c-.09,0-.14.07-.14.14.41,0,.61,0,.61.07l.12-.07h.62l.59.47v.33c0,.33-.06.51-.19.54h-.07c-.05,0-.07,0-.07-.07l-.12.07h-.07l-.21-.14h-.34v.07c.07,0,.16.07.27.2l.14-.07a.77.77,0,0,1,.07.35l.14-.07h0v.19a.45.45,0,0,0-.26.14h-.48a2.82,2.82,0,0,0-.59.07l-.14-.07a2.14,2.14,0,0,1-.59.14.55.55,0,0,0-.21-.07.43.43,0,0,1-.2.07l-.14-.07-.14.07-.12-.07-.14.07a.44.44,0,0,1-.26-.07,4.62,4.62,0,0,1-.74.07h-.14a.06.06,0,0,1-.07-.07,2.41,2.41,0,0,1-.87.12h-.73c-.05,0-.07,0-.07-.05l-.13.05h-.33c0,.09,0,.14.05.14l-.05.47V24a.76.76,0,0,0,.05.27l-.05.13s0,.07.05.07l-.05.33v1.42a1.6,1.6,0,0,1-.14.73.44.44,0,0,1,.07.26l-.07.27.14.06-.07.15v.06h.12l.48-.06v.06l.14-.06h.4s.07,0,.07.06l.12-.06h.8v-.08h-.19V27.5h.07q.54,0,1.26.06s.07,0,.07-.06l.33.06h.28a3.37,3.37,0,0,1,2,.55.43.43,0,0,1,.2.07l.14-.07.12.07.14-.07c.44.2.66.46.66.8l-.19.53c.28,0,.46.2.53.61a.61.61,0,0,1-.27.54,2.38,2.38,0,0,1-.66-.14c-.27.06-.4.12-.4.19v.07c.44,0,.68.1.73.28v.12l-2.53.27v.07q.64,0,.78.21a.5.5,0,0,1,.21-.07c1.47.15,2.2.28,2.2.4l.14-.07a1.47,1.47,0,0,1,.6.4l-.12.21a2.68,2.68,0,0,1,1.06.33l.41.13v.07q0,.11-.21.21L149,33.2s-.07.12-.21.19H148l-.4,0-.13,0c-.45,0-.68-.08-.68-.12l-.12.07a3.73,3.73,0,0,1-1.21-.14c-.22,0-.33.09-.33.14l-.47-.07h-.47c-.13,0-.19,0-.19.07l-.34-.07h-.4a16.64,16.64,0,0,0-2.62.19.48.48,0,0,0-.07.26v.07a4,4,0,0,1,.35,1.28c0,.17-.1.26-.21.26v.28l-.19,1.54a.59.59,0,0,1,.05.19h-.05a.76.76,0,0,1,.05.21c0,1.07-.1,1.61-.19,1.61s0,.05.07.05c-.12.9-.26,1.35-.41,1.35h-.14V38.14a.07.07,0,0,1,.07-.07l-.07-.12a.46.46,0,0,0,.07-.21l-.14.07c-.05,0-.12-.11-.19-.33l.07-.33v-.47l-.07-.41a.4.4,0,0,0,.07-.21.42.42,0,0,1-.07-.26h.07s0-.07-.07-.07l.07-.45v-1l-.21.14h-.4c-.13,0-.26-.34-.4-1l-.13.07h-.35a7.75,7.75,0,0,0-1,.07l-.33-.07a.82.82,0,0,1-.21.07.53.53,0,0,1-.2-.07,6,6,0,0,1-.73.07h-.14c-.14,0-.25-.22-.33-.67-.1,0-.14,0-.14-.14q-.81.18-.81.6a.5.5,0,0,1-.19.07l-.14-.07h-.19l-.28-.46v-.28a.06.06,0,0,1,.07-.07l-.07-.12v-.14a2.67,2.67,0,0,1,1.54-.66v-.07c-.25,0-.4-.32-.46-.95-.15,0-.26-.13-.33-.4a1.58,1.58,0,0,1-.61-.66v-.41c0-.32.07-.5.21-.52l.12.05c.27,0,.4-.22.4-.66V28c0-.59,0-1.59.07-3l-.07-.33.14-.07a1.14,1.14,0,0,1-.14-.54V24a.07.07,0,0,1,.07-.07c0-.26-.18-.4-.54-.4-.13-.1-.19-.17-.19-.21,0-.54.1-.8.19-.8h.47a.94.94,0,0,0-.52-.93l0-.33a.8.8,0,0,1-.19-.4.48.48,0,0,1,.54-.55v-1a.78.78,0,0,1,0-.28,6,6,0,0,1-.12-.74l.07-.14s0-.05-.07-.05l.07-.68v-.26l-.07-.41c.05-.26.09-.4.12-.4s0-.07,0-.07a1.36,1.36,0,0,0,0-.26l0-.4.12-.07-.12-.27a12.87,12.87,0,0,1,.19-1.34l-.07-.12v-.07l.07-.14c-.31,0-.47-.25-.47-.74,0-.25.18-.44.54-.54l-.07-.12.21-.33v-.21l-.07-.14c.08,0,.15-.18.19-.53,0-.05,0-.07-.07-.07a3.1,3.1,0,0,0,.14-.8h-.07a.56.56,0,0,1-.26.07h-.07a.07.07,0,0,1-.07-.07l-.12.07h-.47a.51.51,0,0,0-.28.07l-.12-.07a.68.68,0,0,1-.28.07l-.6-.55a1.61,1.61,0,0,1,1.14-.4V9.22c-.15,0-.24-.16-.26-.47s.73-.51,2.2-.66v.07l.61-.14s0,0,0,.07A19.66,19.66,0,0,1,138.72,8a.48.48,0,0,1,.21-.06V8l.12-.06s.07,0,.07.06l.33-.06h.33c.05,0,.07,0,.07.06l.14-.06c1.1,0,1.94-.07,2.54-.07a.46.46,0,0,0,.21-.07l.12.07.14-.07a.06.06,0,0,1,.07.07A5.52,5.52,0,0,1,143.88,7.68Zm-9,11.46v.26H135v-.07a.56.56,0,0,1-.07-.19Zm.14-4.5a.51.51,0,0,1-.07.28L135,15v-.34Zm-.07.68v.34H135v-.34Zm1.74-6.57h-.06L135,8.89V9l.6.07q2.55-.13,2.55-.33h-.54l-.8.05V8.7ZM135,22v.41c.09,0,.13-.07.13-.2A.4.4,0,0,1,135,22Zm.06,2.16v.19c.09,0,.14,0,.14-.12Zm.07-5.76.14.07v-.21C135.14,18.27,135.1,18.32,135.1,18.4Zm0,.53V19h.07l.07-.27C135.14,18.73,135.1,18.8,135.1,18.93Zm0,.35a2.11,2.11,0,0,1,.07.52h.07v-.52Zm1.34-5.44c0,.09,0,.14-.07.14l.07.14v.4l-.07.4a.44.44,0,0,1,.07.26h.07c0-.48,0-.73.07-.73a.59.59,0,0,1-.07-.26l.07-.14a.63.63,0,0,1-.07-.21Zm0,1.41c0,.09,0,.13-.07.13a.46.46,0,0,1,.07.21h.07v-.34Zm0,2.28a.89.89,0,0,1,.07.47h.07v-.54ZM137.91,24c-.13,1.23-.24,2.47-.33,3.75.17,0,.26,0,.26.13H138a.06.06,0,0,0-.07-.07c.05-.45.1-.68.14-.68S138,27,138,27l.07-.35v-.45A.51.51,0,0,0,138,26s0-.06.07-.06l-.07-.35c0-.12,0-.19.07-.19L138,25V24Zm.81-9.91a.06.06,0,0,0-.07-.07c0,.14,0,.21-.07.21l.07.12v.21l-.07.12.14.07a.06.06,0,0,1,.07-.07l.07.14V15l-.28.07v.41l.14-.07.07.14v.47a.06.06,0,0,1-.07.07s0,.05.07.05c-.1,1.11-.14,1.85-.14,2.22a.56.56,0,0,1,.07.19h.07l.07-.33V16.72a.06.06,0,0,1,.07-.07.07.07,0,0,0-.07-.07l.07-.33v-.52c0-.05,0-.07,0-.07l0-.14,0-.27s0-.07,0-.07a5.89,5.89,0,0,0,.12-1.27v-.07Zm-.07-1.54v.19h.4c.07,0,.14-.09.21-.26h-.14Zm.14-1.42v.07h.47v-.07Zm1.61-2.53a.82.82,0,0,1-.21.07.06.06,0,0,1-.07-.07,4.32,4.32,0,0,1-1,.07V8.7h1.28l1.27-.07V8.7l.12-.07H144a.77.77,0,0,0,.33-.07l.4.07h1.47V8.56c-.53-.05-.91-.07-1.14-.07C144.24,8.49,142.68,8.51,140.4,8.56Zm-1,22.08v.14a.86.86,0,0,1,.47-.14v-.05h-.26A.52.52,0,0,1,139.45,30.64Zm0,2.82a1.51,1.51,0,0,1,.14.66.06.06,0,0,0-.07.07h.14v-.4s0-.07.05-.07a.67.67,0,0,1-.05-.26Zm.07-4.15v.13h.4a.54.54,0,0,0,.27-.06.61.61,0,0,0,.28.06h.19l.14-.06.07.13a6.88,6.88,0,0,1,1.73-.13h.61a.58.58,0,0,1,.26.06l.14-.06a6,6,0,0,0,.74.06l.33-.06v.06s.07,0,.07-.06a.45.45,0,0,1,.19.06l.67-.06v-.07l-2.07-.21a.51.51,0,0,1-.28.07V29.1s0,0,0,.07l-.47-.07h-.21A27.67,27.67,0,0,0,139.52,29.31Zm2.54-15.8v.14a.12.12,0,0,1-.13-.14.63.63,0,0,1-.21.07c-.85,0-1.36.08-1.53.26v-.12h-.13a4.79,4.79,0,0,1-.14,1.39.06.06,0,0,0,.07.07q-.09.81-.21.81l.07.14s0,.05-.07.05l.07.14v.07a2.87,2.87,0,0,1-.19,1.07.13.13,0,0,1,.12.14.59.59,0,0,1-.12.19l.12.07a1.19,1.19,0,0,0-.12.54l.05.12,1.49-.12v.07c.12,0,.38-.08.8-.14v.07l.13-.07.47.07v-.07l.14.07h.19v-.94l-.07-.33h.07a.43.43,0,0,1-.07-.2.06.06,0,0,1,.07-.07l-.07-.33v-.14c0-.05,0-.07.07-.07l-.07-.14v-.4l.07-.4s0-.06-.07-.06l.07-.47v-.73l.07-.68h-.07Zm-1.87,14h.28v.13h-.28Zm2.67-15.32a13.54,13.54,0,0,0-2.6.19l.14.21c-.05,0-.07,0-.07.05h.14a.11.11,0,0,0,.12-.12l.14.07.19-.14a.93.93,0,0,1,.21.14,1.41,1.41,0,0,1,.59-.21.55.55,0,0,0,.28.07h.2a.06.06,0,0,0,.07-.07c.36.05.54.09.54.14a.44.44,0,0,1,.26-.07v-.19l-.07-.14Zm-2,18.34q0,.12.12.12a.76.76,0,0,1,.21-.05v-.14A.62.62,0,0,1,140.87,30.52Zm.19-19.95v.07a1.81,1.81,0,0,1,.61,0,1.44,1.44,0,0,1,.53,0v-.07Zm1.28,0v.07l.47,0h.12l.47,0v-.07ZM144,12.11v.26a9.29,9.29,0,0,1,1-.07c.05,0,.07,0,.07.07l.12-.07c.46,0,.69.06.69.14l.33-.07h1.54v-.12C145.9,12.15,144.66,12.11,144,12.11Zm3.81.14v.12a.37.37,0,0,1,.19-.07v-.05Z" fill="#fbae17"/><path d="M157.64,2.77h.07c.23.09.63,1.24,1.19,3.43H159A.89.89,0,0,1,159.6,6a5.33,5.33,0,0,0-.21-.91,1,1,0,0,1,.63-.35h.06q.63,0,.63,1.47a9.87,9.87,0,0,1,.63,2.1c.24,0,.35.14.35.42h.07c.18,0,.34-.33.49-1l.35-.14c.25,0,.5.25.77.77a3.3,3.3,0,0,1-.42.84v.06a.6.6,0,0,1,.63.42,7.13,7.13,0,0,1-1.12,2c0,.1,0,.14.07.14,0,.19.11.28.21.28v.14h-.14q.42.72,2.52,5.53l2.1,4.82c.14,0,.21.19.21.49l.14-.07v.14h-.14v.14c.11,0,.21.1.28.28h.07v.14h-.14v.07c.23,0,.35.21.35.63h-.07v.07c.1,0,.24.24.42.7a1.58,1.58,0,0,0,.28.84.46.46,0,0,0-.07.21,5.46,5.46,0,0,1,.77,1.61.46.46,0,0,0-.07.21c.09,0,.18.21.28.63l-.07.14.21.35v.21a1.14,1.14,0,0,1-.84.56,1,1,0,0,1,.21.49H169l.42.77a.51.51,0,0,0-.07.28l.28.21-.07.14v.14c.18,0,.35.35.49,1.05-.06,0-.15.11-.28.35l-.28.21h-.14c-.14,0-.54-.8-1.19-2.38q-.07,0-1.26-2.52l-.28.21h-.28c-.18-.08-.36-.34-.56-.77-.37,0-.56,0-.56-.07l-.14.07a.46.46,0,0,0-.21-.07c-.28.1-.42.27-.42.49a2.74,2.74,0,0,1,.28,1q-.12,0-.21.42a.64.64,0,0,1,.21.14l-.07.14v.07c.13,0,.22.11.28.35v.21c.16.42.28.63.35.63l-.07.14c.19.37.3.56.35.56l-.07.14v.14c.19,0,.28,0,.28.14s-.14,0-.14.14.14.07.14.21l.14-.07a2.44,2.44,0,0,0,.84,1.39,2.63,2.63,0,0,1,.42.91l-.07.14a.55.55,0,0,1,.07.28,1.91,1.91,0,0,0-.49.35h-.35c-.32-.25-.8-1.42-1.47-3.49l-1.19-2.87-.07-.28-2.87.21.07.14v.21h.07c0,.05,0,.07-.07.07l.14,1h-.07a6.36,6.36,0,0,1,.21,2v.14a.07.07,0,0,0,.07.07.06.06,0,0,1-.07.07l.14,1.32s0,.07-.07.07l.07.35v3.78l-.07.35h-.07v-.14H161v.35l.14-.07v.14H161v.21h.14v.14h-.21a.46.46,0,0,1,.07.21c0,.37-.07.56-.21.56v.21h.14v.07h-.28a.48.48,0,0,0-.14-.28v-.42a.06.06,0,0,1,.07-.07,2.42,2.42,0,0,1-.21-.56h.07l.14.07v-.14a1.41,1.41,0,0,1-.21-.7.06.06,0,0,1,.07-.07l-.07-.14a.07.07,0,0,1,.07-.07l-.07-.35a.64.64,0,0,1,.07-.28l-.07-.42V36.9h.14v-.14h-.14l.14-.21v-.14l-.14.07v-.21l.14.07c0-.09,0-.14.07-.14-.15-.32-.24-.49-.28-.49a.46.46,0,0,0,.07-.21c-.14-.93-.21-1.42-.21-1.46a.55.55,0,0,0,.07-.21h-.14l.07-.35V33.2H160v-.07h.13v-.07c0-.05,0-.07-.07-.07a.06.06,0,0,1,.07-.07l-.07-.35.07-.14a.82.82,0,0,1-.21-.07c.08-.19.14-.28.21-.28a1.78,1.78,0,0,1-.13-.7h.06l-.14-.35.08-.42v-.07l-.14.07h-.07l.07-.35h-.07l.07-.14-.07-.14v-.21c-.1,0-.14-.09-.14-.28a34.43,34.43,0,0,1-4.13-.28l-.14.07a.53.53,0,0,0-.28-.07c-.51,1.47-.84,2.35-1,2.66a.46.46,0,0,1,.07.21l-.21.28.07.14a.46.46,0,0,0-.07.21h-.14V32.5h-.07a.64.64,0,0,1-.14.42v.35c-.09,0-.14.07-.14.21h-.07q-.1,0-.21-.21c0-.24.09-.38.28-.42l-.07-.35c0-.1.06-.14.14-.14a.06.06,0,0,0,.07.07l-.07-.35c.07-.24.16-.35.28-.35v-.49q0-.1.21-.21l-.07-.14a8.49,8.49,0,0,1,.63-1.4.46.46,0,0,1-.07-.21c.05,0,.07,0,.07-.07a.51.51,0,0,1-.28-.07l-.14.07a.46.46,0,0,0-.21-.07.5.5,0,0,0-.56.56l-.14-.07h-.07l.07.14a14.27,14.27,0,0,0-.84,1.89s.07,0,.07.07a.24.24,0,0,0-.28.28.46.46,0,0,1,.07.21l-.14-.07a1.88,1.88,0,0,1-.28.63l.07.14a.46.46,0,0,0-.07.21l-.14-.07a.53.53,0,0,1-.21.49v.21c-.09,0-.14,0-.14.07a.46.46,0,0,1,.07.21l-.14-.08V34l.07.13a1,1,0,0,1-.35.56l.07.14a1.28,1.28,0,0,0-.21.49.55.55,0,0,1,.07.21,2.11,2.11,0,0,1-.77.28c-.21-.09-.32-.18-.35-.28v-.14a3.74,3.74,0,0,0,.28-.91c-.13,0-.24-.11-.35-.35V33.9a2.84,2.84,0,0,0,.35-1,.06.06,0,0,0,.07-.07v-.35h-.07a1.63,1.63,0,0,1-.49.84.75.75,0,0,1-.77-.56V32.5a10.86,10.86,0,0,0,1.4-2.66h-.07a7.56,7.56,0,0,0-1,.21.83.83,0,0,1-.77-.42,2.55,2.55,0,0,0,.35-.42c-.14,0-.21-.05-.21-.14V29a.61.61,0,0,1,.49-.35v.07a.55.55,0,0,1,.28-.07v-.07c-.14,0-.21,0-.21-.14v-.21c0-.2.52-.32,1.54-.35l-.07-.49c.14,0,.26-.09.35-.28V27h-.07c0,.15-.11.29-.35.42a.73.73,0,0,1-.56-.7v-.14a32.72,32.72,0,0,0,2.1-4.27H152c-.09,0-.23-.09-.42-.28h-.07a2.54,2.54,0,0,1-.77,1.4h-.14a.6.6,0,0,1-.56-.42v-.35c.64-1.27,1.3-2.69,2-4.26q2.37-4.76,4.27-8a7.38,7.38,0,0,0-1.12-1.81V8.51a1.17,1.17,0,0,1,.56-.49q.54,0,1.05,1.32c.21,0,.44-.41.7-1.25h.07l-.07-.49V7.53A.69.69,0,0,1,158,6.9a.63.63,0,0,0,.21.07V6.9a9.81,9.81,0,0,1-.7-2.24,5.43,5.43,0,0,0-.56-1.26V3.26A.86.86,0,0,1,157.64,2.77ZM155,18.44a25.3,25.3,0,0,1-1.61,3.21.55.55,0,0,1,.07.21c-.14,0-.51.73-1.12,2.17a27.45,27.45,0,0,0-1.19,2.66v.14h.07c.24,0,.82-1.16,1.75-3.5A42.76,42.76,0,0,0,154.84,19s.13-.14.28-.42v-.14Zm.42-.77a2.63,2.63,0,0,0-.28.63c.06,0,.17-.19.35-.56v-.07Zm-.14,7.83v.28c.42-.09.63-.18.63-.28v-.07Zm2.45-5a1.87,1.87,0,0,1-.35.56c-.25.4-.41.61-.49.62l.07.14-1.12,2.31v.07a.07.07,0,0,1,.07.07c-.12,0-.24.19-.35.49h.07l.35-.07v.07c.27,0,.52-.46.77-1.4l1.05-2.79v-.07Zm-1.82,6.85-.07.14h.07a11.13,11.13,0,0,1,1.26-.07v-.07Zm1.19-2.17H157c-.24,0-.38.1-.42.28h.07q2.13-.21,2.52-.21v-.07a3.94,3.94,0,0,1-.77-.07A12,12,0,0,1,157.08,25.22Zm2.17-6.64a.55.55,0,0,1-.14.28v.21s-.11.11-.21.35l.07.14a.13.13,0,0,1-.14.14.06.06,0,0,0-.07-.07l-.07.28a.63.63,0,0,1,.07.21q-.21,0-.42.84a25.11,25.11,0,0,0-1.4,3.7H157c.39,0,.72-.07,1-.07h.21a7,7,0,0,1,.77.07l.14-.07a5.08,5.08,0,0,1,1.18.28l.14-.07a.06.06,0,0,1,.07.07l1.05-.14v-.14L160.15,21l-.83-2.31v-.07Zm.21,9.86h-.28c-.28,0-.82,0-1.61.14v.14h.07c.26,0,.85,0,1.75.07l.42-.07c0,.05,0,.07.07.07a.57.57,0,0,1,.06-.21c-.09,0-.13-.07-.13-.21l-.14.07s-.07,0-.07-.07Zm.62-13.71a.61.61,0,0,1-.2.35v.07c0,.09.05.14.14.14l.13-.49v-.07Zm.35.91a1,1,0,0,1-.21.49v.49a4.77,4.77,0,0,1,.49,1.12V18c.16,0,.46.51.91,1.54,0,0,.19.35.56,1a.06.06,0,0,0-.07.07c.19,0,.28.09.28.21h.07v-.07a.85.85,0,0,1-.14-.35h.21s0,.11.07.28h.14v-.14a5.72,5.72,0,0,1-.63-1.33.55.55,0,0,0,.07-.21,2.4,2.4,0,0,1-.63-1.33l.07-.14c-.25,0-.44-.38-.56-1.12a1.75,1.75,0,0,1-.35-.77Zm.21,12.8c.06.23.13.35.21.35h.21a3.25,3.25,0,0,0,.63-.07c.05,0,.07,0,.07.07l.35-.07h.28v-.14l-1.47-.21A.51.51,0,0,1,160.64,28.44Zm.21,5.94v.7h.07v-.7Zm1.33-12.17v.07a12.28,12.28,0,0,0,.91,2.38h.35v-.14l-1.19-2.31Zm.35-1.32V21a.14.14,0,0,0,.14.14v-.21Zm.14.49v.06a.55.55,0,0,1,.07.21H163v-.14c0-.09,0-.13-.14-.13Zm.35.69v.21h.14v-.07A.12.12,0,0,0,163,22.07Zm.21.42a.55.55,0,0,1,.07.21h.07v-.21Zm.35.56v.07a.85.85,0,0,1,.14.35h.07v-.21a.46.46,0,0,1-.07-.21Zm.7,2.52H164c-.05,0-.07,0-.07-.07a.68.68,0,0,1-.35.07v.14c.79,0,1.19.21,1.19.63a.31.31,0,0,1-.35.35v.14a1.24,1.24,0,0,1,.84.28l-.07-.14V26.9l.07-.14c-.15,0-.34-.44-.56-1.33A.75.75,0,0,1,164.28,25.57Zm2.38.77-.14.21v.07a6.5,6.5,0,0,0,.7,1.05l-.07.14.28.35c-.05,0-.07,0-.07.07l.14.07v-.14c-.11-.51-.25-.77-.42-.77v-.07c0-.05,0-.07.07-.07C167,26.64,166.8,26.34,166.66,26.34Z" fill="#fbae17"/><path d="M173.46,6.44q.94.09,4.43,3a42.83,42.83,0,0,0,6.34,6.22,10.22,10.22,0,0,0,1.86,1.42,6.68,6.68,0,0,0,1,.63V18c0,.05-.11.15-.32.32h-.12q-.78-.07-3.6-2.43-.12,0-.12.12c.23,0,.46.28.7.84a7.38,7.38,0,0,0,1.29,1.41.64.64,0,0,0,.05.2c0,.21-.11.31-.19.31.12.28.23.43.33.46s.15-.21.44-.39c.43.07.65.24.65.51a6.1,6.1,0,0,0-1,.84c.18.08.27.18.27.31h.12a2.32,2.32,0,0,1,1-.5h0c.39.15.58.38.58.7a3.38,3.38,0,0,0-.89.89c-.19,0-.72.45-1.61,1.34h-.05v.14a8.19,8.19,0,0,0,1-.57h.19l.2.12a12.65,12.65,0,0,1,2.18-1.42,6.93,6.93,0,0,1,1.35-.82s.07,0,.07.05l.38-.19c.21,0,.32.05.32.14a3.77,3.77,0,0,1-1.54,1.28c-1.88,1.33-4,2.86-6.28,4.61-.69.39-1,.73-1,1s0,.47-.07.5a.4.4,0,0,1,.07.19h-.07c0,.05,0,.07.07.07-.14,1.36-.25,2.15-.31,2.38l.05.25a7,7,0,0,1-.32,1.8.06.06,0,0,0,.07.07c0,.38-.08,1.35-.26,2.88v.06a.53.53,0,0,0-.19.45h-.12l-.07-.77V35s0-.07.07-.07l-.07-.12V33.7q0-1,.12-3.72h.07a.06.06,0,0,0-.07-.07,13.69,13.69,0,0,0,.14-1.93h0l0-.12a.59.59,0,0,0,0-.19h0a33,33,0,0,0-2.76,2.12q-.15,0-.72.57-.34.23-4,3.2a11.14,11.14,0,0,1-1.28.46h-.12a.75.75,0,0,1-.65-.77l1.09-.84H172a4.61,4.61,0,0,1-1.53,1h-.39a2.86,2.86,0,0,1-.45-.58V32.6c1-.77,1.53-1.22,1.73-1.35V31a12.68,12.68,0,0,0-1.73,1.35.69.69,0,0,0-.32,0l-.38-.58v-.12c.77-.55,1.15-.93,1.15-1.15s0-.48.07-.51,0-.07-.07-.07l.07-.32v-.19c0-.52,0-1.28.12-2.25,0,0,0-.06-.07-.06l.07-.33V26l.07-.39a.06.06,0,0,0-.07-.07l.07-.45v-.39a.05.05,0,0,1,.06-.06.05.05,0,0,0-.06-.06,6.7,6.7,0,0,1,.2-1.68l-.07-.12v-.65l.07-.38s0-.05-.07-.05q.06-.48.12-3.15h.07a.06.06,0,0,0-.07-.07,3.67,3.67,0,0,0,.07-.51c0-.3,0-.92.07-1.85h0l0-.14q0-.63.12-.63l-.07-.14V15a.49.49,0,0,0,.14-.25.4.4,0,0,0-.07-.19,2.35,2.35,0,0,1,.12-.52l0-.13.12-.84L171,13a15.8,15.8,0,0,1,.34-1.8l-.07-.12a1.08,1.08,0,0,0,.12-.39c-.05,0-.26-.21-.63-.64a1.76,1.76,0,0,1,.7-.63h.26a3.8,3.8,0,0,1,2,.7V10a9.13,9.13,0,0,0-1.4-1.4c-.13-.1-.2-.18-.2-.26s.12-.27.25-.27V8a4.08,4.08,0,0,1-.7-.84v0a1.25,1.25,0,0,1,1-.53.87.87,0,0,0,.39.14Zm-1.15,5.2-.14.76.19.13a.15.15,0,0,1,.14-.13,1.12,1.12,0,0,0,.19.46c-.09.62-.14.94-.14,1v0h.07c.12-.64.22-1,.32-1l-.06-.24.06-.46A2.12,2.12,0,0,0,172.31,11.64Zm.7,4.42a4.78,4.78,0,0,1-.39,1.66l.07.14v.51c0,.08,0,.12-.14.12l.07.14v.24l-.07.39.07.14a9.17,9.17,0,0,1-.26,1.66,2.39,2.39,0,0,1,.14.58.56.56,0,0,1-.19.07,2.26,2.26,0,0,1,.19.57c-.09,0-.14.06-.14.13s.14.05.14.12l-.07.14h.12V22.6c0-.28.09-1.31.26-3.08a.5.5,0,0,1-.07-.19,2.3,2.3,0,0,0,.27-.7c-.09,0-.13-.05-.13-.14v0H173V18.3h-.13l.2-1.86-.07-.12.07-.14v-.12Zm-.65,7.12v.38c0,.05,0,.07-.05.07a.67.67,0,0,1,.05.19h.07c0-.06,0-.27.07-.64Zm-.05,1v.31h.05v-.31Zm.12-1.49v.39h.07l.05-.32Zm.51,2.57-.2,2,.07.12q-.06.33-.12.33l.05.12a4.25,4.25,0,0,1-.12.7q.3,0,.39-2.55v-.14l-.07-.12.07-.27v-.19Zm.07-2a.76.76,0,0,1,.07.19h.12a.37.37,0,0,1-.07-.19Zm0,.77v.33h.07v-.33Zm.31,7.25v.07h.07a6,6,0,0,0,1.28-1.15h0C174,30.7,173.6,31.06,173.32,31.32Zm1.49-15.72v.07a5.78,5.78,0,0,1-.19,1.23q.12,0,.12.12a.75.75,0,0,0-.12.32s0,0,0,.07-.14.12-.19.38h.07a.4.4,0,0,0-.07.19l.07.32c-.13,0-.2.47-.2,1.41,0,0,0,.11.07.27-.09,0-.2.55-.33,1.66.09,0,.14.05.14.12s-.13.13-.19.38l.05.14a4.35,4.35,0,0,1-.19,1.4c0,.05,0,.07.07.07l-.07.32v.52l-.05.12.12.07c-.05.44-.11.65-.19.65s0,.05.07.05l-.07.46V26l.07.31c-.1,0-.14.06-.14.13a.06.06,0,0,0,.07.07l-.07.45v.63a.92.92,0,0,0,.57-1,6.85,6.85,0,0,1,.14-1l-.07-.13.13-.84-.06-.12a10.79,10.79,0,0,0,.25-3s.07,0,.07-.06a.07.07,0,0,0-.07-.07,7.74,7.74,0,0,0,.14-1.41.64.64,0,0,0-.07-.19l.07-.39v-.63l.12-.19a.79.79,0,0,1-.12-.39V18.1a0,0,0,0,1,.05-.05s0-.07-.05-.07l.05-.31-.05-.14q0-.39.12-.39l-.07-.12v-.31l.07-.34a.11.11,0,0,1-.12-.12v-.12h.12V15.6Zm-.72-2.16c0,.21,0,.31-.12.31s0,.07.07.07a2.94,2.94,0,0,1-.19,1.08.71.71,0,0,1,.05.2l-.05.26s0,.05.05.05l-.05.46v.45s0,.05-.07.05l.07.14-.07.63a3.88,3.88,0,0,1,.07.58s-.07,0-.07.07l.12.07.58-4A.63.63,0,0,0,174.09,13.44Zm-.24,4.47-.07.33h.12v-.33Zm.63-6v0a.64.64,0,0,1,.19.33h.14v-.07c-.08-.2-.17-.3-.26-.31Zm3.6,15.39-3.22,2.76v.05a22.86,22.86,0,0,0,2.31-2l1-.77v-.06ZM175.7,14.9v.27s0,.05.07.05l-.07.14v.19c0,.51-.06.77-.19.77v.12h.12v.32a.67.67,0,0,1,0,.26c0,.05,0,.07,0,.07l0,.44v.77a.07.07,0,0,1-.07.07.06.06,0,0,0,.07.07l-.07.31v.07l.07.32h-.07a.06.06,0,0,0,.07.07c0,.25-.08.38-.14.38l.07.12V20c0,.09,0,.14-.13.14l.06.12c0,.05,0,.07-.06.07a4.44,4.44,0,0,1,.13.82c-.08,0-.13.07-.13.14v.06c.09,0,.13,0,.13.06l-.13.27.06.12-.06.12c0,.05,0,.07.06.07a4.45,4.45,0,0,1-.13.84l.07.39v.63a.66.66,0,0,1-.14.38c.1,0,.14.07.14.14s-.16.31-.19.31l.05.13V25a3.42,3.42,0,0,1-.05.59.48.48,0,0,1,.05.2c-.05,0-.12.06-.19.19l.14,0-.07.33v.06a1,1,0,0,1,.65-.39v.07h0V26s0,0,0-.07a8,8,0,0,1,1.28-1c0,.08,0,.12.07.12s.24-.12.24-.19v-.06a.53.53,0,0,1-.19.13h0v-.07a25.76,25.76,0,0,1,2.57-2.05v.12a.39.39,0,0,1,.24-.12v-.07h-.05a.49.49,0,0,1-.19.07.51.51,0,0,1,.43-.31l-.05.12h.12v-.07l-.07-.12a26.33,26.33,0,0,1,2.5-1.93,3.14,3.14,0,0,1,1-.45q-.27-.24-.27-.39h0c0,.18-.13.27-.38.27A5.88,5.88,0,0,1,181,18.56a1.85,1.85,0,0,0-.38.38,7.44,7.44,0,0,1,.82,1.09,1,1,0,0,1-.77.52,18.72,18.72,0,0,0-2.57-3.07l0,.76v.44a.5.5,0,0,1-.07.26s0,.07.07.07c-.06.6-.12.9-.19.9l.05.12v.07a7.5,7.5,0,0,1-.63,1.54c-.1,0-.14,0-.14-.13a.06.06,0,0,1,.07-.07.56.56,0,0,0-.07-.19c0-1.05.07-1.88.07-2.5v-.07a.4.4,0,0,1,.07-.24.4.4,0,0,1-.07-.2h.07a.07.07,0,0,0-.07-.07l.07-.31V16.51A12.82,12.82,0,0,0,175.7,14.9Zm-.46-6.46.72.77-.07.12c.28,0,.79.49,1.54,1.47s1.29,1.53,1.47,1.8a10.53,10.53,0,0,1,1.29,1.27q.12,0,.51.39a38.25,38.25,0,0,0-4.3-4.93l-1.09-.89Zm.58,5v.05a10.18,10.18,0,0,0,1.42,1.73v-.05a21.5,21.5,0,0,1-1.35-1.73ZM176,11v.07a6.21,6.21,0,0,0,1.11,1.66,1.81,1.81,0,0,1,.38.58h.19c.19,0,.36.12.51.38h.07v.53a9.53,9.53,0,0,1,1,1.27,6.45,6.45,0,0,0,1,1.09L182,18.24V18.1l-.52-1-.12.07h-.12a6.68,6.68,0,0,1-.91-1.34,18.65,18.65,0,0,1-2.63-3A11,11,0,0,0,176,11Zm1.68,15.65v.07h.13a.37.37,0,0,1,.07-.19h-.07C177.73,26.53,177.69,26.57,177.69,26.64Zm2.38-1a11.59,11.59,0,0,1-1.87,1.48v.06h.07a6.5,6.5,0,0,0,1.85-1.54Zm.44-.46a.46.46,0,0,1-.12.26h.07l.12-.19v-.07Zm3.84-2h.08c.08,0,.12,0,.12-.13h-.05C184.4,23.07,184.35,23.11,184.35,23.18Z" fill="#fbae17"/></g></g></svg>