<svg xmlns="http://www.w3.org/2000/svg" viewBox="0 0 257.07 47.42"><title>polling voting</title><g id="Layer_2" data-name="Layer 2"><g id="Layer_1-2" data-name="Layer 1"><rect x="0.5" y="0.5" width="256.07" height="46.42" fill="#292831" stroke="#0c0003" stroke-miterlimit="10"/><path d="M39.13,14.92h2.2V30.67h-2.2Zm1.13,7.54h5a2.28,2.28,0,0,0,1.25-.34,2.23,2.23,0,0,0,.84-.95,3.19,3.19,0,0,0,.3-1.42,3.23,3.23,0,0,0-.3-1.43,2.31,2.31,0,0,0-.84-1A2.36,2.36,0,0,0,45.3,17h-5v-2.1h5a5,5,0,0,1,2.48.6,4.18,4.18,0,0,1,1.66,1.7A5.17,5.17,0,0,1,50,19.75a5.14,5.14,0,0,1-.59,2.53A4,4,0,0,1,47.7,24a5,5,0,0,1-2.48.6h-5Z" fill="#fff"/><path d="M55,30.11a4.9,4.9,0,0,1-1.94-2,6.43,6.43,0,0,1-.69-3V20.57a6.44,6.44,0,0,1,.69-3.05,4.9,4.9,0,0,1,1.94-2,6.2,6.2,0,0,1,5.8,0,4.92,4.92,0,0,1,2,2,6.44,6.44,0,0,1,.69,3.05V25a6.43,6.43,0,0,1-.69,3,4.92,4.92,0,0,1-2,2,6.2,6.2,0,0,1-5.8,0Zm4.62-1.9A2.94,2.94,0,0,0,60.79,27a4.12,4.12,0,0,0,.4-1.87V20.49a4.12,4.12,0,0,0-.4-1.87,2.94,2.94,0,0,0-1.15-1.24,3.26,3.26,0,0,0-1.72-.44,3.2,3.2,0,0,0-1.71.44,2.88,2.88,0,0,0-1.15,1.24,4.12,4.12,0,0,0-.41,1.87V25.1A4.12,4.12,0,0,0,55.06,27a2.88,2.88,0,0,0,1.15,1.24,3.2,3.2,0,0,0,1.71.44A3.26,3.26,0,0,0,59.64,28.21Z" fill="#fff"/><path d="M66.81,14.92H69V30.67H66.81Zm1.11,13.65h9v2.1h-9Z" fill="#fff"/><path d="M79.52,14.92h2.21V30.67H79.52Zm1.11,13.65h9v2.1h-9Z" fill="#fff"/><path d="M94.45,30.67H92.24V14.92h2.21Z" fill="#fff"/><path d="M98.34,14.92h2l7.7,12.17-.27.29V14.92H110V30.66h-2l-7.68-12,.26-.28V30.66H98.34Z" fill="#fff"/><path d="M124.63,22.19v2.75A6.63,6.63,0,0,1,124,28,5,5,0,0,1,122,30.1a5.63,5.63,0,0,1-2.9.73,6,6,0,0,1-2.93-.69,4.79,4.79,0,0,1-2-1.94,6,6,0,0,1-.69-2.91V20.64a6.63,6.63,0,0,1,.68-3.09,5,5,0,0,1,1.93-2.06,5.6,5.6,0,0,1,2.9-.73,5.37,5.37,0,0,1,2.49.58A5.28,5.28,0,0,1,123.46,17a6,6,0,0,1,1,2.46h-2.39a3.39,3.39,0,0,0-.66-1.36,3.23,3.23,0,0,0-1.09-.87,3.25,3.25,0,0,0-3,.17,3,3,0,0,0-1.14,1.31,4.44,4.44,0,0,0-.4,1.95v4.65a3.77,3.77,0,0,0,.41,1.78,2.87,2.87,0,0,0,1.16,1.18,3.51,3.51,0,0,0,1.74.43,3.3,3.3,0,0,0,1.71-.44A3,3,0,0,0,122,27a4.46,4.46,0,0,0,.4-2V24.3h-3.19V22.19Z" fill="#fff"/><path d="M134.22,33.66H132.1l7.31-20.6h2.12Z" fill="#fff"/><path d="M146.88,14.92h2.41l3.78,12.35,3.78-12.35h2.4l-5.13,15.75H152Z" fill="#fff"/><path d="M163.61,30.11a5,5,0,0,1-1.94-2,6.43,6.43,0,0,1-.69-3V20.57a6.44,6.44,0,0,1,.69-3.05,5,5,0,0,1,1.94-2,6.22,6.22,0,0,1,5.81,0,5,5,0,0,1,1.94,2,6.44,6.44,0,0,1,.69,3.05V25a6.43,6.43,0,0,1-.69,3,5,5,0,0,1-1.94,2,6.22,6.22,0,0,1-5.81,0Zm4.62-1.9A2.88,2.88,0,0,0,169.38,27a4.12,4.12,0,0,0,.41-1.87V20.49a4.12,4.12,0,0,0-.41-1.87,2.88,2.88,0,0,0-1.15-1.24,3.2,3.2,0,0,0-1.71-.44,3.24,3.24,0,0,0-1.72.44,2.88,2.88,0,0,0-1.15,1.24,4.12,4.12,0,0,0-.4,1.87V25.1a4.12,4.12,0,0,0,.4,1.87,2.88,2.88,0,0,0,1.15,1.24,3.24,3.24,0,0,0,1.72.44A3.2,3.2,0,0,0,168.23,28.21Z" fill="#fff"/><path d="M173.46,14.92h11.11V17H173.46Zm4.45,1.29h2.21V30.67h-2.21Z" fill="#fff"/><path d="M188.94,30.67h-2.21V14.92h2.21Z" fill="#fff"/><path d="M192.84,14.92h2l7.7,12.17-.26.29V14.92h2.19V30.66h-2l-7.67-12,.26-.28V30.66h-2.19Z" fill="#fff"/><path d="M219.13,22.19v2.75a6.76,6.76,0,0,1-.68,3.09,5,5,0,0,1-1.94,2.07,5.59,5.59,0,0,1-2.89.73,6,6,0,0,1-2.93-.69,4.88,4.88,0,0,1-2-1.94,6,6,0,0,1-.69-2.91V20.64a6.76,6.76,0,0,1,.68-3.09,5,5,0,0,1,1.94-2.06,5.59,5.59,0,0,1,2.89-.73,5.38,5.38,0,0,1,2.5.58A5.28,5.28,0,0,1,218,17a6.17,6.17,0,0,1,1,2.46h-2.39a3.39,3.39,0,0,0-.66-1.36,3.26,3.26,0,0,0-1.1-.87,3.25,3.25,0,0,0-3,.17,3,3,0,0,0-1.13,1.31,4.44,4.44,0,0,0-.41,1.95v4.65a3.66,3.66,0,0,0,.42,1.78,2.87,2.87,0,0,0,1.16,1.18,3.51,3.51,0,0,0,1.74.43,3.3,3.3,0,0,0,1.71-.44A3,3,0,0,0,216.47,27a4.6,4.6,0,0,0,.4-2V24.3h-3.2V22.19Z" fill="#fff"/></g></g></svg>