<svg xmlns="http://www.w3.org/2000/svg" viewBox="0 0 55.98 46.09"><title>tg</title><g id="Layer_2" data-name="Layer 2"><g id="Layer_1-2" data-name="Layer 1"><path d="M46.35,46.09l.49,0a3.43,3.43,0,0,0,3.28-2.76c.12-.5.2-1,.28-1.54q.52-3.33,1-6.66c.37-2.42.74-4.85,1.1-7.27s.69-4.63,1-6.95c.4-2.72.81-5.44,1.21-8.16.37-2.49.72-5,1.11-7.47a6.77,6.77,0,0,0-.38-3.7A2.31,2.31,0,0,0,52.7.07a14.55,14.55,0,0,0-1.94.61C45.5,2.77,40.24,4.83,35,7,24.84,11.11,14.69,15.3,4.54,19.46A9.65,9.65,0,0,0,1.28,21.3,5,5,0,0,0,.14,22.71a1.11,1.11,0,0,0,.39,1.5,3.07,3.07,0,0,0,.76.4c1.13.4,2.26.81,3.41,1.17,2.28.71,4.56,1.41,6.85,2.07a7.12,7.12,0,0,0,7.27-1.59A39.47,39.47,0,0,1,23.19,23c5.43-3.78,11-7.31,16.64-10.83a5.21,5.21,0,0,1,1.85-.7c.29-.05.64-.12.86.15s.08.6,0,.88a7.41,7.41,0,0,1-1.56,2.2l-10.66,10C28.9,26,27.5,27.23,26.14,28.54A7.33,7.33,0,0,0,25,30a2.37,2.37,0,0,0-.36,1.63,3,3,0,0,0,1.1,2,16,16,0,0,0,1.42,1L43.3,45.47a1.66,1.66,0,0,0,.35.18A9,9,0,0,0,46.35,46.09Z" fill="#fff"/></g></g></svg>