<svg xmlns="http://www.w3.org/2000/svg" viewBox="0 0 45.83 37.39"><title>twitter</title><g id="Layer_2" data-name="Layer 2"><g id="Layer_1-2" data-name="Layer 1"><path d="M0,33.18a.91.91,0,0,0,.16.11,25.53,25.53,0,0,0,2.45,1.37,26.74,26.74,0,0,0,11.31,2.72,29.25,29.25,0,0,0,4-.2,28.18,28.18,0,0,0,4.26-.85,25.32,25.32,0,0,0,12.31-7.88A27.77,27.77,0,0,0,40.1,18.08a26,26,0,0,0,1-5.19c0-.44.08-.88.08-1.32,0-.69,0-1.39,0-2.08,0-.11,0-.2.11-.26a.94.94,0,0,0,.12-.09,18.89,18.89,0,0,0,4.26-4.39l.15-.24,0,0a21.46,21.46,0,0,1-2.55.9,12,12,0,0,1-2.69.49,9.85,9.85,0,0,0,2.48-2.2A8.42,8.42,0,0,0,44.57.74l-.84.45A18.72,18.72,0,0,1,38.8,3a.25.25,0,0,1-.27-.08c-.15-.15-.3-.3-.47-.44a9.19,9.19,0,0,0-8.3-2.2A9.09,9.09,0,0,0,23.44,5a9.09,9.09,0,0,0-1,5.81c0,.25.08.5.12.79A26.57,26.57,0,0,1,11.79,8.73a26.86,26.86,0,0,1-8.68-7A9.27,9.27,0,0,0,1.87,7.17,9.39,9.39,0,0,0,6,14.32a9.52,9.52,0,0,1-4.25-1.17,9.53,9.53,0,0,0,7.47,9.37,5.45,5.45,0,0,1-1.37.27c-.46,0-.92.05-1.38,0s-.92-.07-1.39-.12a9.13,9.13,0,0,0,2.27,3.72,9.36,9.36,0,0,0,6.47,2.81,18.19,18.19,0,0,1-4.33,2.57A19.34,19.34,0,0,1,0,33.18Z" fill="#fff"/></g></g></svg>