<svg xmlns="http://www.w3.org/2000/svg" viewBox="0 0 49.79 53.92"><title>uniswap</title><g id="Layer_2" data-name="Layer 2"><g id="Layer_1-2" data-name="Layer 1"><path d="M6.73,10.67c.09,0,.16,0,.21.13a2.86,2.86,0,0,0,.36.52c.1.14.17.3.26.45s.17.17.21.28,0,.21.18.31.16.33.26.48a3.26,3.26,0,0,0,.29.36.38.38,0,0,1,.1.12c.09.16.13.37.26.48a.51.51,0,0,1,.2.34c0,.06.11.1.18.16,0,.26.16.44.34.62l0,0c.09.21.18.42.29.62a.64.64,0,0,0,.18.25c.19.14.16.41.37.54s.18.31.27.46a1,1,0,0,0,.25.29,4.44,4.44,0,0,0,.53.28,1,1,0,0,0,.28.12c.12,0,.3.09.37,0,.22-.18.46-.13.69-.16s.33.07.4-.16c0,0,.09,0,.14,0s.3,0,.34-.16a.09.09,0,0,1,0,0c.26.05.39-.2.58-.3s.25-.29.34-.46a1.66,1.66,0,0,0,.12-.42c0-.11-.07-.23-.12-.34a2.12,2.12,0,0,0-.12-.2s-.06,0-.07-.09c0-.29-.26-.41-.47-.55a2,2,0,0,1-.35-.31c-.1-.09-.18-.19-.27-.28a4.72,4.72,0,0,1-.79-.68,5.9,5.9,0,0,0-.79-.63c-.18-.17-.33-.38-.51-.56s-.24-.16-.35-.26a4,4,0,0,1-.27-.31,3.71,3.71,0,0,0-.27-.29c-.19-.17-.39-.32-.57-.49s-.34-.36-.52-.54-.47-.43-.72-.64-.27-.17-.37-.27S8,9,7.8,8.86,7.3,8.37,7,8.12A.44.44,0,0,1,7,8c-.1-.14-.18-.3-.29-.43s-.4-.44-.61-.64-.37-.3-.54-.47a3,3,0,0,1-.27-.35A1.75,1.75,0,0,0,5,5.88a6.41,6.41,0,0,1-.55-.49A6.65,6.65,0,0,1,4,4.8l-.37-.42c-.16-.2-.32-.4-.5-.59s-.24-.18-.35-.29A2.92,2.92,0,0,1,2.37,3a1.56,1.56,0,0,0-.43-.52,2.27,2.27,0,0,1-.26-.35C1.62,2,1.54,2,1.48,1.89S1.07,1.44.87,1.2.61.74.41.64.26.26.07.17c0,0,0-.11,0-.17A.44.44,0,0,1,.2.08L.49.37.85.72A1.91,1.91,0,0,0,1.18,1a2.39,2.39,0,0,1,.72.62,3.67,3.67,0,0,0,.38.27,1.89,1.89,0,0,1,.2.2l.68.61c.19.16.39.29.57.45s.33.3.5.45L4.71,4,5,4.28a3.32,3.32,0,0,0,.25.27c.31.24.63.45.93.69.12.1.19.25.31.35s.39.3.57.46.44.42.68.59a4.38,4.38,0,0,1,.66.63,5.34,5.34,0,0,0,.66.59c.14.11.32.19.48.3a3.45,3.45,0,0,1,.28.26,3.16,3.16,0,0,0,.62.59c.11.07.17.22.26.33s0,.05.07.05c.26,0,.35.24.51.37s.27.19.39.3.17.22.27.32l.35.29a3,3,0,0,0,.27.23c.19.15.39.29.56.45s.33.37.51.53.39.31.58.47l.21.22c.17.19.33.39.51.56s.4.32.59.48A4.59,4.59,0,0,1,16,14c.21.22.43.45.62.69a.71.71,0,0,1,.26.61c0,.3,0,.62,0,.93,0,.14.06.32-.16.37,0,0,0,.08,0,.12,0,.33-.17.54-.35.77s-.2.34-.32.48a2.37,2.37,0,0,1-.34.29c-.11.09-.21.19-.31.29s0,.06-.07.07c-.21.1-.49.14-.61.31s-.47.08-.57.34c0,0-.13,0-.19,0s-.36-.08-.45.17c0,0-.18,0-.28,0s-.45-.08-.61.16c0,.06-.19,0-.29,0s-.41,0-.61,0a1.24,1.24,0,0,0-.32.12s-.07.05-.09,0c-.32-.08-.53.2-.8.27s-.22.18-.32.29a4.38,4.38,0,0,0-.29.34s-.08.06-.08.09c0,.39-.33.7-.28,1.13a.81.81,0,0,1-.15.77s0,.15,0,.22c0,.45,0,.89,0,1.34,0,.08-.07.15-.11.24a.51.51,0,0,0-.07.17,4.35,4.35,0,0,1,0,.51,1.81,1.81,0,0,1-.16.35s0,0,0,0a1.67,1.67,0,0,1-.22.78c-.08.14,0,.38-.21.46,0,0,0,.06,0,.09s0,.09,0,.13l-.34.63s0,0,0,0c-.08.22-.15.45-.24.68a1.19,1.19,0,0,1-.13.25s-.06,0-.07.07c-.08.23-.15.46-.23.69a.47.47,0,0,1-.07.12,1.13,1.13,0,0,0-.13.2c0,.16,0,.34-.18.45-.06,0,0,.22,0,.34s.05.26-.14.3a.28.28,0,0,0,0,.16c0,.43,0,.85,0,1.28,0,.07.08.13.1.2a2.09,2.09,0,0,1,.08.34c0,.13-.06.31.16.34,0,0,0,0,0,0-.06.28.24.41.27.65a.55.55,0,0,0,.22.32,1.39,1.39,0,0,1,.45.54c.07.13.26.2.39.3s.25.26.39.37a4.81,4.81,0,0,0,.41.27l.43.34a2.62,2.62,0,0,0,.34.24c.15.1.32.17.47.28a3.19,3.19,0,0,1,.26.26c0,.05.12.08.17.13a4.83,4.83,0,0,1,.42.37,3.31,3.31,0,0,1,.39.45,5.93,5.93,0,0,1,.35.63.62.62,0,0,1,.11.26q0,1.05,0,2.1c0,.07-.09.14-.13.21l0,0c-.09.25-.18.5-.24.69l-.42.43-.32.31c-.11.1-.21.22-.32.32s-.26.21-.39.31-.36.13-.4.25-.19.13-.29.18a3.39,3.39,0,0,0-.39.27.62.62,0,0,1-.17.11c-.11,0-.27,0-.28.17l0,0-.7.26-.26.12a.65.65,0,0,1-.17.08c-.11,0-.26,0-.3.16,0,0-.13,0-.2.05s-.37-.09-.42.18c0,0-.08,0-.12,0s-.41,0-.53.18c0,0-.08,0-.12,0-.2,0-.43-.07-.55.18-.68,0-1.31.43-2,.24a7.59,7.59,0,0,0-.27-.93,2.83,2.83,0,0,0-.34-.51c-.1-.16-.17-.34-.27-.51a6,6,0,0,1-.34-.53c-.08-.18-.28-.26-.3-.5s-.15-.25-.24-.37-.1-.14-.15-.21l-.15-.21a.67.67,0,0,1-.06-.12.87.87,0,0,0-.16-.34,2.07,2.07,0,0,1-.28-.64c0-.05,0-.1-.08-.16a.84.84,0,0,1-.11-.21c-.06-.15.08-.37-.19-.46,0,0,0-.19,0-.29s0-.27-.15-.36-.05-.2-.06-.31c0-.27,0-.56-.17-.81C0,38,0,37.81,0,37.68c0-.46,0-.91,0-1.36a1.25,1.25,0,0,1,.15-.72c.1-.14,0-.39.06-.59s0-.31.16-.38c0,0,0-.1,0-.16s0-.26.15-.28c0,0,0-.07.05-.11s0-.31.18-.35c0,0,0-.11,0-.16A1.53,1.53,0,0,1,1,33.36a.33.33,0,0,0,.06-.1,1.11,1.11,0,0,1,.37-.56,2.27,2.27,0,0,0,.29-.48c.06-.1.11-.24.21-.29.35-.18.42-.56.65-.83s.36-.33.54-.5c0,0,0,0,0-.06,0-.27.24-.4.41-.56a2.55,2.55,0,0,0,.4-.53,1.26,1.26,0,0,1,.43-.54s0-.05,0-.09c0-.25.21-.36.37-.51a.16.16,0,0,0,.05-.1,1.06,1.06,0,0,1,.35-.56s0-.13.09-.18.1-.14.14-.21a.47.47,0,0,0,.06-.15c0-.11,0-.26.17-.28,0,0,0-.1,0-.16s0-.24.15-.25l0,0c.08-.25.15-.5.25-.75a4.73,4.73,0,0,1,.25-.8,1.84,1.84,0,0,0,.17-.69,1.78,1.78,0,0,1,.12-.29.73.73,0,0,0,.07-.24c0-.26,0-.52,0-.78s-.07-.35.15-.46c0,0,0-.12,0-.19,0-.23,0-.47,0-.7a1,1,0,0,1,.13-.3s0,0,0-.05a1.7,1.7,0,0,1,.23-.88c.1-.22.09-.54.24-.69s.25-.59.57-.76c.13-.07.18-.3.28-.45a.88.88,0,0,1,.22-.28.93.93,0,0,0,.39-.93c0-.06.07-.13.1-.19a.59.59,0,0,0,.09-.24c0-.35,0-.69,0-1,0,0,0-.09,0-.09C9,15.43,9.1,15.17,9,15a3.62,3.62,0,0,0-.37-.53A3.5,3.5,0,0,0,8.4,14c-.16-.18-.13-.47-.38-.6,0,0,0-.09,0-.14S8,13,7.84,13c0,0,0-.05,0-.08,0-.26-.21-.41-.34-.6s0-.13-.09-.18-.1-.13-.15-.21a1.15,1.15,0,0,1-.06-.17A1.24,1.24,0,0,0,7,11.47c-.08-.14,0-.34-.23-.42,0,0,0-.25,0-.38Zm-4,26.08c0,.3.12.6-.19.83-.11.08,0,.56.09.65a3.4,3.4,0,0,1,.3.23c.11.12.54.24.59.13s.29-.16.37-.18a1.58,1.58,0,0,0,.27-2c-.06-.07-.11-.16-.18-.19s-.26-.31-.51-.29-.61,0-.92,0c0,.2-.3.25-.25.5A.38.38,0,0,0,2.74,36.75Z" fill="#fff"/><path d="M48.62,25.75a1.27,1.27,0,0,1,.12.23c0,.1,0,.23.16.24s0,0,0,0c.08.22.16.44.23.67s0,.3.17.37c0,0,0,.1,0,.16s-.07.4.18.52c0,0,0,.19,0,.29,0,.26-.11.57.17.79,0,0,0,.12,0,.19,0,.71,0,1.43,0,2.14a.86.86,0,0,1-.11.29c0,.07-.05.14-.06.2,0,.26,0,.53,0,.79s0,.26-.14.33,0,.19-.06.3,0,.28-.15.33c0,0,0,0,0,.06l-.24.81a.5.5,0,0,1-.1.14l-.08,0c.08.28-.27.38-.26.63,0,0-.06.07-.1.11s-.06-.07-.07-.11c0-.21,0-.42,0-.63s.09-.39-.17-.5c0,0,0-.12,0-.19s.07-.38-.18-.46c0,0,0-.06,0-.09a2,2,0,0,0-.25-.64c-.19-.2-.24-.47-.42-.66s-.37-.31-.54-.48a2.63,2.63,0,0,0-.51-.54c-.25-.15-.36-.49-.71-.51-.11,0-.21-.15-.32-.22l-.28-.19a.81.81,0,0,1-.14-.12s0-.07-.06-.07c-.3,0-.48-.24-.7-.38a4.78,4.78,0,0,0-.62-.26c-.24-.11-.47-.25-.7-.37L42.51,29c-.1,0-.26,0-.29-.17,0,0-.1,0-.15,0s-.25,0-.27-.15c0,0-.09,0-.14-.05s-.28,0-.31-.17c0,0-.07,0-.11,0s-.41.06-.5-.21c0,0-.13,0-.19,0a1.55,1.55,0,0,1-.22-.12.75.75,0,0,0-.12-.07.82.82,0,0,1-.38-.15,3.28,3.28,0,0,0-.83-.3l-.14,0-.35-.14c-.1,0-.27,0-.27-.17v0c-.29.07-.44-.22-.7-.24s-.22-.11-.34-.16l-.16,0c-.1,0-.25,0-.27-.15s-.08-.05-.12-.06-.29,0-.31-.17l0,0L35.62,26l-.11-.08a1,1,0,0,0-.19-.12c-.1,0-.24,0-.26-.16,0,0-.09,0-.13,0s-.28,0-.28-.16a0,0,0,0,0,0,0c-.25,0-.37-.18-.56-.26a2.93,2.93,0,0,1-.48-.33s0,0-.05,0a.93.93,0,0,1-.61-.41c-.1-.12-.29-.15-.42-.25a3.15,3.15,0,0,1-.38-.35l-.23-.23a4.67,4.67,0,0,1-.77-.69c-.16-.23-.46-.38-.49-.71,0-.08-.12-.15-.18-.23s-.24-.36-.35-.54a1.39,1.39,0,0,1-.06-.19c0-.16,0-.34-.19-.43,0,0,0-.09,0-.14s.06-.41-.18-.52c0,0,0-.11,0-.17,0-.76,0-1.51,0-2.27a.75.75,0,0,1,.08-.24c.05.05.08.13.14.15.29.1.39.47.74.5.12,0,.22.18.33.27a.45.45,0,0,0,.14.1c.12,0,.28,0,.32.17,0,0,.13,0,.19,0l.38.17a0,0,0,0,1,0,0c.28.08.55.17.83.24s.33,0,.46.16.28,0,.43.05.33-.06.41.15c0,0,.11,0,.16,0l.53,0c.14,0,.3,0,.39.14s.14.05.22.05l.57,0c.17,0,.36,0,.48.14s.13,0,.19,0l.71,0c.19,0,.39,0,.56.15s.22,0,.34.06c.33,0,.68-.05,1,.17.16.11.44,0,.66.06a.58.58,0,0,1,.46.14c.08.08.29,0,.43.06s.33-.06.43.16c0,.06.24,0,.36.05s.38-.1.46.17c0,0,.11,0,.16,0s.38-.05.49.18c0,0,.11,0,.16,0s.29.12.43.18l.17,0c.1,0,.25,0,.26.15a.08.08,0,0,0,0,0l.65.23c.05,0,.13,0,.13,0,0,.21.17.14.28.18a.72.72,0,0,1,.15.11s.06.07.1.08a.88.88,0,0,1,.56.38.14.14,0,0,0,.09,0,1.1,1.1,0,0,1,.52.38c.17.18.39.31.56.47s.33.36.5.54.14.18.22.26l.55.51a.15.15,0,0,1,0,.09,1,1,0,0,0,.38.54c.06.07,0,.22.07.33Z" fill="#fff"/><path d="M46.23,21,46,20.92c0-.22-.13-.34-.23-.49a2.17,2.17,0,0,0-.24-.29,5,5,0,0,0-.61-.61,2.92,2.92,0,0,1-.45-.41c-.12-.13-.35-.14-.49-.26s-.48-.14-.63-.26-.41-.07-.55-.18c-.33-.27-.76-.06-1.07-.22-.59-.31-1.2-.09-1.79-.18a5.08,5.08,0,0,1-.52-.15,1,1,0,0,0-.24,0l-2.37,0a3.23,3.23,0,0,1-.51-.14.71.71,0,0,0-.2,0l-.76,0a1,1,0,0,1-.6-.14c-.14-.1-.39,0-.59-.08s-.3-.09-.45-.12-.35,0-.52-.08-.16-.1-.25-.13a1.43,1.43,0,0,0-.28-.07c-.14,0-.33.07-.39-.16,0,0,0,0,0,0-.32.07-.54-.19-.83-.25a3.24,3.24,0,0,1-.74-.38c-.1-.06-.18-.12-.28-.17l-.61-.31a1.36,1.36,0,0,1-.32-.21c-.19-.17-.34-.37-.52-.54a1.07,1.07,0,0,0-.33-.24A2.51,2.51,0,0,1,28,14l-.58-.63-.27-.36a3.31,3.31,0,0,0-.26-.27,2.06,2.06,0,0,1-.33-.33,3.74,3.74,0,0,0-.41-.55c-.16-.22-.47-.37-.49-.71,0-.09-.12-.21-.21-.26-.32-.2-.43-.55-.64-.83a4.29,4.29,0,0,0-.53-.51.36.36,0,0,1,0-.11A1.05,1.05,0,0,0,23.82,9a3.65,3.65,0,0,1-.29-.37l-.2-.2c-.25-.19-.26-.57-.59-.7-.12,0-.17-.23-.26-.34a1.75,1.75,0,0,0-.23-.24c-.18-.16-.38-.31-.55-.47s-.33-.35-.5-.52a.51.51,0,0,0-.13-.09,1.18,1.18,0,0,1-.48-.38A1.49,1.49,0,0,0,20,5.26a3.59,3.59,0,0,1-.53-.38c-.21-.12-.43-.2-.65-.31a.67.67,0,0,1-.14-.11s0-.08-.07-.08a.66.66,0,0,1-.42-.18C18,4,17.69,4,17.43,4a.92.92,0,0,1-.21-.13s0,0,0,0c-.33,0-.59-.2-.89-.24s-.47,0-.68-.17c-.06-.06-.2,0-.31,0l-.51,0V3.19A.43.43,0,0,1,15,3.13a3.74,3.74,0,0,1,.58,0c.09,0,.17.07.26.1a1,1,0,0,0,.23.06c.3,0,.59,0,.88,0s.43,0,.63.15.36,0,.54.06a.7.7,0,0,1,.23.11s0,0,.06,0c.36,0,.62.25,1,.27.07,0,.14.09.22.13a.31.31,0,0,0,.13.06c.12,0,.29,0,.33.18,0,0,.1,0,.16,0s.23,0,.23.15.05,0,.07,0c.28,0,.43.22.62.36s.59.34.88.51a.84.84,0,0,1,.27.22c.2.31.56.43.82.65a6.17,6.17,0,0,1,.48.54c.17.17.38.31.56.47a3.17,3.17,0,0,1,.28.34l.22.27.45.45s.09,0,.1.07c.11.41.43.35.73.34s.37,0,.55,0a2.36,2.36,0,0,0,.28-.12A1.11,1.11,0,0,1,27,8.57h5.14c.15,0,.29.11.44.14a4.69,4.69,0,0,0,.54.06c.2,0,.4,0,.57.16S34,9,34.15,9s.27,0,.38.13.21,0,.33.07.35,0,.45.17c0,.05.19,0,.29,0s.3-.06.33.16c0,0,0,0,0,0l.77.22c.1,0,.25,0,.26.17,0,0,.1,0,.16,0s.25,0,.26.16a0,0,0,0,0,0,0l.65.24a.88.88,0,0,1,.15.12s0,.07,0,.07c.3,0,.44.29.66.36a2.06,2.06,0,0,1,.65.46s.08,0,.08,0a3,3,0,0,1,.22.74c0,.94,0,1.88,0,2.83,0,.1,0,.19-.14.25s0,.21-.07.32.06.25-.14.27c0,0,0,.09,0,.15s0,.25-.16.29c0,0,0,.15,0,.23a.82.82,0,0,0,.34.81,1.61,1.61,0,0,1,.28.24c.21.24.46.17.7.13a.67.67,0,0,0,.34-.22,6.17,6.17,0,0,1,.67-.76c.15-.12.14-.35.2-.37.3-.09.07-.47.34-.57,0,0,0-.2,0-.31s0-.24.14-.31.06-.21.07-.32,0-.48.21-.63a.21.21,0,0,1,.2,0,.43.43,0,0,1,.2.2c.1.27.44.36.49.68,0,.13.22.23.32.35s.17.23.25.35.15.38.29.48.13.18.16.29a.45.45,0,0,0,.11.13.15.15,0,0,0,.06,0c-.06.25.17.37.25.56a6.63,6.63,0,0,0,.33.65c0,.07,0,.15.09.22a1,1,0,0,0,.14.22s0,0,0,0c0,.24.16.4.23.6s-.07.38.18.49c.06,0,0,.24,0,.36s0,.34.15.49S46.21,20.76,46.23,21Z" fill="#fff"/><path d="M42,48.89c0-.15-.09-.36.18-.42,0,0,0-.11,0-.16s0-.24.15-.24a.07.07,0,0,0,0,0c.08-.32.16-.64.25-1,0-.16.1-.31.15-.46a.83.83,0,0,0,0-.22c0-.59,0-1.18,0-1.77,0-.11-.1-.21-.12-.33s0-.29-.07-.44.07-.34-.17-.42c0,0,0-.15,0-.23s0-.33-.18-.39c0,0,0-.1,0-.16s0-.25-.15-.26l0,0c.07-.27-.2-.41-.25-.65a2.49,2.49,0,0,0-.33-.56s-.06,0-.06-.07c0-.29-.23-.44-.39-.63s0-.13-.06-.19a.91.91,0,0,0-.11-.16s-.07,0-.07,0c.07-.24-.13-.39-.24-.49s-.24-.62-.57-.75a.1.1,0,0,1,0-.07.8.8,0,0,0-.39-.57s0,0,0-.06a.73.73,0,0,0-.38-.56s0-.08,0-.12a.87.87,0,0,0-.36-.5s-.06,0-.06-.08a.9.9,0,0,0-.39-.58s0,0,0-.07,0-.29-.21-.33-.11-.16-.15-.24-.2-.4-.3-.59a2,2,0,0,0-.13-.18s-.07-.05-.07-.09a.57.57,0,0,0-.18-.36c-.15-.14-.16-.41-.25-.61s-.22-.44-.33-.65c0,0,0,0,0-.06-.08-.3-.17-.6-.24-.91s.06-.53-.19-.74c-.05-.05,0-.18,0-.27,0-.5,0-1,0-1.49,0-.2,0-.39.15-.57s.08-.36.06-.54.23-.25.28-.41.07,0,.09,0l.3.32,0,0c.2.09.41.16.61.26s.27.18.41.26.46.24.69.37a.38.38,0,0,1,.13.09.2.2,0,0,1,0,.08c.27-.06.38.21.6.26a2.58,2.58,0,0,1,.58.28,2,2,0,0,1,.57.35c.14.2.46.09.53.35,0,0,0,0,0,0,.27-.09.38.21.6.26s.27.21.41.31,0,.05.08.05a.94.94,0,0,1,.59.38.34.34,0,0,0,.14.05.77.77,0,0,1,.45.36.33.33,0,0,0,.1.06c.25,0,.37.22.54.37s.45.33.66.52a4.51,4.51,0,0,1,.54.53,6.57,6.57,0,0,0,.5.65,1.28,1.28,0,0,1,.42.58c0,.12.15.21.23.31a1.82,1.82,0,0,0,.15.23,2.43,2.43,0,0,0,.14.2l0,0c.08.23.17.46.24.69s0,.3.17.35c0,0,0,.07,0,.1,0,.2-.07.42.18.58.08,0,0,.3,0,.45a2.84,2.84,0,0,0,.13.38.76.76,0,0,1,.06.26,20.3,20.3,0,0,1,0,2.59,6.79,6.79,0,0,1-.21,1.3c-.08.25-.07.55-.2.71s-.08.45-.2.61a1.58,1.58,0,0,0-.2.47,2.32,2.32,0,0,1-.35.53.19.19,0,0,0,0,.1c0,.25-.23.38-.36.56s-.06.07-.06.1a.74.74,0,0,1-.36.51.1.1,0,0,0,0,.06c-.06.37-.38.54-.62.78s-.3.38-.47.56a3,3,0,0,1-.34.25,1.51,1.51,0,0,0-.23.21c-.19.25-.59.25-.71.59,0,0-.08,0-.11,0a.74.74,0,0,0-.32.16,2.43,2.43,0,0,1-.75.32Z" fill="#fff"/><path d="M14.51,42.21c.18,0,.39,0,.44-.21H15c.22-.08.45-.14.66-.24a4.81,4.81,0,0,0,.55-.37s0,0,0,0c.25.06.39-.18.61-.22s.35.06.4-.18c0,0,.1,0,.15,0s.37,0,.48-.18c0,0,.14,0,.21,0s.27-.12.41-.16a1.09,1.09,0,0,1,.25,0c.22,0,.46,0,.64-.19,0,0,.19,0,.29,0,.28,0,.58.05.83-.16a.57.57,0,0,1,.32,0c.58,0,1.16,0,1.74,0a1.52,1.52,0,0,1,.65.14,2.24,2.24,0,0,0,.79.07c.17,0,.34,0,.48.14s.18.05.28.07.39,0,.5.18c0,0,.09,0,.14,0s.26,0,.3.15a.08.08,0,0,0,.06,0c.29,0,.49.17.72.26a2.75,2.75,0,0,1,.44.32s0,.05.08.05c.36.07.54.37.78.6s.36.29.53.46.18.25.28.37.12.2.22.24.1.45.37.51c0,0,0,.06,0,.09s0,.1,0,.12c.2.16.15.45.34.62s.05.19.07.3-.05.27.15.32c0,0,0,.15,0,.23s-.06.47.19.63c0,0,0,0,0,.07.08.62.15,1.24.24,1.86a1.66,1.66,0,0,0,.13.35.84.84,0,0,1,.06.24c0,.21,0,.43,0,.65a2.44,2.44,0,0,0,.14.34c0,.11,0,.23.06.34s-.09.41.17.52c0,0,0,.09,0,.14s-.06.29.15.31c0,0,0,0,0,0-.06.28.23.41.27.66a.79.79,0,0,0,.23.33,6.35,6.35,0,0,0,.58.58,2.78,2.78,0,0,0,.49.24h.1c.19.3.51.16.77.22s.21.08.32.12a.53.53,0,0,0,.24.06A1.89,1.89,0,0,0,35.16,53c.16-.1.41,0,.62-.06s.23-.12.36-.14a3.8,3.8,0,0,1,.59-.06.16.16,0,0,1,0,.11.19.19,0,0,1-.09.09l-.75.41s-.12,0-.17,0a1.7,1.7,0,0,0-.22.15s0,0,0,0a7.1,7.1,0,0,1-.79.22,3.16,3.16,0,0,0-.95.16c-.15.08-.4,0-.61-.07l-.67-.08c-.14,0-.34.08-.38-.17l-.11,0c-.33,0-.54-.17-.77-.36l-.11,0c-.23,0-.32-.22-.45-.37l-.23-.2a8.21,8.21,0,0,0-.64-.67,1.13,1.13,0,0,1-.4-.58c0-.18-.24-.33-.35-.5a3.62,3.62,0,0,1-.19-.4c-.09-.21-.19-.43-.29-.64s-.1-.15-.14-.22a.47.47,0,0,1-.06-.15c0-.11,0-.27-.16-.29,0,0,0-.09,0-.13s0-.29-.17-.31l0,0a5.27,5.27,0,0,0-.25-.7,5,5,0,0,0-.33-.55.52.52,0,0,1-.06-.16c0-.1,0-.24-.16-.24,0,0-.06,0-.05-.07.09-.24-.23-.31-.22-.51-.29,0-.13-.38-.4-.49s-.27-.41-.47-.53-.35-.48-.7-.51a.39.39,0,0,1-.3-.21c-.06-.19-.26-.12-.32-.19s-.44-.12-.61-.31a.62.62,0,0,0-.29-.09,3,3,0,0,1-.77-.16,1,1,0,0,0-1,.1c-.09.07-.27,0-.41.06a2.39,2.39,0,0,0-.37.15s-.09.06-.13.06a.68.68,0,0,0-.55.36c-.07.11-.22.16-.32.26s-.18.25-.29.36-.14.55-.39.73c0,0,0,.11,0,.17,0,.32,0,.63,0,1,0,.12-.05.29.16.31,0,0,0,0,0,0-.08.27.19.4.27.61a1.51,1.51,0,0,0,.35.42c.26.25.64.32.89.59,0,0,.11,0,.17,0s.15,0,.17,0c.2.32.51.14.76.18a1.87,1.87,0,0,0,.41,0c.15,0,.34.08.41-.16,0,0,.07,0,.11,0,.32-.06.49-.32.7-.53s.22-.23.33-.35l.06,0c0-.44.36-.82.2-1.27a4.37,4.37,0,0,0-.43-.93c-.09-.14-.31-.18-.47-.27a4.83,4.83,0,0,1-.59-.32,1.28,1.28,0,0,0-1,.06.14.14,0,0,1-.08.06c-.36,0-.48.31-.72.45-.06,0,0,.17-.07.26s-.06.07-.1.11S21,46.3,21,46.26s-.07-.27.12-.34c0,0,.05-.09.07-.15a.7.7,0,0,1,.48-.45h.08c.18-.31.5-.14.75-.21a.65.65,0,0,1,.27-.05l.68.07c.12,0,.28,0,.32.15,0,0,.06,0,.09,0a1.3,1.3,0,0,1,.75.57,3.26,3.26,0,0,0,.33.31.08.08,0,0,1,0,.06c.06.38.3.73.22,1.15a2.91,2.91,0,0,0,0,.42c0,.18.06.39-.15.52,0,0,0,.11,0,.17,0,.3-.18.47-.37.66a.25.25,0,0,0,0,.13.76.76,0,0,1-.46.47,1.7,1.7,0,0,0-.39.27l-.19.11-.29.14a.61.61,0,0,1-.26.08c-.6,0-1.2,0-1.81,0-.07,0-.14-.07-.22-.11s-.07-.06-.1,0c-.31.06-.52-.22-.8-.26-.12,0-.23-.16-.34-.24l-.24-.17a1.94,1.94,0,0,1-.33-.23c-.17-.17-.3-.38-.47-.55s-.25-.18-.37-.28a2.49,2.49,0,0,1-.23-.23,9.85,9.85,0,0,0-.68-.77,4.16,4.16,0,0,1-.64-.62.86.86,0,0,0-.29-.19,1.4,1.4,0,0,1-.57-.45s-.1,0-.15,0a1.06,1.06,0,0,1-.26-.17c-.14-.07-.35,0-.42-.23,0,0-.13,0-.19,0s-.13-.09-.21-.12l-.27-.08c-.13,0-.3,0-.38-.15s-.2,0-.31-.06-.41,0-.56-.18c0,0-.15,0-.24,0a1.93,1.93,0,0,1-.88-.15,2,2,0,0,0-.7-.06l-.22-.06.13-.17c.18-.19.34-.39.53-.56s.29-.18.42-.29a3.89,3.89,0,0,0,.39-.32l.4-.27.46-.35.07-.06c.27,0,.43-.23.62-.38a.29.29,0,0,1,.14-.05C14.41,42.39,14.57,42.41,14.51,42.21Z" fill="#fff"/><path d="M20.87,14.19l.14.21a2.35,2.35,0,0,0,.28.46c.18.2.19.31,0,.46a.94.94,0,0,1-1.1,0,.58.58,0,0,0-.19,0c-.17,0-.4.08-.48-.19,0,0-.13,0-.19,0l-.2-.13s-.06-.07-.09-.07a.72.72,0,0,1-.57-.38.07.07,0,0,0-.06,0c-.27,0-.39-.22-.55-.39s-.39-.31-.58-.49-.16-.24-.26-.34-.22-.18-.32-.28a.93.93,0,0,1-.24-.29c-.08-.26-.32-.41-.41-.63s-.35-.36-.29-.64c-.28-.08-.08-.47-.35-.55,0,0,0,0,0-.08a.89.89,0,0,0-.17-.43,2.87,2.87,0,0,1-.26-.83c0-.13,0-.28-.17-.36s0-.2,0-.31.06-.39-.18-.5c0,0,0-.1,0-.14,0-.21,0-.43,0-.63a1.24,1.24,0,0,0-.12-.32.87.87,0,0,1,0-.22c0-.67,0-1.34,0-2,0-.17.09-.25.22-.24s.47-.1.64.16c0,0,.18,0,.26,0s.32-.06.36.17l0,0c.25.07.51.14.76.23s.37.12.42.24.41.15.52.37a.68.68,0,0,0,.35.36c.26.09.15.4.38.52s.12.39.25.49.1.6.38.78c0,0,0,.11,0,.17s0,.35.17.48,0,.24.05.36-.07.36.17.45c0,0,0,.1,0,.16.05.25-.08.53.17.76.08.07,0,.29,0,.44s-.06.4.18.51c0,0,0,0,0,0-.11.38.19.65.26,1a1,1,0,0,0,.34.65.08.08,0,0,1,0,.06,1.08,1.08,0,0,0,.37.63c.06.07.05.2.07.31Z" fill="#fff"/><path d="M33.14,32.67l.39-.61a.41.41,0,0,0,0-.09c.05-.21,0-.46.23-.61A6.33,6.33,0,0,0,34,28.73c-.07-.37-.1-.74-.18-1.11,0-.14-.13-.26-.17-.39s0-.12.07-.18a.88.88,0,0,1,.15.12c.08.09.12.23.22.28s.15.34.2.36c.29.09.08.48.35.55,0,0,0,.11,0,.17s-.07.38.19.46c0,0,0,.09,0,.14a2.61,2.61,0,0,0,.17.95,1.4,1.4,0,0,1,0,.65,1.88,1.88,0,0,1-.12.9,2.34,2.34,0,0,0-.07.67.56.56,0,0,1-.13.22l-.05,0c.09.28-.16.45-.24.67a1,1,0,0,1-.33.56s0,.1-.07.14l-.37.48c-.1.12-.18.25-.28.35a2.85,2.85,0,0,1-.32.27,1.1,1.1,0,0,0-.22.21c-.2.26-.6.26-.74.59,0,0-.11,0-.16,0s-.24,0-.23.15l0,0L31,36.3l-.35.17a.67.67,0,0,1-.19.05c-.17,0-.36,0-.46.17,0,0-.14,0-.21,0-.24,0-.5-.06-.7.17,0,.05-.16,0-.24,0l-.81,0c-.15,0-.31,0-.43.14s-.15,0-.24,0l-2.72,0c-.13,0-.26,0-.35.13s-.15.05-.23.05c-.39,0-.79,0-1.18,0a3.38,3.38,0,0,0-.42.13c-.14,0-.29,0-.44.06s-.5-.07-.69.18c-.05,0-.2,0-.29,0s-.4-.06-.53.18c0,.06-.25,0-.38,0a.62.62,0,0,1,0-.16c.22,0,.28-.33.53-.26.08-.27.47-.08.55-.35,0,0,.09,0,.13-.05s.29,0,.31-.16c0,0,0,0,0,0l.89-.23a1.47,1.47,0,0,0,.28-.14l.07-.06c.44-.08.89-.15,1.33-.24a1.69,1.69,0,0,0,.31-.13l.29-.06c.29-.05.62.1.86-.18,0,0,.15,0,.22,0h.66c.11,0,.24,0,.31-.13s.15-.06.23-.06.38,0,.56,0,.29-.12.44-.15a2.33,2.33,0,0,1,.37,0c.24,0,.51.06.7-.19,0,0,.12,0,.19,0s.36.05.44-.18l0,0c.28-.08.56-.15.83-.25a1,1,0,0,0,.28-.19c.17-.11.33-.24.5-.36l.4-.26a3.81,3.81,0,0,0,.41-.29,2.67,2.67,0,0,0,.37-.38c.11-.14.19-.3.29-.45l.16-.2Z" fill="#fff"/><path d="M16.19,22.88c0-.26,0-.52,0-.78a2.06,2.06,0,0,1,.37-.72c.16-.18.29-.39.45-.57s.28-.16.33-.27.47-.1.58-.36c0-.05.17-.05.26-.05.37,0,.74,0,1.11,0,.09,0,.19.08.28.12a.49.49,0,0,0,.19.07.78.78,0,0,1,.68.37.25.25,0,0,0,.09,0c.28.05.39.27.51.49a.79.79,0,0,0,.24.36c.17.08.12.21.16.33a1.63,1.63,0,0,1,.14.34,2.25,2.25,0,0,1,0,.58.67.67,0,0,1-.14.26,3.48,3.48,0,0,1-.28.39,4,4,0,0,1-.37.33s0,0,0,0c-.17.05-.37.05-.46.25-.39,0-.68.32-1.09.24-.08,0-.18.08-.27.11a.75.75,0,0,1-.23.07H17.22c-.07,0-.14-.08-.22-.13a.31.31,0,0,0-.1,0c-.09,0-.23,0-.28-.07-.19-.24-.5-.43-.45-.82a3.75,3.75,0,0,0,0-.58Zm2.69-.39a4.38,4.38,0,0,1,.66-.24c.33-.06.59-.18.67-.54a.18.18,0,0,1,.07-.08.32.32,0,0,0,0-.47c-.15-.19-.19-.45-.5-.45,0,0,0,0,0,0a1,1,0,0,0-.21-.14c-.12,0-.26-.06-.38-.09a1,1,0,0,0-.32-.09,6,6,0,0,0-.73.19s0,.05-.05.07-.1.11-.16.11-.24.1-.27.26,0,.11-.06.13c-.22.11-.14.32-.11.46a.76.76,0,0,0,.27.41c.14.11.27.31.5.24C18.38,22.51,18.64,22.39,18.88,22.49Z" fill="#fff"/><path d="M37,8c.25,0,.52-.15.74.14,0,.07.24,0,.36.05s.13.08.2.11l.27.09c.14,0,.32-.06.38.16,0,0,.07,0,.11,0s.36,0,.53.19.39,0,.59,0a.66.66,0,0,0,.2,0c0-.35,0-.7,0-1A1.32,1.32,0,0,1,40.49,7c.1-.16,0-.41.07-.62s-.1-.58.2-.8c.06,0,0-.24,0-.36A.66.66,0,0,1,40.87,5c0,.07.1.14.09.19,0,.23.1.48-.14.68s0,.86.07,1a.52.52,0,0,1,.07.21c0,.31,0,.62,0,.93,0,.14-.06.31.16.37,0,0,0,0,0,.07-.08.33.18.56.26.85a1,1,0,0,0,.19.29c.12.15.26.29.38.44s.16.25.26.35.24.19.35.29a1.75,1.75,0,0,1,.24.23c.16.19.3.4.47.57s.38.3.55.47.31.35.46.53a1.78,1.78,0,0,1,.23.33s0,.11,0,.16a.75.75,0,0,1-.15-.09c-.11-.1-.19-.22-.31-.31s-.48-.28-.7-.46-.34-.35-.52-.52c0,0,0-.05-.08-.05-.25,0-.36-.23-.54-.36A.64.64,0,0,0,42,11.1a1.61,1.61,0,0,0-.26.24.53.53,0,0,0-.08.25c0,.37,0,.75,0,1.13a2.71,2.71,0,0,1-.13,1,2.21,2.21,0,0,0-.07.78c0,.12,0,.26-.15.36s0,.26-.07.4a1.3,1.3,0,0,1-.11.19c0-.07-.09-.13-.09-.2,0-1.14,0-2.28,0-3.42,0-.16.05-.34-.15-.44,0,0,0-.12,0-.19s.08-.36-.17-.43c0,0,0,0,0,0a2.31,2.31,0,0,0-.74-1.07c-.14-.13-.38-.17-.48-.31s-.6-.25-.76-.56c0,0-.07,0-.11,0s-.27,0-.27-.18c0,0-.08,0-.13,0s-.27,0-.32-.17c0,0-.1,0-.16,0s-.2,0-.24-.15-.24-.06-.38-.1L37,8Z" fill="#fff"/><path d="M6.73,10.67c-.12,0-.17,0-.22-.12A6,6,0,0,0,6.17,10a1.11,1.11,0,0,1,0-.37h.08s.06,0,.06.07c0,.27.23.41.39.59s0,.25.07.37Z" fill="#fff"/><path d="M37,8l-.26,0c-.06,0-.1-.06-.15-.09s.1-.09.16-.09.34,0,.25.22Z" fill="#fff"/></g></g></svg>